{"glyphs":{"0":{"ha":764,"x_min":-45,"x_max":828,"o":"m 422 1067 q 235 1034 309 1065 q 117 941 161 1003 q 53 793 73 880 q 22 567 33 706 q 21 513 21 549 q 44 339 21 420 q 114 197 68 257 q 225 105 159 138 q 372 72 291 72 q 538 121 469 79 q 653 231 608 163 q 722 383 699 300 q 750 550 746 467 q 751 611 751 571 q 732 796 751 713 q 670 941 712 880 q 567 1034 629 1002 q 422 1067 505 1067 m 416 1139 q 616 1089 535 1139 q 744 958 697 1040 q 809 780 791 876 q 828 582 828 685 l 828 550 q 764 316 825 446 q 600 95 703 185 q 372 5 496 5 q 158 63 250 5 q 14 246 66 121 q -45 561 -39 370 q -26 760 -45 661 q 44 943 -7 858 q 186 1083 94 1029 q 416 1139 279 1137 m 389 778 q 512 715 469 774 q 555 555 555 656 q 535 451 553 493 q 483 389 517 410 q 395 361 450 368 q 310 388 345 361 q 256 458 274 416 q 239 545 239 500 q 253 653 239 600 q 300 742 267 707 q 389 778 333 778 m 511 572 q 455 691 490 659 q 389 722 420 722 q 317 677 350 722 q 283 561 283 631 q 289 491 286 517 q 316 439 293 465 q 389 411 338 414 q 480 463 450 411 q 511 572 511 514 z "},"1":{"ha":347,"x_min":-89,"x_max":378,"o":"m 334 33 l 334 1222 l -22 1111 l -45 1017 l 127 1061 l 111 17 l 334 33 m 378 0 l 72 -17 l 89 983 l -89 966 l -56 1133 l 367 1272 l 378 0 z "},"2":{"ha":764,"x_min":-56,"x_max":876,"o":"m 228 545 q 93 427 144 532 q 21 181 41 321 q 0 -94 0 40 l 766 28 l 806 167 l 161 61 q 183 173 163 109 q 238 300 202 237 q 328 414 273 363 q 450 484 382 465 q 620 568 548 511 q 738 699 692 625 q 803 843 783 772 q 823 972 823 913 q 811 1044 823 1020 q 772 1104 796 1080 q 717 1144 748 1129 q 648 1167 686 1160 q 564 1174 610 1174 q 445 1165 507 1174 q 317 1140 383 1156 q 150 1096 251 1124 q -11 1050 50 1068 l 72 828 q 111 859 89 852 q 155 872 133 865 q 366 945 238 914 q 574 975 493 975 q 611 972 602 975 q 652 926 652 962 q 601 810 652 881 q 485 677 549 739 q 400 611 420 615 q 357 593 399 611 q 281 561 316 575 q 228 545 246 547 m 461 444 q 284 292 348 414 q 200 94 220 170 l 867 211 l 800 0 l -50 -144 q -25 209 -50 66 q 40 430 1 351 q 121 545 79 509 q 214 602 163 581 q 347 640 279 604 q 473 731 415 677 q 568 836 532 785 q 604 913 604 888 q 595 928 604 926 q 557 932 578 932 q 446 917 520 932 q 355 900 372 902 q 246 866 313 895 q 123 808 179 838 q 61 772 67 779 q 48 802 59 772 q 18 883 37 831 q -24 998 -1 935 q -56 1078 -47 1061 q 99 1128 26 1105 q 251 1172 171 1151 q 404 1204 331 1192 q 547 1217 477 1217 q 648 1208 602 1217 q 735 1180 694 1200 q 809 1127 777 1160 q 861 1050 841 1095 q 876 975 876 1018 q 845 827 876 908 q 755 665 813 745 q 621 527 696 585 q 461 444 545 468 z "},"3":{"ha":833,"x_min":-122,"x_max":935,"o":"m 256 684 q 279 681 272 681 q 396 720 335 681 q 499 811 457 759 q 541 889 541 863 q 528 905 541 901 q 496 908 514 908 q 396 900 459 908 q 267 880 333 892 q 143 851 201 867 q 61 822 84 836 q 21 784 42 810 q -5 750 1 758 q -19 779 -7 750 q -48 860 -30 808 q -91 976 -67 912 q -122 1055 -114 1039 q 32 1105 -40 1082 q 184 1149 104 1128 q 337 1182 264 1170 q 481 1194 410 1194 q 581 1186 535 1194 q 668 1158 627 1177 q 741 1106 709 1138 q 794 1028 773 1074 q 803 987 803 1010 q 667 733 803 897 q 688 727 673 732 q 731 705 703 722 q 794 653 760 688 q 861 567 829 618 q 935 351 935 452 q 917 256 935 300 q 801 103 878 158 q 638 30 724 49 q 471 11 553 11 q 415 13 438 11 q 383 17 392 16 l -33 89 l 11 300 q 193 263 112 275 q 339 252 274 252 q 528 288 464 252 q 610 364 593 323 q 628 433 628 405 q 587 507 628 463 q 522 555 546 551 q 250 484 389 498 l 256 684 m 283 522 q 408 559 326 528 q 522 623 490 590 q 582 582 549 614 q 643 508 616 550 q 677 439 671 467 q 658 362 677 403 q 596 282 638 321 q 489 221 553 244 q 339 197 425 197 q 39 261 202 197 l 17 127 l 372 56 q 500 41 440 41 q 675 75 601 41 q 795 158 750 108 q 861 267 840 208 q 879 364 879 315 q 858 480 879 430 q 822 550 836 530 q 788 602 813 567 q 710 673 762 637 q 589 711 658 709 q 707 871 665 798 q 750 991 750 943 q 745 1022 750 1011 q 652 1121 714 1091 q 497 1152 590 1152 q 378 1142 440 1152 q 245 1117 315 1133 q 113 1083 174 1100 q -78 1028 52 1066 l 5 806 q 65 854 24 831 q 127 884 107 878 q 209 902 156 890 q 312 925 261 914 q 422 944 363 936 q 513 953 481 953 q 545 950 528 953 q 589 901 589 941 q 537 797 589 859 q 412 690 485 735 q 283 644 339 644 l 283 522 z "},"4":{"ha":764,"x_min":-72,"x_max":789,"o":"m 750 1117 l 478 1067 l 444 595 l 183 650 l 222 1028 l -5 1006 l -39 528 l 427 456 l 395 -127 q 505 -155 396 -155 q 571 -153 540 -155 q 616 -150 603 -151 l 750 1117 m -33 1044 l 256 1072 l 216 677 l 411 639 l 450 1111 l 789 1156 l 656 -183 q 543 -199 620 -199 q 438 -193 495 -199 q 355 -183 380 -187 l 395 428 l -72 500 l -33 1044 z "},"5":{"ha":833,"x_min":-172,"x_max":935,"o":"m 61 478 q -61 831 28 586 q -172 1122 -151 1076 q -77 1121 -139 1121 q 290 1141 123 1121 q 575 1187 457 1160 q 751 1233 693 1213 q 828 1261 808 1253 l 850 1022 q 734 980 817 1008 q 526 925 651 952 q 283 897 401 897 q 178 905 228 897 l 216 700 q 289 716 238 705 q 415 739 340 728 q 555 750 490 750 q 667 733 626 750 q 688 727 673 732 q 731 705 703 722 q 794 653 760 688 q 861 567 829 618 q 935 351 935 452 q 917 256 935 300 q 801 103 878 158 q 638 30 724 49 q 471 11 553 11 q 415 13 438 11 q 383 17 392 16 l -33 89 l 11 300 q 193 263 112 275 q 339 252 274 252 q 528 288 464 252 q 610 364 593 323 q 628 433 628 405 q 587 507 628 463 q 522 555 546 551 q 61 478 436 519 m 589 711 q 530 715 560 715 q 406 701 467 715 q 278 664 345 686 q 200 642 211 642 q 194 644 195 642 q 176 734 194 647 q 143 876 157 821 q 122 939 130 931 q 196 928 143 928 q 359 944 263 928 q 564 987 454 961 q 729 1027 673 1013 q 811 1050 785 1042 l 806 1222 q 722 1176 806 1201 q 512 1131 638 1151 q 245 1097 386 1110 q 3 1083 104 1083 q -127 1095 -80 1083 q -58 923 -108 1047 q 30 696 -9 798 q 89 528 69 594 q 168 542 104 530 q 306 566 233 554 q 439 587 380 578 q 533 595 499 595 q 588 566 557 592 q 645 503 620 539 q 677 439 671 467 q 658 362 677 403 q 596 282 638 321 q 489 221 553 244 q 339 197 425 197 q 39 261 202 197 l 17 127 l 372 56 q 500 41 440 41 q 675 75 601 41 q 795 158 750 108 q 861 267 840 208 q 879 364 879 315 q 858 480 879 430 q 822 550 836 530 q 803 578 817 559 q 760 626 789 598 q 685 679 730 654 q 589 711 640 705 z "},"6":{"ha":833,"x_min":-39,"x_max":873,"o":"m 533 439 q 444 504 511 504 q 367 486 407 504 q 300 444 328 468 q 272 406 272 420 q 267 384 272 406 q 262 346 262 361 q 378 250 262 250 q 416 253 389 250 q 511 296 478 260 q 543 383 543 332 q 533 439 543 415 m 583 428 q 590 379 590 406 q 574 303 590 340 q 516 236 557 265 q 406 199 475 208 q 374 197 395 197 q 249 249 290 197 q 207 359 207 300 q 211 389 207 376 q 248 451 218 416 q 314 513 277 485 q 378 549 352 541 q 414 554 397 554 q 515 522 465 554 q 583 428 565 490 m 345 661 q 326 704 326 679 q 393 836 326 758 q 536 979 459 913 q 672 1089 614 1045 l 783 1261 q 609 1204 706 1252 q 418 1085 511 1156 q 249 928 324 1013 q 134 761 173 844 q 92 654 122 738 q 35 471 61 571 q 9 293 9 371 q 22 211 9 243 q 148 69 54 125 q 397 12 243 12 q 522 22 456 12 q 669 75 612 36 q 751 153 726 115 q 817 272 776 192 q 839 363 839 316 q 821 451 839 408 q 787 517 804 494 q 761 550 770 541 q 727 591 752 563 q 649 655 702 618 q 528 711 596 692 q 493 715 511 715 q 405 695 447 715 q 345 661 363 675 m 378 717 q 447 743 403 731 q 530 754 490 754 q 606 733 581 754 q 627 727 612 732 q 670 705 642 722 q 733 653 699 688 q 800 567 768 618 q 873 351 873 450 q 856 256 873 300 q 762 107 821 165 q 637 22 703 50 q 517 -14 572 -6 q 422 -22 463 -22 q 375 -24 406 -24 q 184 8 268 -24 q 46 97 101 40 q -33 228 -9 153 q -39 279 -39 244 q -20 431 -39 338 q 28 619 -2 525 q 89 772 58 713 q 238 993 149 886 q 487 1196 328 1101 q 872 1333 646 1291 l 700 1061 q 602 982 668 1038 q 464 850 535 926 q 378 717 392 773 z "},"7":{"ha":972,"x_min":-106,"x_max":1072,"o":"m 711 939 l 278 -189 l 522 -161 l 1034 1117 l -66 1194 l -66 1006 l 711 939 m 650 905 l -106 966 l -106 1234 l 1072 1139 l 555 -205 l 228 -233 l 650 905 z "},"8":{"ha":833,"x_min":-47,"x_max":935,"o":"m 422 -22 q 375 -24 406 -24 q 184 8 268 -24 q 46 97 101 40 q -33 228 -9 153 q -47 328 -47 274 q -21 477 -47 404 q 61 600 6 551 q 151 664 100 635 q 228 705 201 693 q 11 933 11 789 q 33 1028 11 979 q 161 1164 79 1125 q 355 1203 242 1203 q 428 1200 389 1203 q 609 1175 541 1192 q 729 1115 677 1158 q 817 994 780 1073 q 823 964 823 979 q 802 900 823 935 q 745 823 781 866 q 667 733 708 781 q 688 727 673 732 q 731 705 703 722 q 794 653 760 688 q 861 567 829 618 q 935 351 935 452 q 917 256 935 300 q 817 107 882 164 q 675 22 751 50 q 535 -14 598 -6 q 422 -22 471 -22 m 522 22 q 695 69 631 44 q 792 122 759 94 q 842 183 826 151 q 878 272 858 214 q 893 358 893 311 q 866 478 893 428 q 822 550 840 529 q 788 602 813 567 q 710 673 762 637 q 589 711 658 709 q 665 797 631 759 q 724 866 699 834 q 763 923 749 897 q 777 972 777 949 q 772 994 777 984 q 649 1115 733 1084 q 422 1150 564 1145 q 334 1152 389 1152 q 217 1141 260 1152 q 142 1104 174 1131 q 83 1022 111 1077 q 65 947 65 986 q 96 850 65 897 q 186 761 127 802 q 328 689 244 720 q 196 656 256 686 q 95 579 137 626 q 22 478 53 533 q 4 429 15 465 q -7 343 -7 392 q 17 216 -7 276 q 143 69 49 131 q 382 7 237 7 q 522 22 446 7 m 378 549 q 432 566 406 557 q 479 584 459 574 q 511 606 500 594 q 574 569 537 598 q 641 503 612 540 q 677 439 671 467 q 681 421 681 425 q 650 328 681 380 q 557 236 620 275 q 406 197 494 197 q 393 198 399 198 q 378 199 387 199 q 174 332 174 214 q 183 389 174 351 q 263 482 195 429 q 378 549 332 535 m 378 507 q 297 468 349 502 q 244 406 244 433 q 244 406 244 406 q 233 387 243 406 q 222 345 222 365 q 389 253 222 267 q 422 252 400 252 q 557 287 511 252 q 615 362 603 322 q 628 433 628 401 q 587 507 628 463 q 522 555 546 551 q 378 507 451 526 m 278 983 q 380 1007 317 1007 q 442 1002 412 1007 q 504 990 473 998 q 550 978 534 982 q 603 936 603 966 q 551 865 603 905 q 422 789 500 825 q 322 840 360 819 q 259 884 283 861 q 235 928 235 906 q 278 983 235 958 m 283 933 q 275 914 275 923 q 288 894 275 903 q 329 871 301 884 q 406 833 357 857 q 486 873 454 857 q 533 900 517 889 q 549 921 549 910 q 539 939 549 931 q 482 967 521 956 q 404 978 444 978 q 283 933 317 978 z "},"9":{"ha":833,"x_min":-7,"x_max":905,"o":"m 334 750 q 422 685 356 685 q 499 703 460 685 q 567 745 539 721 q 595 783 595 769 q 595 783 595 783 q 597 791 595 783 q 602 816 600 800 q 604 843 604 832 q 489 939 604 939 q 450 936 477 939 q 356 893 389 929 q 323 806 323 858 q 334 750 323 775 m 283 761 q 277 810 277 783 q 319 926 277 873 q 461 990 361 978 q 493 991 472 991 q 588 966 551 991 q 643 903 625 940 q 660 829 660 865 q 656 800 660 812 q 619 738 648 772 q 552 676 590 704 q 489 640 515 648 q 453 635 470 635 q 352 667 401 635 q 283 761 303 699 m 528 517 q 530 500 530 509 q 470 320 530 448 q 328 52 410 193 q 169 -201 245 -88 q 66 -334 93 -314 l 216 -339 q 350 -214 276 -304 q 496 -8 424 -124 q 629 222 568 107 q 733 428 691 338 q 759 491 738 437 q 802 614 780 545 q 841 759 824 683 q 857 896 857 835 q 844 978 857 943 q 778 1076 825 1031 q 653 1149 731 1122 q 469 1177 574 1177 q 345 1166 405 1177 q 198 1114 254 1153 q 116 1036 141 1074 q 50 917 91 997 q 28 827 28 873 q 57 711 28 763 q 106 639 86 660 q 140 597 115 626 q 217 534 166 569 q 339 478 269 498 q 379 472 355 472 q 466 489 423 472 q 528 517 509 506 m 472 450 q 423 434 455 440 q 363 428 391 428 q 261 456 294 428 q 181 494 237 460 q 66 623 126 529 q 11 736 28 683 q -7 838 -7 789 q 11 933 -7 889 q 140 1113 57 1051 q 303 1193 223 1175 q 444 1211 382 1211 q 492 1213 461 1213 q 681 1181 597 1213 q 821 1092 765 1149 q 900 961 876 1034 q 905 909 905 945 q 865 661 905 817 q 778 416 824 504 q 679 226 743 349 q 545 -13 614 103 q 391 -231 475 -128 q 222 -389 307 -334 l 0 -378 q 83 -244 28 -334 q 235 8 138 -155 q 396 288 332 171 q 472 450 460 404 z "},"P":{"ha":764,"x_min":-56,"x_max":869,"o":"m -11 1050 l 72 828 q 109 865 87 849 q 144 880 130 880 q 155 872 153 880 l 450 5 l 578 83 l 450 533 q 621 696 534 602 q 763 876 709 790 q 817 1015 817 962 q 811 1044 817 1034 q 772 1104 796 1080 q 717 1144 748 1129 q 648 1167 686 1160 q 564 1174 610 1174 q 445 1165 507 1174 q 317 1140 383 1156 q 150 1096 251 1124 q -11 1050 50 1068 m 339 933 q 424 954 385 944 q 502 970 462 964 q 568 977 541 977 q 611 972 593 977 q 648 929 648 962 q 564 769 648 867 q 422 616 479 671 l 339 933 m -56 1078 q 99 1128 26 1105 q 251 1172 171 1151 q 404 1204 331 1192 q 547 1217 477 1217 q 648 1208 602 1217 q 735 1180 694 1200 q 809 1127 777 1160 q 861 1050 841 1095 q 869 1011 869 1031 q 786 824 869 935 q 620 630 703 713 q 494 511 536 547 l 616 83 l 439 -45 l 127 844 q 115 831 126 844 q 84 798 103 819 q 61 772 66 777 q 48 802 59 772 q 18 883 37 831 q -24 998 -1 935 q -56 1078 -47 1061 m 383 889 l 439 689 q 543 806 481 732 q 606 913 606 880 q 595 928 606 926 q 534 935 564 935 q 383 889 445 935 z "}," ":{"ha":694,"x_min":0,"x_max":0,"o":""},"M":{"ha":972,"x_min":5,"x_max":1072,"o":"m 433 983 l 122 966 l 50 56 l 361 78 l 400 489 q 437 418 413 464 q 490 316 460 372 q 522 261 520 261 q 573 355 525 261 q 623 450 621 448 l 705 -28 l 1028 -66 q 973 189 1013 3 q 891 573 933 374 q 819 915 848 772 q 789 1067 789 1058 l 616 1061 l 522 806 l 433 983 m 100 1011 l 433 1034 l 522 889 l 600 1089 l 817 1095 l 1072 -94 l 677 -56 l 606 350 l 528 200 l 422 389 l 389 45 l 5 17 l 100 1011 z "},"o":{"ha":694,"x_min":-26,"x_max":751,"o":"m 587 700 q 439 751 530 751 q 333 733 389 751 q 221 676 277 714 q 113 583 164 639 q 59 507 79 547 q 28 423 39 467 q 18 335 18 379 q 52 175 18 249 q 143 62 85 102 q 290 21 203 21 q 487 80 389 21 q 646 250 585 138 q 701 452 701 349 q 672 588 701 525 q 587 700 643 652 m 615 734 q 693 665 663 709 q 738 567 724 621 q 751 453 751 512 q 744 359 751 404 q 722 275 736 313 q 690 211 709 237 q 599 101 648 147 q 499 27 550 55 q 398 -15 448 -1 q 300 -28 349 -28 q 190 -10 242 -28 q 102 37 138 8 q 7 173 41 87 q -26 353 -26 258 q 68 616 -26 516 q 235 746 149 703 q 411 790 321 790 q 513 777 464 790 q 615 734 562 764 m 575 621 q 583 558 583 592 q 564 458 583 509 q 507 375 544 408 q 421 343 469 343 q 318 378 372 343 q 260 478 260 415 q 278 546 260 512 q 326 606 296 579 q 397 650 355 633 q 484 667 438 667 q 418 618 439 649 q 397 557 397 588 q 418 500 397 516 q 450 490 432 490 q 525 530 487 490 q 575 621 564 569 z "},"K":{"ha":764,"x_min":-89,"x_max":1083,"o":"m -22 1111 l -45 1017 l 50 1067 l 111 -155 l 350 -150 l 339 228 l 1044 -167 q 1037 -45 1042 -118 q 1028 28 1031 28 q 938 95 1026 28 q 713 264 849 161 q 472 448 578 368 q 322 561 366 528 l 667 1044 q 617 1083 664 1044 q 534 1152 570 1122 q 478 1200 498 1183 l 261 978 l 256 1227 l -22 1111 m -56 1133 l 289 1278 l 289 1055 l 472 1250 l 705 1055 l 372 572 l 1067 39 l 1083 -233 l 378 150 l 395 -183 l 72 -189 l 11 989 l -89 966 l -56 1133 z "},"L":{"ha":764,"x_min":-89,"x_max":1067,"o":"m 322 39 l 256 1227 l -22 1111 l -45 1017 l 50 1067 l 111 -155 l 1034 -200 q 1036 -153 1036 -200 q 1034 -29 1036 -86 q 1028 28 1031 28 q 932 29 1015 28 q 672 33 849 31 q 431 37 495 36 q 322 39 366 38 m 355 89 l 1067 56 l 1061 -239 l 72 -189 l 11 989 l -89 966 l -56 1133 l 289 1278 l 355 89 z "},"'":{"ha":278,"x_min":14,"x_max":296,"o":"m 245 793 l 265 1146 l 50 1174 l 151 799 l 245 793 m 268 760 l 123 779 l 14 1213 l 296 1173 l 268 760 z "},"e":{"ha":694,"x_min":-16,"x_max":789,"o":"m 625 375 l 789 178 q 695 73 769 121 q 520 -2 622 26 q 318 -29 419 -29 q 158 -5 229 -29 q 50 66 88 18 q -16 278 -16 149 q 21 478 -16 380 q 100 616 58 577 q 207 694 149 663 q 328 741 265 726 q 456 757 390 757 q 620 729 542 757 q 755 650 697 702 l 383 205 q 477 226 433 205 q 559 285 522 247 q 625 375 596 323 m 629 338 q 581 262 629 304 q 463 190 532 220 q 339 160 394 160 q 309 163 318 160 l 711 646 q 582 701 652 680 q 437 721 511 721 q 275 690 352 721 q 134 591 197 660 q 79 509 103 559 q 41 397 55 458 q 26 277 26 336 q 96 79 26 146 q 328 -1 180 -1 q 508 26 416 -1 q 667 97 600 54 q 753 183 734 140 l 629 338 m 225 225 q 192 282 205 237 q 178 380 178 328 q 225 533 178 480 q 279 570 245 556 q 354 585 313 585 q 484 542 422 585 l 225 225 m 437 533 q 370 550 404 550 q 299 535 333 550 q 250 500 264 520 q 208 380 208 446 q 213 335 208 357 q 229 275 218 313 l 437 533 z "},"O":{"ha":1042,"x_min":-46,"x_max":1105,"o":"m 911 966 q 826 1022 871 998 q 737 1057 782 1046 q 647 1068 692 1068 q 531 1051 589 1068 q 412 998 473 1034 q 288 910 351 963 q 155 783 225 858 q 57 620 90 711 q 24 432 24 528 q 64 229 24 323 q 178 83 105 136 q 368 25 257 25 q 567 68 465 25 q 756 178 669 111 q 895 311 844 245 q 949 396 923 349 q 994 491 975 444 q 1023 591 1012 538 q 1034 696 1034 644 q 911 966 1034 870 m 945 1017 q 1105 689 1105 894 q 1085 544 1105 618 q 1029 400 1065 469 q 950 278 994 332 q 809 130 879 190 q 669 32 740 69 q 533 -23 599 -6 q 404 -40 467 -40 q 139 39 258 -40 q 6 208 59 93 q -46 456 -46 323 q 89 822 -46 668 q 256 983 168 913 q 437 1094 343 1054 q 628 1135 530 1135 q 945 1017 789 1135 m 811 842 q 821 764 821 804 q 774 611 821 673 q 659 550 727 550 q 547 595 603 550 q 501 710 501 631 q 523 807 501 760 q 590 884 545 854 q 701 914 636 914 q 622 844 647 884 q 597 762 597 804 q 605 720 597 742 q 623 688 612 699 q 671 667 643 667 q 756 716 715 667 q 811 842 798 766 z "},"N":{"ha":764,"x_min":-122,"x_max":861,"o":"m 811 1178 l 478 1200 l 522 611 l 256 1227 l -83 1267 l -78 1173 l 45 1156 l 72 -161 l 311 -155 l 334 583 l 623 -267 l 822 -256 l 811 1178 m 289 1278 l 467 828 l 428 1239 l 850 1222 l 861 -300 l 611 -317 l 355 406 l 361 -189 l 39 -195 l 0 1105 l -117 1133 l -122 1305 l 289 1278 z "},"R":{"ha":833,"x_min":-56,"x_max":961,"o":"m 294 945 q 406 968 372 962 q 473 974 439 974 q 533 966 503 974 q 590 905 590 953 q 555 816 590 867 q 464 717 519 764 q 350 644 408 670 l 294 945 m 339 911 l 378 711 q 478 789 422 721 q 533 897 533 857 q 517 922 533 918 q 424 940 448 940 q 339 911 380 940 m 503 602 q 450 551 478 577 q 411 517 421 525 l 500 22 l 267 -39 l 127 844 q 112 832 123 844 q 82 798 101 820 q 61 772 64 775 q 48 802 59 772 q 18 883 37 831 q -24 998 -1 935 q -56 1078 -47 1061 q 99 1128 26 1105 q 251 1172 171 1151 q 404 1204 331 1192 q 547 1217 477 1217 q 648 1208 602 1217 q 735 1180 694 1200 q 809 1127 777 1160 q 861 1050 841 1095 q 868 1015 868 1036 q 848 942 868 982 q 795 858 828 903 q 722 766 762 814 q 794 712 760 762 q 844 595 828 663 l 961 -5 l 755 -50 l 606 500 q 590 535 602 511 q 559 581 578 558 q 517 604 539 604 q 503 602 512 604 m 650 739 q 773 900 729 829 q 817 1017 817 970 q 811 1044 817 1034 q 772 1104 796 1080 q 717 1144 748 1129 q 648 1167 686 1160 q 564 1174 610 1174 q 445 1165 507 1174 q 317 1140 383 1156 q 150 1096 251 1124 q -11 1050 50 1068 l 72 828 q 109 865 87 850 q 144 880 131 880 q 155 872 153 880 l 294 5 l 450 50 l 367 539 q 433 589 389 557 q 505 650 477 621 q 564 620 531 642 q 621 568 597 597 q 644 515 644 538 q 639 494 644 503 l 789 5 l 911 39 l 806 578 q 797 630 806 595 q 754 701 789 665 q 650 739 719 736 z "},"?":{"ha":764,"x_min":-56,"x_max":868,"o":"m 400 611 q 343 589 392 610 q 261 555 294 569 l 297 454 q 486 563 393 490 q 654 724 579 635 q 772 891 729 812 q 815 1018 815 970 q 811 1044 815 1034 q 772 1104 796 1080 q 717 1144 748 1129 q 648 1167 686 1160 q 564 1174 610 1174 q 445 1165 507 1174 q 317 1140 383 1156 q 150 1096 251 1124 q -11 1050 50 1068 l 72 828 q 111 859 89 852 q 155 872 133 865 q 366 945 238 914 q 574 975 493 975 q 611 972 602 975 q 652 926 652 962 q 601 810 652 881 q 485 677 549 739 q 400 611 420 615 m 214 602 q 347 640 279 604 q 473 731 415 677 q 568 836 532 785 q 604 913 604 888 q 595 928 604 926 q 557 932 578 932 q 446 917 520 932 q 355 900 372 902 q 246 866 313 895 q 123 808 179 838 q 61 772 67 779 q 48 802 59 772 q 18 883 37 831 q -24 998 -1 935 q -56 1078 -47 1061 q 99 1128 26 1105 q 251 1172 171 1151 q 404 1204 331 1192 q 547 1217 477 1217 q 648 1208 602 1217 q 735 1180 694 1200 q 809 1127 777 1160 q 861 1050 841 1095 q 868 1014 868 1036 q 760 794 868 930 q 509 539 652 657 q 285 397 366 422 l 214 602 m 400 228 q 341 188 361 225 q 322 110 322 150 q 366 45 328 66 q 443 24 404 24 q 502 63 482 28 q 521 144 521 97 q 498 185 518 166 q 451 216 479 204 q 400 228 423 228 m 389 272 q 472 256 436 272 q 529 218 507 240 q 559 178 551 197 q 568 138 568 160 q 554 70 568 104 q 519 12 540 36 q 481 -17 499 -13 q 428 -22 444 -22 q 321 12 361 -22 q 272 109 280 47 q 300 216 272 166 q 389 272 328 267 z "},"W":{"ha":972,"x_min":-100,"x_max":989,"o":"m 539 -39 l 850 -22 l 945 1173 l 633 1150 l 572 456 q 536 527 559 481 q 482 628 512 573 q 450 684 452 684 q 399 590 447 684 q 350 494 351 496 l 267 972 l -56 1011 q 20 660 -29 889 q 126 160 69 431 q 183 -122 183 -111 l 355 -117 l 450 139 l 539 -39 m 872 -66 l 539 -89 l 450 56 l 372 -144 l 155 -150 l -100 1039 l 294 1000 l 367 595 l 444 745 l 550 555 l 606 1183 l 989 1211 l 872 -66 z "},"B":{"ha":833,"x_min":-56,"x_max":997,"o":"m 372 950 q 484 974 450 968 q 551 979 517 979 q 611 972 578 979 q 650 930 650 962 q 601 829 650 891 q 502 719 552 767 q 428 650 452 671 l 372 950 m 416 917 l 456 717 q 549 817 493 753 q 606 913 606 881 q 595 928 606 924 q 557 937 573 933 q 527 944 542 941 q 501 946 511 946 q 416 917 458 946 m 528 294 q 662 379 630 337 q 694 456 694 420 q 653 529 694 485 q 589 578 612 573 q 532 531 558 547 q 494 511 505 515 l 528 294 m 745 461 q 749 435 749 449 q 720 357 749 395 q 635 287 692 318 q 500 239 579 256 l 450 533 q 513 581 465 545 q 589 644 561 616 q 648 604 614 637 q 710 530 682 572 q 745 461 737 489 m 533 45 q 864 206 768 115 q 960 395 960 298 q 933 506 960 458 q 889 572 907 553 q 812 670 869 611 q 656 733 754 730 q 772 891 728 817 q 817 1014 817 966 q 811 1044 817 1034 q 772 1104 796 1080 q 717 1144 748 1129 q 648 1167 686 1160 q 564 1174 610 1174 q 445 1165 507 1174 q 317 1140 383 1156 q 150 1096 251 1124 q -11 1050 50 1068 l 72 828 q 109 865 87 849 q 144 880 130 880 q 155 872 153 880 l 378 0 l 533 45 m 928 589 q 997 382 997 479 q 905 180 997 262 q 721 63 813 99 q 583 17 629 27 l 350 -45 l 127 844 q 112 832 123 844 q 83 799 100 820 q 61 772 66 777 q 48 802 59 772 q 18 883 37 831 q -24 998 -1 935 q -56 1078 -47 1061 q 99 1128 26 1105 q 251 1172 171 1151 q 404 1204 331 1192 q 547 1217 477 1217 q 648 1208 602 1217 q 735 1180 694 1200 q 809 1127 777 1160 q 861 1050 841 1095 q 869 1010 869 1031 q 733 755 869 920 q 813 718 758 752 q 928 589 868 684 z "},".":{"ha":278,"x_min":-5,"x_max":290,"o":"m 122 239 q 78 217 95 237 q 53 171 60 198 q 45 121 45 144 q 89 56 50 77 q 165 35 127 35 q 224 74 205 39 q 243 155 243 109 q 221 196 240 176 q 174 227 201 215 q 122 239 146 239 m 111 283 q 194 268 159 283 q 252 229 229 252 q 282 189 274 206 q 290 149 290 170 q 276 82 290 115 q 241 23 262 48 q 203 -5 220 -3 q 150 -11 166 -11 q 42 24 83 -11 q -5 119 2 59 q 23 228 -5 178 q 111 283 51 278 z "},":":{"ha":764,"x_min":134,"x_max":568,"o":"m 400 228 q 341 188 361 225 q 322 110 322 150 q 366 45 328 66 q 443 24 404 24 q 502 63 482 28 q 521 144 521 97 q 498 185 518 166 q 451 216 479 204 q 400 228 423 228 m 389 272 q 472 256 436 272 q 529 218 507 240 q 559 178 551 197 q 568 138 568 160 q 554 70 568 104 q 519 12 540 36 q 481 -17 499 -13 q 428 -22 444 -22 q 321 12 361 -22 q 272 109 280 47 q 300 216 272 166 q 389 272 328 267 m 261 644 q 202 604 222 642 q 183 526 183 566 q 228 461 189 482 q 304 440 266 440 q 362 479 343 445 q 382 561 382 513 q 360 601 379 582 q 313 632 340 621 q 261 644 285 644 m 250 689 q 333 673 298 689 q 391 634 368 657 q 421 595 413 612 q 429 554 429 576 q 415 487 429 521 q 380 428 401 454 q 342 400 359 403 q 289 395 305 395 q 181 430 222 395 q 134 525 141 465 q 162 633 134 583 q 250 689 190 684 z "},"E":{"ha":764,"x_min":-78,"x_max":1067,"o":"m 322 39 l 301 450 l 766 539 l 750 722 l 292 633 l 278 917 l 739 994 l 728 1222 l -22 1111 l -45 867 l 45 878 l 111 -155 l 1034 -200 q 1036 -153 1036 -200 q 1034 -29 1036 -86 q 1028 28 1031 28 q 932 29 1015 28 q 672 33 849 31 q 431 37 495 36 q 322 39 366 38 m 355 89 l 1067 56 l 1061 -239 l 72 -189 l 17 833 l -78 817 l -61 1139 l 761 1261 l 778 966 l 311 889 l 322 677 l 783 755 l 800 511 l 334 422 l 355 89 z "},"F":{"ha":764,"x_min":-78,"x_max":778,"o":"m 334 -134 l 301 450 l 656 517 l 639 700 l 292 633 l 278 917 l 739 994 l 728 1222 l -22 1111 l -45 867 l 45 878 l 111 -155 q 157 -159 125 -157 q 222 -161 188 -161 q 334 -135 334 -161 q 334 -134 334 -134 m 72 -189 l 17 833 l -78 817 l -61 1139 l 761 1261 l 778 966 l 311 889 l 322 677 l 672 733 l 689 489 l 334 422 l 372 -189 q 290 -198 348 -193 q 184 -204 233 -204 q 72 -189 109 -204 z "},"l":{"ha":347,"x_min":-89,"x_max":378,"o":"m 334 -139 l 256 1227 l -22 1111 l -45 1017 l 50 1067 l 111 -155 l 334 -139 m 378 -172 l 72 -189 l 11 989 l -89 966 l -56 1133 l 289 1278 l 378 -172 z "},"D":{"ha":903,"x_min":-28,"x_max":956,"o":"m 611 972 q 687 865 665 956 q 710 656 710 774 q 700 505 710 565 q 660 404 692 456 q 567 307 628 351 q 422 244 507 262 l 372 950 q 438 966 408 959 q 497 977 468 972 q 549 981 526 981 q 611 972 581 981 m 595 928 q 505 947 538 947 q 416 917 459 947 l 450 300 q 603 398 565 349 q 650 478 642 446 q 664 552 656 493 q 671 684 671 611 q 653 846 671 779 q 595 928 636 913 m 861 1050 q 915 918 893 986 q 946 782 936 850 q 956 648 956 714 q 924 422 956 530 q 833 228 892 313 q 691 88 774 142 q 505 22 607 35 l 222 -28 l 127 844 q 94 808 123 844 q 61 772 66 772 q 35 830 46 783 q 3 978 24 878 q -28 1100 -18 1078 q 267 1182 129 1151 q 525 1214 406 1214 q 861 1050 781 1214 m 811 1044 q 690 1143 761 1112 q 525 1174 619 1174 q 420 1166 479 1174 q 306 1146 362 1159 q 191 1118 250 1134 q 28 1072 131 1103 l 72 828 q 109 865 87 850 q 146 880 131 880 q 155 872 155 880 l 250 22 l 456 50 q 567 76 517 58 q 660 120 618 94 q 733 178 701 146 q 867 386 827 268 q 907 636 907 503 q 891 810 907 726 q 854 955 876 895 q 811 1044 832 1015 z "},"H":{"ha":764,"x_min":-122,"x_max":861,"o":"m 755 1178 l 478 1200 l 500 739 l 334 750 l 306 1234 l -83 1267 l -78 1173 l 45 1156 l 72 -161 l 311 -155 l 334 583 l 517 550 l 623 -267 l 822 -256 l 755 1178 m 345 1267 l 361 794 l 456 794 l 428 1239 l 789 1211 l 861 -300 l 583 -294 l 472 500 l 367 528 l 361 -189 l 39 -195 l 0 1105 l -117 1133 l -122 1305 l 345 1267 z "},"V":{"ha":972,"x_min":-106,"x_max":1139,"o":"m 61 1083 l 444 -78 l 689 -78 l 1100 1089 l 766 1111 l 572 278 l 272 1156 l -66 1194 l -61 1100 l 61 1083 m 17 1034 l -100 1061 l -106 1234 l 306 1206 l 561 400 l 745 1156 l 1139 1133 l 728 -122 l 422 -117 l 17 1034 z "},",":{"ha":555,"x_min":-52,"x_max":481,"o":"m 440 109 l 359 144 l 5 -126 l 201 -196 l 440 109 m 481 127 l 207 -232 l -52 -142 l 351 174 l 481 127 z "},";":{"ha":625,"x_min":-52,"x_max":481,"o":"m 261 644 q 202 604 222 642 q 183 526 183 566 q 228 461 189 482 q 304 440 266 440 q 362 479 343 445 q 382 561 382 513 q 360 601 379 582 q 313 632 340 621 q 261 644 285 644 m 250 689 q 333 673 298 689 q 391 634 368 657 q 421 595 413 612 q 429 554 429 576 q 415 487 429 521 q 380 428 401 454 q 342 400 359 403 q 289 395 305 395 q 181 430 222 395 q 134 525 141 465 q 162 633 134 583 q 250 689 190 684 m 440 109 l 359 144 l 5 -126 l 201 -196 l 440 109 m 481 127 l 207 -232 l -52 -142 l 351 174 l 481 127 z "},"S":{"ha":764,"x_min":-134,"x_max":889,"o":"m 22 1044 q 1 946 1 998 q 38 802 1 876 q 138 658 75 728 q 277 533 202 588 q 439 433 353 477 q 511 385 475 416 q 573 317 548 353 q 597 250 597 281 q 533 189 597 204 q 496 186 524 186 q 407 194 458 186 q 292 216 355 201 q 178 248 229 231 q 78 289 127 265 q 54 297 71 292 q 22 309 36 301 q -5 334 8 316 l -89 111 q 77 64 -20 91 q 240 22 173 38 q 372 -3 307 7 q 486 -12 437 -12 q 641 18 579 -12 q 733 117 703 49 q 754 222 754 160 q 740 315 754 267 q 691 414 725 363 q 595 516 657 464 q 444 616 534 569 q 263 742 358 663 q 168 892 168 821 q 222 972 168 940 q 279 983 242 983 q 369 974 317 983 q 478 948 421 964 q 587 912 536 932 q 677 872 639 892 q 703 864 684 869 q 734 853 721 860 q 761 828 747 846 l 844 1050 q 640 1105 746 1079 q 445 1144 534 1131 q 279 1158 355 1158 q 22 1044 73 1158 m -28 1050 q 289 1211 48 1211 q 556 1176 416 1211 q 889 1078 696 1140 q 825 908 874 1044 q 772 772 777 772 q 710 808 767 778 q 587 867 654 838 q 478 900 520 895 q 390 921 459 902 q 286 940 320 940 q 239 928 255 940 q 211 882 211 908 q 234 828 211 857 q 294 771 257 800 q 377 715 332 743 q 467 667 422 688 q 624 565 557 622 q 728 450 691 507 q 783 335 766 393 q 800 224 800 276 q 778 111 800 162 q 656 -16 736 24 q 465 -56 576 -56 q 322 -42 401 -56 q 168 -9 242 -29 q 11 37 94 11 q -134 83 -71 63 q -101 166 -123 104 q -62 274 -78 229 q -33 354 -46 319 q -17 389 -20 389 q 111 320 2 373 q 278 261 219 268 q 352 245 300 259 q 424 226 404 231 q 469 221 443 221 q 517 233 500 221 q 547 281 547 256 q 406 411 547 336 q 213 538 319 456 q 27 727 106 620 q -53 942 -53 835 q -28 1050 -53 997 z "},"´":{"ha":764,"x_min":89,"x_max":606,"o":"m 127 1017 l 172 933 l 555 1000 l 439 1183 l 127 1017 m 89 1022 l 450 1222 l 606 983 l 167 900 l 89 1022 z "},"`":{"ha":764,"x_min":89,"x_max":606,"o":"m 567 1017 l 256 1183 l 139 1000 l 522 933 l 567 1017 m 606 1022 l 528 900 l 89 983 l 244 1222 l 606 1022 z "},"T":{"ha":764,"x_min":-134,"x_max":972,"o":"m 583 939 l 933 950 l 922 1178 l -100 1122 l -94 911 l 317 928 l 372 45 q 465 30 403 39 q 570 21 528 21 q 628 37 628 21 q 628 39 628 38 l 583 939 m 628 895 l 667 -17 l 625 -17 q 522 -14 585 -17 q 409 -6 460 -12 q 334 11 358 1 l 289 884 l -134 878 l -127 1145 l 956 1217 l 972 922 l 628 895 z "},"I":{"ha":764,"x_min":-78,"x_max":789,"o":"m 400 261 l 461 939 l 739 994 l 728 1222 l -22 1111 l -45 867 l 256 905 l 228 250 l 28 233 l 5 45 l 755 50 q 758 97 758 50 q 755 221 758 163 q 750 278 753 278 q 683 275 737 278 q 557 269 629 273 q 454 264 486 265 q 400 261 422 262 m 444 311 l 789 306 l 783 11 l -33 11 l 0 272 l 189 278 l 216 867 l -78 817 l -61 1139 l 761 1261 l 778 966 l 494 911 l 444 311 z "},"~":{"ha":764,"x_min":-11,"x_max":728,"o":"m -11 1034 l 5 1189 q 95 1233 34 1206 q 222 1260 156 1260 q 339 1211 296 1260 q 467 1160 383 1160 q 572 1179 519 1160 q 660 1227 625 1198 q 694 1283 694 1256 l 728 1044 q 591 1006 682 1029 q 433 983 500 983 q 355 1006 374 983 q 279 1054 330 1038 q 168 1069 229 1069 q -11 1034 69 1069 m 33 1166 l 22 1078 q 76 1098 35 1090 q 170 1107 117 1107 q 367 1055 304 1107 q 469 1028 400 1028 q 593 1045 531 1028 q 684 1072 655 1061 l 672 1183 q 643 1156 672 1170 q 567 1133 614 1142 q 472 1124 521 1124 q 334 1166 370 1124 q 208 1221 287 1221 q 104 1200 153 1221 q 33 1166 55 1180 z "},"˜":{"ha":764,"x_min":-11,"x_max":728,"o":"m -11 1034 l 5 1189 q 95 1233 34 1206 q 222 1260 156 1260 q 339 1211 296 1260 q 467 1160 383 1160 q 572 1179 519 1160 q 660 1227 625 1198 q 694 1283 694 1256 l 728 1044 q 591 1006 682 1029 q 433 983 500 983 q 355 1006 374 983 q 279 1054 330 1038 q 168 1069 229 1069 q -11 1034 69 1069 m 33 1166 l 22 1078 q 76 1098 35 1090 q 170 1107 117 1107 q 367 1055 304 1107 q 469 1028 400 1028 q 593 1045 531 1028 q 684 1072 655 1061 l 672 1183 q 643 1156 672 1170 q 567 1133 614 1142 q 472 1124 521 1124 q 334 1166 370 1124 q 208 1221 287 1221 q 104 1200 153 1221 q 33 1166 55 1180 z "},"Q":{"ha":694,"x_min":-16,"x_max":933,"o":"m 572 697 q 589 578 589 635 q 552 407 589 486 q 457 283 515 328 q 339 237 399 237 q 244 272 288 237 q 197 403 197 311 q 217 526 197 462 q 273 645 237 589 q 359 735 309 701 q 463 770 408 770 q 531 755 501 770 q 572 697 560 741 m 478 717 q 460 722 470 722 q 373 667 425 722 q 282 536 321 612 q 244 406 244 460 q 246 375 245 393 q 254 343 247 357 q 279 317 261 328 q 328 300 296 307 q 350 297 342 297 q 443 340 401 297 q 508 450 485 383 q 532 579 532 516 q 478 717 532 681 m 522 41 q 329 -8 427 -8 q 78 89 191 -8 q 6 202 28 132 q -16 358 -16 272 q 7 555 -16 453 q 61 722 31 658 q 173 879 106 817 q 313 967 240 940 q 460 994 387 994 q 563 979 515 994 q 639 939 611 964 q 764 767 719 871 q 810 545 810 663 q 766 322 810 430 q 715 222 749 277 q 773 181 733 212 q 862 100 814 151 q 933 -5 909 50 l 739 -150 q 696 -86 727 -129 q 618 -1 666 -43 q 522 41 570 41 m 547 111 q 654 33 591 101 q 750 -78 717 -35 l 867 5 q 818 78 864 34 q 714 164 772 121 q 657 211 657 207 q 725 334 705 271 q 761 554 761 440 q 724 758 761 665 q 610 907 686 851 q 449 960 536 960 q 326 933 387 960 q 208 853 264 907 q 106 714 152 800 q 51 557 77 658 q 25 363 25 457 q 50 209 25 277 q 131 100 75 140 q 322 37 217 37 q 440 57 382 37 q 547 111 498 77 z "},"Y":{"ha":972,"x_min":-106,"x_max":1072,"o":"m 61 1083 l 472 350 l 278 -189 l 522 -161 l 1034 1117 l 766 1111 l 578 589 l 250 1173 l -66 1194 l -61 1100 l 61 1083 m 39 1050 l -100 1061 l -106 1234 l 306 1206 l 583 689 l 745 1156 l 1072 1139 l 555 -205 l 228 -233 l 428 339 l 39 1050 z "},"\"":{"ha":694,"x_min":-56,"x_max":643,"o":"m 176 793 l 196 1146 l -20 1174 l 82 799 l 176 793 m 199 760 l 54 779 l -56 1213 l 227 1173 l 199 760 m 593 793 l 612 1146 l 397 1174 l 498 799 l 593 793 m 615 760 l 471 779 l 361 1213 l 643 1173 l 615 760 z "},"‘":{"ha":278,"x_min":14,"x_max":296,"o":"m 245 793 l 265 1146 l 50 1174 l 151 799 l 245 793 m 268 760 l 123 779 l 14 1213 l 296 1173 l 268 760 z "},"’":{"ha":278,"x_min":14,"x_max":296,"o":"m 245 793 l 265 1146 l 50 1174 l 151 799 l 245 793 m 268 760 l 123 779 l 14 1213 l 296 1173 l 268 760 z "},"“":{"ha":694,"x_min":-56,"x_max":643,"o":"m 176 793 l 196 1146 l -20 1174 l 82 799 l 176 793 m 199 760 l 54 779 l -56 1213 l 227 1173 l 199 760 m 593 793 l 612 1146 l 397 1174 l 498 799 l 593 793 m 615 760 l 471 779 l 361 1213 l 643 1173 l 615 760 z "},"”":{"ha":694,"x_min":-56,"x_max":643,"o":"m 176 793 l 196 1146 l -20 1174 l 82 799 l 176 793 m 199 760 l 54 779 l -56 1213 l 227 1173 l 199 760 m 593 793 l 612 1146 l 397 1174 l 498 799 l 593 793 m 615 760 l 471 779 l 361 1213 l 643 1173 l 615 760 z "},"y":{"ha":903,"x_min":-56,"x_max":956,"o":"m 5 644 l 383 -56 l 228 -467 l 433 -533 l 905 623 l 684 711 l 489 183 l 195 733 l 5 644 m -56 661 l 216 789 l 489 283 l 656 750 l 956 633 l 450 -589 l 183 -489 l 339 -66 l -56 661 z "},"i":{"ha":347,"x_min":-56,"x_max":367,"o":"m 322 -94 l 289 822 l 11 705 l -11 611 l 83 661 l 100 -111 l 322 -94 m 367 -127 l 61 -144 l 45 583 l -56 561 l -22 728 l 322 872 l 367 -127 m 155 1239 q 78 1121 78 1215 q 122 1056 83 1077 q 199 1035 160 1035 q 257 1074 238 1040 q 277 1156 277 1108 q 238 1213 273 1184 q 171 1242 204 1242 q 155 1239 168 1242 m 144 1283 q 228 1267 193 1283 q 285 1229 262 1251 q 315 1189 307 1206 q 323 1149 323 1171 q 309 1081 323 1116 q 275 1023 295 1047 q 236 994 254 998 q 183 989 201 989 q 105 1004 138 989 q 52 1050 72 1020 q 28 1120 33 1080 q 56 1227 28 1177 q 144 1283 84 1278 z "},"U":{"ha":903,"x_min":-122,"x_max":958,"o":"m 306 1234 l -83 1267 l -78 1173 l 45 1156 q 32 899 32 1086 q 69 411 32 637 q 195 122 106 185 q 269 82 227 98 q 355 59 310 66 q 444 52 401 52 q 686 111 587 52 q 788 204 748 149 q 864 334 828 260 q 896 437 884 375 q 913 575 908 498 q 918 737 918 652 q 913 926 918 832 q 903 1087 909 1020 q 895 1178 897 1154 l 616 1200 q 627 1092 621 1168 q 635 914 632 1015 q 639 726 639 813 q 633 541 639 616 q 616 433 628 466 q 554 329 593 364 q 471 293 515 293 q 396 325 429 293 q 350 411 363 356 q 331 549 344 441 q 308 800 319 658 q 297 1063 297 942 q 306 1234 297 1163 m 345 1267 q 340 1121 340 1204 q 350 845 340 997 q 375 575 360 693 q 406 422 390 457 q 481 345 440 345 q 528 371 505 345 q 567 439 551 397 q 596 686 596 513 q 593 820 596 755 q 585 961 590 884 q 574 1124 580 1038 q 567 1239 568 1210 l 928 1211 q 950 1004 941 1123 q 958 766 958 884 q 946 522 958 635 q 905 322 934 408 q 846 219 890 277 q 751 113 802 161 q 661 41 699 64 q 464 -4 581 -4 q 289 24 376 -4 q 139 106 203 52 q 67 217 97 142 q 19 395 38 291 q -7 609 1 499 q -16 825 -16 719 q 0 1105 -16 987 l -117 1133 l -122 1305 l 345 1267 z "},"h":{"ha":833,"x_min":-17,"x_max":897,"o":"m 39 456 q 45 369 43 418 q 52 230 47 319 q 58 108 56 140 q 66 33 60 77 l 322 61 q 309 272 309 174 q 334 522 309 406 q 360 589 342 560 q 400 633 377 618 q 447 648 423 648 q 494 634 471 648 q 536 591 517 620 q 572 517 556 563 q 611 337 595 454 q 628 123 628 221 q 623 39 628 86 l 828 45 q 840 158 828 64 q 851 318 851 251 q 800 550 851 449 q 730 679 755 640 q 644 755 705 719 q 507 789 590 789 q 278 739 409 789 l 233 1278 l 11 1250 l 39 456 m 306 783 q 515 823 427 823 q 656 789 596 823 q 736 725 692 768 q 815 632 781 683 q 861 533 850 581 q 897 281 897 389 q 890 161 897 224 q 867 0 882 98 l 583 -17 q 585 81 585 17 q 511 533 585 347 q 456 603 483 603 q 378 505 420 603 q 361 451 368 481 q 352 382 355 420 q 349 293 349 345 q 361 28 349 189 l 28 -11 q 21 81 22 28 q 18 191 19 134 q 14 293 17 247 q 1 399 11 340 l -17 1283 l 261 1317 l 306 783 z "},"u":{"ha":833,"x_min":0,"x_max":897,"o":"m 66 800 q 43 525 43 645 q 58 357 43 436 q 107 216 73 279 q 200 111 142 153 q 456 28 315 28 q 644 78 562 28 q 703 124 678 99 q 743 174 727 149 q 774 231 760 200 q 800 283 789 262 q 851 492 851 386 q 840 613 851 540 q 828 717 828 687 l 623 722 q 628 644 628 675 q 612 475 628 566 q 572 317 595 384 q 517 218 550 251 q 447 184 484 184 q 378 219 409 184 q 334 311 347 254 q 309 561 309 428 q 322 772 309 659 l 66 800 m 28 844 l 361 806 q 349 541 349 645 q 352 450 349 488 q 361 381 355 412 q 378 328 368 350 q 456 231 420 231 q 511 300 483 231 q 545 394 530 348 q 568 483 560 441 q 581 575 576 525 q 585 685 585 625 q 583 778 585 745 l 867 761 q 893 592 889 621 q 897 519 897 563 q 861 300 897 446 q 783 144 844 226 q 667 31 723 63 q 461 -20 578 -20 q 303 3 380 -20 q 161 72 226 26 q 65 182 101 114 q 14 330 28 250 q 0 507 0 410 q 4 620 0 566 q 14 731 7 674 q 28 844 20 787 z "},"n":{"ha":833,"x_min":-11,"x_max":897,"o":"m 39 456 q 45 369 43 418 q 52 230 47 319 q 58 108 56 140 q 66 33 60 77 l 322 61 q 309 272 309 174 q 334 522 309 406 q 360 589 342 560 q 400 633 377 618 q 447 648 423 648 q 494 634 471 648 q 536 591 517 620 q 572 517 556 563 q 611 337 595 454 q 628 123 628 221 q 623 39 628 86 l 828 45 q 840 158 828 64 q 851 318 851 251 q 800 550 851 449 q 730 679 755 640 q 644 755 705 719 q 507 789 590 789 q 278 739 409 789 l 250 783 l 28 755 l 39 456 m 294 783 q 424 822 370 808 q 528 835 478 835 q 644 806 594 835 q 774 688 705 771 q 861 533 844 604 q 897 281 897 389 q 890 161 897 224 q 867 0 882 98 l 583 -17 q 585 81 585 17 q 511 533 585 347 q 456 603 483 603 q 378 505 420 603 q 361 451 368 481 q 352 382 355 420 q 349 293 349 345 q 361 28 349 189 l 28 -11 q 13 108 20 49 q 2 217 6 167 q -1 326 -1 268 q 1 399 -1 351 l -11 794 l 256 828 l 294 783 z "},"m":{"ha":1181,"x_min":-11,"x_max":1244,"o":"m 614 778 q 875 833 789 833 q 991 806 943 833 q 1122 688 1052 771 q 1208 533 1192 604 q 1244 281 1244 389 q 1237 161 1244 224 q 1214 0 1230 98 l 930 -17 q 932 81 932 17 q 859 533 932 347 q 827 585 845 566 q 794 604 808 604 q 779 583 779 604 q 782 562 779 571 q 791 533 787 551 q 828 281 828 386 q 821 173 828 229 q 798 0 814 116 l 514 -17 q 515 81 515 17 q 441 533 515 347 q 428 579 433 555 q 421 603 423 603 q 406 571 418 603 q 378 505 393 539 q 361 451 368 481 q 352 382 355 420 q 349 293 349 345 q 361 28 349 189 l 28 -11 q 13 108 20 49 q 2 217 6 167 q -1 326 -1 268 q 1 399 -1 351 l -11 794 l 256 828 l 294 783 q 469 818 401 818 q 614 778 545 818 m 619 722 q 457 782 545 782 q 374 771 418 782 q 278 739 330 760 l 250 783 l 28 755 l 39 456 q 45 369 43 418 q 52 230 47 319 q 58 108 56 140 q 66 33 60 77 l 322 61 q 309 272 309 174 q 334 522 309 406 q 410 648 361 648 q 503 517 457 648 q 542 337 525 454 q 558 123 558 221 q 553 39 558 86 l 758 45 q 762 96 758 66 q 770 162 766 126 q 779 237 775 199 q 782 318 782 276 q 730 550 782 450 q 764 633 743 604 q 810 663 785 663 q 866 625 836 663 q 920 517 896 587 q 959 337 942 454 q 975 123 975 221 q 970 39 975 86 l 1175 45 q 1187 158 1175 64 q 1198 318 1198 251 q 1147 550 1198 449 q 1077 679 1103 640 q 991 755 1052 719 q 876 783 945 783 q 619 722 778 783 z "},"p":{"ha":694,"x_min":-139,"x_max":751,"o":"m 294 -26 l 328 -572 l 22 -589 l -24 292 l -24 298 q -26 349 -26 332 l -39 589 l -139 567 l -106 733 l 239 878 l 248 753 q 411 791 328 791 q 615 734 511 791 q 693 665 663 709 q 738 567 724 621 q 751 453 751 512 q 744 359 751 404 q 722 275 736 313 q 690 211 709 237 q 566 73 633 125 q 431 -3 499 20 q 294 -26 363 -26 m 252 24 q 394 48 319 24 q 537 124 469 73 q 646 250 604 174 q 701 452 701 349 q 672 588 701 525 q 587 700 643 652 q 439 753 526 753 q 250 696 350 753 l 214 672 l 205 828 l -72 711 l -94 616 l 0 667 l 61 -555 l 283 -539 l 252 24 m 262 503 q 303 581 271 543 q 382 643 335 620 q 484 667 429 667 q 418 618 439 649 q 397 557 397 588 q 418 500 397 516 q 450 490 432 490 q 525 530 487 490 q 575 621 564 569 q 583 558 583 592 q 564 458 583 509 q 507 375 544 408 q 421 343 469 343 q 318 378 372 343 q 280 428 297 392 q 262 503 262 465 z "},"q":{"ha":694,"x_min":-26,"x_max":761,"o":"m 722 861 l 761 -600 l 505 -606 l 473 14 q 300 -28 389 -28 q 190 -10 241 -28 q 102 37 139 7 q 7 173 41 87 q -26 353 -26 258 q 68 616 -26 516 q 412 790 231 790 q 519 775 470 790 l 722 861 m 511 94 l 545 -572 l 733 -561 l 689 811 l 517 739 q 437 751 477 751 q 270 706 354 751 q 113 583 185 661 q 59 507 79 547 q 28 423 39 467 q 18 335 18 379 q 52 175 18 249 q 143 62 85 102 q 288 25 197 25 q 511 94 412 25 m 497 366 q 419 355 459 355 q 323 378 358 355 q 265 478 265 415 q 290 557 265 517 q 356 625 315 597 q 449 663 398 654 q 430 620 441 649 q 419 562 419 590 q 435 525 419 538 q 494 511 451 511 l 497 366 z "},"b":{"ha":729,"x_min":-89,"x_max":785,"o":"m 306 12 l 306 -11 l 0 -28 l 11 989 l -89 966 l -56 1133 l 289 1278 l 294 799 q 443 831 371 831 q 648 774 543 831 q 752 660 719 736 q 785 492 785 585 q 777 398 785 443 q 755 315 769 353 q 724 250 742 277 q 601 113 667 166 q 467 35 534 59 q 334 11 400 11 q 321 12 327 12 q 306 12 315 12 m 298 554 q 341 628 310 593 q 419 684 373 663 q 517 705 465 705 q 451 658 471 688 q 431 596 431 628 q 452 539 431 554 q 484 529 465 529 q 558 568 520 529 q 608 660 596 608 q 616 597 616 631 q 597 497 616 547 q 540 414 577 446 q 454 382 503 382 q 351 416 408 382 q 300 482 311 443 l 298 554 m 258 720 l 256 1227 l -22 1111 l -45 1017 l 50 1067 l 39 5 l 250 21 l 261 65 l 304 60 q 517 118 418 60 q 679 289 616 176 q 721 390 708 341 q 734 490 734 439 q 705 627 734 564 q 621 739 676 691 q 472 790 562 790 q 296 742 384 790 l 258 720 z "},"d":{"ha":694,"x_min":-26,"x_max":755,"o":"m 450 664 q 397 562 397 629 q 418 500 397 516 q 450 490 432 490 l 450 346 q 422 343 433 343 q 318 378 370 343 q 260 478 260 416 q 274 539 260 508 q 315 595 289 570 q 377 640 340 621 q 450 664 413 659 m 444 1322 l 728 1450 l 745 532 q 750 452 750 496 q 747 393 750 412 l 755 -22 l 450 -39 l 450 3 q 300 -28 376 -28 q 190 -10 241 -28 q 102 37 139 7 q 7 173 41 87 q -26 353 -26 258 q 68 616 -26 516 q 236 746 149 702 q 412 790 322 790 q 450 789 437 790 l 444 1322 m 478 1305 l 489 747 q 456 749 478 749 q 371 739 414 749 q 282 707 328 728 q 193 654 237 686 q 113 583 149 623 q 59 507 79 547 q 28 423 39 467 q 18 335 18 379 q 52 175 18 249 q 143 62 85 102 q 273 31 189 31 q 489 81 384 31 l 489 -5 l 711 11 l 694 1400 l 478 1305 z "},"v":{"ha":972,"x_min":-72,"x_max":966,"o":"m 0 806 l 334 -50 l 578 -50 l 911 755 l 644 778 l 461 306 l 261 794 l 0 806 m -72 850 l 300 833 l 461 406 l 623 822 l 966 789 l 616 -94 l 294 -83 l -72 850 z "},"^":{"ha":764,"x_min":-28,"x_max":761,"o":"m 711 1022 l 705 1117 l 361 1239 l 33 1133 l 22 1044 l 361 1139 l 711 1022 m 355 1289 l 745 1156 l 761 966 l 355 1100 l -28 983 l 0 1173 l 355 1289 z "},"ˆ":{"ha":764,"x_min":-28,"x_max":761,"o":"m 711 1022 l 705 1117 l 361 1239 l 33 1133 l 22 1044 l 361 1139 l 711 1022 m 355 1289 l 745 1156 l 761 966 l 355 1100 l -28 983 l 0 1173 l 355 1289 z "},"w":{"ha":1389,"x_min":-72,"x_max":1522,"o":"m 739 211 l 611 -78 l 294 -83 l -72 850 l 300 833 l 461 406 l 557 664 l 484 850 l 856 833 l 1017 406 l 1178 822 l 1522 789 l 1173 -94 l 850 -83 l 739 211 m 747 314 l 889 -50 l 1133 -50 l 1467 755 l 1200 778 l 1017 306 l 817 794 l 555 806 l 595 656 l 461 306 l 261 794 l 0 806 l 334 -50 l 578 -50 l 747 314 z "},"r":{"ha":764,"x_min":-11,"x_max":800,"o":"m 572 555 l 755 677 q 718 746 728 734 q 644 794 707 758 q 507 828 589 828 q 434 822 473 828 q 352 803 394 815 q 278 778 310 791 l 250 822 l 28 794 l 39 494 q 45 403 43 457 q 50 288 47 349 q 56 152 52 228 q 66 33 60 76 l 322 61 q 309 281 309 174 q 313 401 309 344 q 323 499 317 458 q 334 561 329 541 q 360 629 343 601 q 400 672 377 657 q 447 688 423 688 q 517 654 484 688 q 572 555 551 621 m 800 661 l 561 505 q 514 583 543 551 q 453 615 484 615 q 378 545 408 615 q 349 307 349 477 q 361 28 349 189 l 28 -11 q -1 363 -1 199 q 1 437 -1 390 l -11 833 l 256 867 l 294 822 q 382 850 342 838 q 458 868 422 861 q 526 875 493 875 q 644 844 593 875 q 746 770 709 808 q 800 661 784 731 z "},"C":{"ha":833,"x_min":-57,"x_max":936,"o":"m 936 856 l 632 657 q 428 733 602 733 q 347 677 389 733 q 306 550 306 621 q 338 447 309 496 q 439 395 366 398 q 553 424 493 395 q 656 541 612 453 q 712 490 659 535 q 822 399 766 444 q 904 332 878 353 q 768 138 852 208 q 590 43 683 68 q 406 17 497 17 q 180 65 277 17 q 20 232 83 114 q -56 550 -42 349 q -57 610 -57 570 q -34 802 -57 710 q 43 969 -10 895 q 190 1090 96 1043 q 416 1139 283 1137 q 590 1118 505 1139 q 747 1060 675 1097 q 869 970 818 1023 q 936 856 920 917 m 857 873 q 768 975 835 930 q 617 1044 701 1019 q 457 1068 533 1068 q 422 1067 433 1068 q 206 1016 290 1055 q 78 915 123 978 q 17 764 34 851 q 0 555 0 677 q 53 304 0 418 q 199 126 106 191 q 411 61 293 61 q 525 76 469 64 q 638 115 581 87 q 747 192 695 142 q 839 317 799 241 l 656 469 q 574 377 627 397 q 450 350 521 357 q 355 381 401 350 q 283 459 310 412 q 256 550 256 506 q 279 657 256 602 q 345 751 302 713 q 444 789 388 789 q 570 767 498 786 q 660 722 642 748 l 857 873 z "},"s":{"ha":764,"x_min":-106,"x_max":867,"o":"m 745 561 l 822 722 q 653 770 721 752 q 512 805 585 789 q 374 829 438 821 q 252 838 311 838 q 17 728 66 838 q -16 593 -16 654 q 58 439 -16 497 q 256 355 132 380 q 428 335 372 344 q 523 301 484 326 q 561 228 561 277 q 517 183 558 197 q 411 168 477 168 q 261 183 340 168 q 113 224 176 199 q 22 261 49 248 l -50 106 q 103 61 32 81 q 249 22 175 40 q 385 -6 322 4 q 497 -16 448 -16 q 643 16 583 -16 q 733 117 703 47 q 749 195 749 151 q 719 304 749 250 q 615 400 689 359 q 416 450 541 441 q 314 472 376 454 q 205 519 253 490 q 158 583 158 549 q 216 656 158 621 q 285 667 233 667 q 394 657 327 667 q 524 633 460 648 q 648 599 588 618 q 745 561 707 580 m 761 517 q 662 548 741 524 q 523 590 584 572 q 387 624 461 608 q 272 640 313 640 q 239 633 250 640 q 205 587 205 608 q 272 530 205 554 q 433 494 338 506 q 644 433 564 480 q 760 325 724 387 q 796 197 796 262 q 778 111 796 151 q 476 -56 699 -56 q 338 -42 415 -56 q 192 -10 262 -29 q 42 35 121 9 q -106 83 -37 61 q -61 172 -88 120 q -8 273 -34 224 q 17 328 17 323 q 66 298 37 309 q 152 272 96 287 q 239 244 209 256 q 375 220 304 220 q 458 229 418 220 q 500 244 497 238 q 440 279 500 262 q 306 306 380 296 q 137 347 222 315 q -8 439 52 378 q -68 590 -68 500 q -33 733 -68 659 q 81 854 5 817 q 262 892 157 892 q 514 857 385 892 q 867 750 644 823 q 829 664 862 740 q 781 552 797 587 q 761 517 764 517 z "},"c":{"ha":694,"x_min":-58,"x_max":746,"o":"m 558 774 q 392 819 479 819 q 208 762 296 819 q 54 581 121 704 q 4 458 25 524 q -17 326 -17 391 q 96 100 -17 180 q 304 32 190 32 q 517 89 408 32 q 579 138 543 102 q 646 213 615 173 q 684 272 677 252 l 522 306 q 469 230 499 262 q 406 182 439 198 q 338 165 373 165 q 233 205 281 165 q 178 347 178 251 q 207 483 178 416 q 290 593 236 550 q 411 636 343 636 q 480 622 452 636 q 521 564 509 607 l 684 606 q 675 642 683 616 q 639 705 667 668 q 558 774 612 742 m 587 806 q 666 729 631 778 q 720 638 701 680 q 745 578 739 596 l 493 522 q 457 567 487 556 q 395 578 427 578 q 222 372 222 562 q 317 205 227 222 q 394 227 359 205 q 453 282 429 248 q 494 361 478 317 l 746 310 q 726 256 742 296 q 644 134 709 210 q 500 28 579 58 q 310 -9 404 -9 q 43 89 159 -9 q -34 196 -10 135 q -58 325 -58 257 q -39 464 -58 395 q 9 589 -19 532 q 92 714 47 662 q 185 799 136 766 q 286 847 235 831 q 390 863 338 863 q 587 806 497 863 z "},"x":{"ha":972,"x_min":-72,"x_max":1044,"o":"m 486 129 l 322 -83 l -28 -94 l 311 354 l -72 850 l 300 833 l 486 587 l 672 833 l 1044 850 l 661 354 l 1000 -94 l 650 -83 l 486 129 m 599 353 l 950 800 l 711 794 l 486 500 l 261 794 l 22 800 l 374 353 l 61 -56 l 283 -50 l 486 208 l 689 -50 l 911 -56 l 599 353 z "},"!":{"ha":278,"x_min":-78,"x_max":328,"o":"m 122 239 q 78 217 95 237 q 53 171 60 198 q 45 121 45 144 q 89 56 50 77 q 165 35 127 35 q 224 74 205 39 q 243 155 243 109 q 221 196 240 176 q 174 227 201 215 q 122 239 146 239 m 111 283 q 194 268 159 283 q 252 229 229 252 q 282 189 274 206 q 290 149 290 170 q 276 82 290 115 q 241 23 262 48 q 203 -5 220 -3 q 150 -11 166 -11 q 42 24 83 -11 q -5 119 2 59 q 23 228 -5 178 q 111 283 51 278 m 11 472 l -78 1222 l 328 1344 l 244 494 l 11 472 m 45 533 l 205 545 l 267 1255 l -28 1178 l 45 533 z "},"k":{"ha":764,"x_min":-89,"x_max":917,"o":"m -56 1133 l 289 1278 l 339 494 l 623 650 l 917 606 l 533 311 l 895 39 l 911 -233 l 378 150 l 395 -183 l 72 -189 l 11 989 l -89 966 l -56 1133 m 822 572 l 628 600 l 306 444 l 256 1227 l -22 1111 l -45 1017 l 50 1067 l 111 -155 l 350 -150 l 339 228 l 872 -167 q 866 -52 872 -132 q 856 28 860 28 q 787 76 854 28 q 664 165 720 124 q 547 250 608 205 q 461 311 486 294 l 822 572 z "},"g":{"ha":694,"x_min":-26,"x_max":745,"o":"m 497 366 q 419 355 459 355 q 323 378 358 355 q 265 478 265 415 q 290 557 265 517 q 356 625 315 597 q 449 663 398 654 q 430 620 441 649 q 419 562 419 590 q 435 525 419 538 q 494 511 451 511 l 497 366 m 705 17 l 689 811 l 517 739 q 437 751 477 751 q 270 706 354 751 q 113 583 185 661 q 59 507 79 547 q 28 423 39 467 q 18 335 18 379 q 52 175 18 249 q 143 62 85 102 q 288 25 197 25 q 511 94 412 25 q 516 22 513 73 q 519 -92 519 -29 q 503 -296 519 -211 q 444 -395 486 -380 q 385 -407 417 -407 q 291 -373 331 -407 q 250 -267 250 -340 l 78 -161 q 45 -311 45 -238 q 154 -517 45 -446 q 383 -589 262 -589 q 528 -556 469 -585 q 627 -466 588 -528 q 686 -300 667 -404 q 705 -35 705 -196 l 705 17 m 745 11 l 745 -65 q 733 -308 745 -195 q 684 -467 721 -421 q 549 -580 630 -533 q 361 -627 468 -627 q 211 -600 292 -627 q 86 -531 132 -574 q 23 -438 41 -489 q 4 -330 4 -387 q 25 -194 4 -256 q 61 -106 47 -132 l 283 -250 q 281 -273 281 -267 q 310 -339 281 -315 q 380 -363 340 -363 q 444 -342 416 -363 q 478 -283 471 -321 q 486 -167 486 -238 q 473 14 486 -79 q 300 -28 389 -28 q 190 -10 241 -28 q 102 37 139 7 q 7 173 41 87 q -26 353 -26 258 q 68 616 -26 516 q 412 790 231 790 q 519 775 470 790 l 728 878 l 745 11 z "},"G":{"ha":833,"x_min":-57,"x_max":936,"o":"m 511 411 l 461 433 l 539 611 l 922 467 l 833 -283 l 489 -256 q 541 -97 507 -200 q 583 39 574 7 q 406 17 539 17 q 180 65 277 17 q 20 232 83 114 q -56 550 -42 349 q -57 610 -57 570 q -34 802 -57 710 q 43 969 -10 895 q 190 1090 96 1043 q 416 1139 283 1137 q 590 1118 505 1139 q 747 1060 675 1097 q 869 970 818 1023 q 936 856 920 917 l 632 657 q 428 733 602 733 q 347 677 389 733 q 306 550 306 621 q 338 447 309 496 q 439 395 366 398 q 460 398 445 395 q 487 405 475 402 q 511 411 499 408 m 600 428 q 524 372 567 391 q 450 350 480 353 q 355 381 401 350 q 283 459 310 412 q 256 550 256 506 q 279 657 256 602 q 345 751 302 713 q 444 789 388 789 q 570 767 498 786 q 660 722 642 748 l 857 873 q 768 975 835 930 q 617 1044 701 1019 q 457 1068 533 1068 q 422 1067 433 1068 q 206 1016 290 1055 q 78 915 123 978 q 17 764 34 851 q 0 555 0 677 q 53 304 0 418 q 199 126 106 191 q 411 61 293 61 l 472 61 q 628 94 566 61 l 545 -216 l 800 -239 l 889 444 l 555 572 q 528 502 545 545 q 511 450 511 458 l 600 428 z "},"a":{"ha":694,"x_min":-26,"x_max":755,"o":"m 450 664 q 397 562 397 629 q 418 500 397 516 q 450 490 432 490 l 450 346 q 422 343 433 343 q 318 378 370 343 q 260 478 260 416 q 274 539 260 508 q 315 595 289 570 q 377 640 340 621 q 450 664 413 659 m 456 783 l 739 911 l 745 532 q 750 452 750 496 q 747 393 750 412 l 755 -22 l 450 -39 l 450 3 q 300 -28 376 -28 q 190 -10 241 -28 q 102 37 139 7 q 7 173 41 87 q -26 353 -26 258 q 68 616 -26 516 q 236 746 149 702 q 412 790 322 790 q 450 789 437 790 l 456 783 m 489 766 l 489 747 q 456 749 478 749 q 371 739 414 749 q 282 707 328 728 q 193 654 237 686 q 113 583 149 623 q 59 507 79 547 q 28 423 39 467 q 18 335 18 379 q 52 175 18 249 q 143 62 85 102 q 273 31 189 31 q 489 81 384 31 l 489 -5 l 711 11 l 705 861 l 489 766 z "},"j":{"ha":694,"x_min":4,"x_max":745,"o":"m 528 1244 q 450 1126 450 1221 q 494 1061 456 1082 q 571 1040 532 1040 q 629 1080 610 1045 q 648 1161 648 1114 q 610 1219 644 1190 q 543 1247 576 1247 q 528 1244 538 1247 m 517 1289 q 628 1258 583 1289 q 688 1194 673 1226 q 696 1154 696 1176 q 682 1087 696 1121 q 647 1028 667 1054 q 608 1000 626 1003 q 555 994 575 994 q 477 1010 511 994 q 425 1055 444 1025 q 400 1125 405 1085 q 429 1233 400 1183 q 517 1289 457 1284 m 705 17 l 689 822 l 411 705 l 389 611 l 484 661 l 511 94 q 516 22 513 73 q 519 -92 519 -29 q 503 -296 519 -211 q 444 -395 486 -380 q 385 -407 417 -407 q 291 -373 331 -407 q 250 -267 250 -340 l 78 -161 q 45 -311 45 -238 q 154 -517 45 -446 q 383 -589 262 -589 q 528 -556 469 -585 q 627 -466 588 -528 q 686 -300 667 -404 q 705 -35 705 -196 l 705 17 m 745 11 l 745 -65 q 733 -308 745 -195 q 684 -467 721 -421 q 549 -580 630 -533 q 361 -627 468 -627 q 211 -600 292 -627 q 86 -531 132 -574 q 23 -438 41 -489 q 4 -330 4 -387 q 25 -194 4 -256 q 61 -106 47 -132 l 283 -250 q 281 -273 281 -267 q 310 -339 281 -315 q 380 -363 340 -363 q 444 -342 416 -363 q 478 -283 471 -321 q 486 -167 486 -238 q 473 14 486 -79 l 444 583 l 345 561 l 378 728 l 722 872 l 745 11 z "},"z":{"ha":972,"x_min":-39,"x_max":1044,"o":"m 17 806 l 39 589 l 551 586 l 61 -56 l 956 -56 l 972 122 l 422 122 l 950 800 l 17 806 m 1000 -94 l -28 -94 l 472 550 l 0 545 l -39 856 l 1044 850 l 494 161 l 1017 161 l 1000 -94 z "},"t":{"ha":868,"x_min":-110,"x_max":880,"o":"m 174 1161 l 176 828 l -60 844 l -16 623 l 174 633 q 172 496 172 583 q 181 310 172 387 q 212 178 189 233 q 501 -5 288 4 q 613 11 553 -5 q 724 62 673 28 q 808 149 776 96 q 840 272 840 203 q 807 422 840 345 l 635 317 q 615 236 635 267 q 565 190 595 204 q 500 176 534 176 q 440 189 467 176 q 379 266 396 202 q 363 425 363 330 q 366 534 363 464 q 368 628 368 604 l 607 628 l 602 828 l 375 822 l 379 1261 l 174 1161 m 127 1189 l 424 1322 l 419 867 l 640 861 l 640 600 l 411 597 q 399 416 399 501 q 407 300 399 346 q 441 241 414 262 q 504 221 468 221 q 574 245 544 221 q 604 310 604 269 q 602 334 604 316 l 823 478 q 859 389 838 452 q 880 253 880 327 q 833 92 880 164 q 673 -17 787 20 q 524 -43 594 -43 q 336 4 417 -43 q 201 117 255 51 q 162 218 176 147 q 144 365 149 288 q 140 518 140 441 l 140 595 l -60 589 l -110 895 l 143 878 l 127 1189 z "},"f":{"ha":764,"x_min":-129,"x_max":875,"o":"m 380 539 l 576 539 l 571 739 l 386 728 q 397 866 389 781 q 408 961 406 951 q 453 1054 422 1020 q 522 1088 484 1088 q 592 1055 559 1088 q 647 956 625 1022 l 831 1078 q 810 1119 819 1102 q 794 1144 801 1137 q 768 1164 788 1152 q 720 1194 749 1177 q 591 1223 671 1223 q 353 1178 492 1223 q 292 1157 312 1164 q 234 1119 272 1149 q 162 1035 195 1089 q 109 895 129 981 q 113 739 113 859 l -90 755 l -46 533 l 109 539 q 113 144 109 376 q 125 -134 118 -88 l 386 -106 q 375 203 375 -24 q 380 539 375 338 m 414 505 q 412 342 412 454 q 414 173 412 276 q 419 -15 416 70 q 425 -139 422 -100 l 92 -178 q 83 -50 88 -145 q 76 127 79 46 q 72 283 73 209 q 69 500 71 358 l -90 500 l -129 811 l 81 789 q 77 863 77 840 q 140 1076 77 975 q 380 1227 203 1176 q 576 1257 475 1257 q 736 1227 675 1257 q 828 1167 798 1200 q 875 1061 858 1134 l 636 905 q 589 982 619 949 q 528 1015 559 1015 q 453 945 483 1015 q 446 912 449 937 q 438 843 442 887 q 431 772 433 799 l 610 772 l 610 511 l 414 505 z "},"Z":{"ha":972,"x_min":-111,"x_max":1061,"o":"m -56 1244 l -33 1028 l 545 1067 l 61 -56 l 994 5 l 1011 183 l 450 139 l 966 1305 l -56 1244 m 1039 -33 l -28 -94 l 478 1028 l -72 983 l -111 1295 l 1061 1356 l 517 183 l 1055 222 l 1039 -33 z "},"X":{"ha":972,"x_min":-122,"x_max":1078,"o":"m 489 228 l 228 -222 l -122 -233 l 361 550 l -45 1227 l 334 1173 l 522 850 l 705 1173 l 1078 1189 l 684 526 l 1034 -172 l 650 -83 l 489 228 m 621 525 l 983 1139 l 745 1133 l 528 755 l 294 1133 l 39 1173 l 422 550 l -33 -195 l 189 -189 l 500 322 l 689 -50 l 966 -117 l 621 525 z "},"J":{"ha":903,"x_min":-11,"x_max":958,"o":"m 45 555 q 32 428 32 486 q 46 319 32 371 q 97 216 60 267 q 195 122 134 164 q 269 82 227 98 q 355 59 310 66 q 444 52 401 52 q 686 111 587 52 q 788 204 748 149 q 864 334 828 260 q 896 440 884 375 q 913 589 908 506 q 918 766 918 672 q 909 1057 918 920 q 895 1255 901 1194 l 616 1278 q 624 1204 621 1254 q 631 1088 628 1155 q 637 928 634 1021 q 639 755 639 836 q 633 549 639 633 q 616 433 628 466 q 486 307 572 307 q 407 336 446 307 q 345 411 368 366 q 304 597 304 488 q 306 611 305 605 q 306 628 306 617 l 45 555 m 5 606 l 350 689 q 347 621 349 650 q 346 576 346 593 q 350 513 346 540 q 364 460 353 486 q 395 411 375 434 q 488 347 449 347 q 532 372 513 347 q 567 439 551 396 q 596 708 596 513 q 593 869 596 792 q 580 1091 589 945 q 567 1317 570 1237 l 928 1289 q 950 1070 941 1202 q 958 806 958 938 q 956 663 958 730 q 946 536 952 596 q 930 420 941 475 q 905 322 920 365 q 846 219 890 277 q 751 113 802 161 q 661 41 699 64 q 464 -4 581 -4 q 289 24 376 -4 q 139 106 203 52 q 22 246 56 177 q -11 412 -11 315 q 5 606 -11 474 z "},"A":{"ha":764,"x_min":-306,"x_max":1100,"o":"m 428 783 l 494 522 l 334 545 l 428 783 m 456 561 l 422 717 l 372 578 l 456 561 m 433 1150 l -233 -178 l 5 -172 l 300 416 l 522 383 l 839 -339 l 1039 -328 l 433 1150 m 433 1250 l 1100 -355 l 817 -383 l 500 355 l 322 383 l 45 -205 l -306 -222 l 433 1250 z "},"/":{"ha":972,"x_min":-122,"x_max":1078,"o":"m 983 1139 l 745 1133 l -33 -195 l 189 -189 l 983 1139 m 1078 1189 l 228 -222 l -122 -233 l 705 1173 l 1078 1189 z "},"\\":{"ha":972,"x_min":-45,"x_max":1034,"o":"m 689 -50 l 966 -117 l 294 1133 l 39 1173 l 689 -50 m 650 -83 l -45 1227 l 334 1173 l 1034 -172 l 650 -83 z "},"*":{"ha":555,"x_min":-94,"x_max":616,"o":"m 155 1295 l 367 1289 l 367 1089 l 500 1206 l 616 1067 l 416 922 l 572 684 l 389 633 l 239 833 l 94 628 l -50 755 l 111 939 l -94 1078 l 39 1234 l 161 1117 l 155 1295 m 345 1034 l 334 1250 l 195 1250 l 205 1039 l 33 1178 l -33 1089 l 150 950 l 5 755 l 94 689 l 239 884 l 400 677 l 500 711 l 372 928 l 572 1072 l 494 1156 l 345 1034 z "},"-":{"ha":625,"x_min":-5,"x_max":661,"o":"m 11 722 l 661 783 l 639 561 l -5 539 l 11 722 m 45 689 l 45 578 l 589 595 l 600 728 l 45 689 z "},"=":{"ha":625,"x_min":-11,"x_max":661,"o":"m 11 839 l 661 900 l 639 677 l -5 656 l 11 839 m 45 806 l 45 694 l 589 711 l 600 844 l 45 806 m 5 545 l 656 606 l 633 383 l -11 361 l 5 545 m 39 511 l 39 400 l 583 416 l 595 550 l 39 511 z "},"[":{"ha":555,"x_min":-45,"x_max":628,"o":"m 0 1211 l 628 1283 l 606 989 l 345 950 l 283 33 l 528 78 l 511 -205 l -45 -294 l 0 1211 m 33 1166 l 0 -250 l 461 -178 l 484 28 l 244 -5 l 283 989 l 550 1017 q 564 1130 555 1061 q 572 1227 572 1200 l 33 1166 z "},"]":{"ha":625,"x_min":-28,"x_max":628,"o":"m 11 1183 l 628 1267 l 572 -89 l 5 -150 l 33 155 q 191 173 97 162 q 294 183 286 183 l 334 950 l -28 917 l 11 1183 m 56 1150 l 17 950 l 372 994 l 334 144 l 61 117 l 45 -106 q 150 -97 75 -103 q 318 -82 224 -90 q 472 -69 411 -75 q 533 -61 533 -63 l 583 1206 l 56 1150 z "},"$":{"ha":764,"x_min":-134,"x_max":889,"o":"m 449 -56 q 446 -86 446 -61 q 449 -154 446 -108 q 456 -222 453 -201 l 200 -189 l 215 -22 q 107 6 168 -12 q -7 42 47 24 q -134 83 -62 60 q -101 166 -123 104 q -62 274 -78 229 q -33 354 -46 319 q -17 389 -20 389 q 111 320 2 373 q 278 261 219 268 q 352 245 300 259 q 424 226 404 231 q 469 221 443 221 q 517 233 500 221 q 547 281 547 256 q 406 411 547 336 q 213 538 319 456 q 27 727 106 620 q -53 942 -53 835 q -28 1050 -53 997 q 48 1145 1 1110 q 163 1196 96 1181 q 317 1211 229 1211 q 327 1297 321 1246 q 334 1356 334 1348 l 567 1333 l 557 1175 q 889 1078 668 1149 q 825 908 874 1044 q 772 772 777 772 q 710 808 767 778 q 587 867 654 838 q 478 900 520 895 q 390 921 459 902 q 286 940 320 940 q 239 928 255 940 q 211 882 211 908 q 234 828 211 857 q 294 771 257 800 q 377 715 332 743 q 467 667 422 688 q 624 565 557 622 q 728 450 691 507 q 783 335 766 393 q 800 224 800 276 q 778 111 800 162 q 652 -18 735 20 q 449 -56 568 -56 m 406 -7 q 489 -12 464 -12 q 642 18 581 -12 q 733 117 703 48 q 754 222 754 160 q 740 315 754 267 q 691 414 725 363 q 595 516 657 464 q 444 616 534 569 q 263 742 358 663 q 168 892 168 821 q 222 972 168 940 q 279 983 242 983 q 369 974 317 983 q 478 948 421 964 q 587 912 536 932 q 677 872 639 892 q 703 864 684 869 q 734 853 721 860 q 761 828 747 846 l 844 1050 q 505 1135 659 1107 l 522 1300 l 367 1311 l 350 1156 q 279 1158 300 1158 q 22 1044 73 1158 q 1 946 1 998 q 38 802 1 876 q 138 658 75 728 q 277 533 202 588 q 439 433 353 477 q 511 385 475 416 q 573 317 548 353 q 597 250 597 281 q 533 189 597 204 q 496 186 524 186 q 407 194 458 186 q 292 216 355 201 q 178 248 229 231 q 78 289 127 265 q 54 297 71 292 q 22 309 36 301 q -5 334 8 316 l -89 111 q 256 18 144 43 l 244 -139 l 406 -161 l 406 -7 z "},"à":{"ha":694,"x_min":-26,"x_max":755,"o":"m 450 664 q 397 562 397 629 q 418 500 397 516 q 450 490 432 490 l 450 346 q 422 343 433 343 q 318 378 370 343 q 260 478 260 416 q 274 539 260 508 q 315 595 289 570 q 377 640 340 621 q 450 664 413 659 m 456 783 l 739 911 l 745 532 q 750 452 750 496 q 747 393 750 412 l 755 -22 l 450 -39 l 450 3 q 300 -28 376 -28 q 190 -10 241 -28 q 102 37 139 7 q 7 173 41 87 q -26 353 -26 258 q 68 616 -26 516 q 236 746 149 702 q 412 790 322 790 q 450 789 437 790 l 456 783 m 489 766 l 489 747 q 456 749 478 749 q 371 739 414 749 q 282 707 328 728 q 193 654 237 686 q 113 583 149 623 q 59 507 79 547 q 28 423 39 467 q 18 335 18 379 q 52 175 18 249 q 143 62 85 102 q 273 31 189 31 q 489 81 384 31 l 489 -5 l 711 11 l 705 861 l 489 766 m 567 1017 l 256 1183 l 139 1000 l 522 933 l 567 1017 m 606 1022 l 528 900 l 89 983 l 244 1222 l 606 1022 z "},"á":{"ha":694,"x_min":-26,"x_max":755,"o":"m 450 664 q 397 562 397 629 q 418 500 397 516 q 450 490 432 490 l 450 346 q 422 343 433 343 q 318 378 370 343 q 260 478 260 416 q 274 539 260 508 q 315 595 289 570 q 377 640 340 621 q 450 664 413 659 m 456 783 l 739 911 l 745 532 q 750 452 750 496 q 747 393 750 412 l 755 -22 l 450 -39 l 450 3 q 300 -28 376 -28 q 190 -10 241 -28 q 102 37 139 7 q 7 173 41 87 q -26 353 -26 258 q 68 616 -26 516 q 236 746 149 702 q 412 790 322 790 q 450 789 437 790 l 456 783 m 489 766 l 489 747 q 456 749 478 749 q 371 739 414 749 q 282 707 328 728 q 193 654 237 686 q 113 583 149 623 q 59 507 79 547 q 28 423 39 467 q 18 335 18 379 q 52 175 18 249 q 143 62 85 102 q 273 31 189 31 q 489 81 384 31 l 489 -5 l 711 11 l 705 861 l 489 766 m 127 1017 l 172 933 l 555 1000 l 439 1183 l 127 1017 m 89 1022 l 450 1222 l 606 983 l 167 900 l 89 1022 z "},"â":{"ha":694,"x_min":-28,"x_max":761,"o":"m 450 664 q 397 562 397 629 q 418 500 397 516 q 450 490 432 490 l 450 346 q 422 343 433 343 q 318 378 370 343 q 260 478 260 416 q 274 539 260 508 q 315 595 289 570 q 377 640 340 621 q 450 664 413 659 m 456 783 l 739 911 l 745 532 q 750 452 750 496 q 747 393 750 412 l 755 -22 l 450 -39 l 450 3 q 300 -28 376 -28 q 190 -10 241 -28 q 102 37 139 7 q 7 173 41 87 q -26 353 -26 258 q 68 616 -26 516 q 236 746 149 702 q 412 790 322 790 q 450 789 437 790 l 456 783 m 489 766 l 489 747 q 456 749 478 749 q 371 739 414 749 q 282 707 328 728 q 193 654 237 686 q 113 583 149 623 q 59 507 79 547 q 28 423 39 467 q 18 335 18 379 q 52 175 18 249 q 143 62 85 102 q 273 31 189 31 q 489 81 384 31 l 489 -5 l 711 11 l 705 861 l 489 766 m 711 1022 l 705 1117 l 361 1239 l 33 1133 l 22 1044 l 361 1139 l 711 1022 m 355 1289 l 745 1156 l 761 966 l 355 1100 l -28 983 l 0 1173 l 355 1289 z "},"ã":{"ha":694,"x_min":-26,"x_max":755,"o":"m 450 664 q 397 562 397 629 q 418 500 397 516 q 450 490 432 490 l 450 346 q 422 343 433 343 q 318 378 370 343 q 260 478 260 416 q 274 539 260 508 q 315 595 289 570 q 377 640 340 621 q 450 664 413 659 m 456 783 l 739 911 l 745 532 q 750 452 750 496 q 747 393 750 412 l 755 -22 l 450 -39 l 450 3 q 300 -28 376 -28 q 190 -10 241 -28 q 102 37 139 7 q 7 173 41 87 q -26 353 -26 258 q 68 616 -26 516 q 236 746 149 702 q 412 790 322 790 q 450 789 437 790 l 456 783 m 489 766 l 489 747 q 456 749 478 749 q 371 739 414 749 q 282 707 328 728 q 193 654 237 686 q 113 583 149 623 q 59 507 79 547 q 28 423 39 467 q 18 335 18 379 q 52 175 18 249 q 143 62 85 102 q 273 31 189 31 q 489 81 384 31 l 489 -5 l 711 11 l 705 861 l 489 766 m -11 1034 l 5 1189 q 95 1233 34 1206 q 222 1260 156 1260 q 339 1211 296 1260 q 467 1160 383 1160 q 572 1179 519 1160 q 660 1227 625 1198 q 694 1283 694 1256 l 728 1044 q 591 1006 682 1029 q 433 983 500 983 q 355 1006 374 983 q 279 1054 330 1038 q 168 1069 229 1069 q -11 1034 69 1069 m 33 1166 l 22 1078 q 76 1098 35 1090 q 170 1107 117 1107 q 367 1055 304 1107 q 469 1028 400 1028 q 593 1045 531 1028 q 684 1072 655 1061 l 672 1183 q 643 1156 672 1170 q 567 1133 614 1142 q 472 1124 521 1124 q 334 1166 370 1124 q 208 1221 287 1221 q 104 1200 153 1221 q 33 1166 55 1180 z "},"ä":{"ha":694,"x_min":-26,"x_max":755,"o":"m 450 664 q 397 562 397 629 q 418 500 397 516 q 450 490 432 490 l 450 346 q 422 343 433 343 q 318 378 370 343 q 260 478 260 416 q 274 539 260 508 q 315 595 289 570 q 377 640 340 621 q 450 664 413 659 m 456 783 l 739 911 l 745 532 q 750 452 750 496 q 747 393 750 412 l 755 -22 l 450 -39 l 450 3 q 300 -28 376 -28 q 190 -10 241 -28 q 102 37 139 7 q 7 173 41 87 q -26 353 -26 258 q 68 616 -26 516 q 236 746 149 702 q 412 790 322 790 q 450 789 437 790 l 456 783 m 489 766 l 489 747 q 456 749 478 749 q 371 739 414 749 q 282 707 328 728 q 193 654 237 686 q 113 583 149 623 q 59 507 79 547 q 28 423 39 467 q 18 335 18 379 q 52 175 18 249 q 143 62 85 102 q 273 31 189 31 q 489 81 384 31 l 489 -5 l 711 11 l 705 861 l 489 766 m -22 1111 q -2 1219 -22 1154 q 89 1283 19 1283 q 215 1240 164 1280 q 267 1141 267 1200 q 261 1105 267 1122 q 202 991 241 1032 q 106 950 162 950 q 16 998 55 955 q -22 1111 -22 1042 m 33 1105 q 59 1045 33 1076 q 139 1011 85 1015 q 162 1030 150 1011 q 185 1074 175 1049 q 195 1111 195 1098 q 106 1217 195 1208 q 68 1199 84 1217 q 42 1155 52 1181 q 33 1105 33 1129 m 428 1128 q 449 1236 428 1171 q 539 1300 469 1300 q 666 1257 614 1297 q 717 1158 717 1217 q 711 1122 717 1139 q 652 1008 692 1050 q 555 966 612 966 q 493 990 522 970 q 446 1046 464 1010 q 428 1128 428 1082 m 484 1122 q 509 1062 484 1093 q 589 1028 534 1031 q 624 1067 604 1028 q 644 1128 644 1107 q 555 1234 644 1225 q 504 1197 524 1234 q 484 1122 484 1160 z "},"å":{"ha":694,"x_min":-26,"x_max":755,"o":"m 450 664 q 397 562 397 629 q 418 500 397 516 q 450 490 432 490 l 450 346 q 422 343 433 343 q 318 378 370 343 q 260 478 260 416 q 274 539 260 508 q 315 595 289 570 q 377 640 340 621 q 450 664 413 659 m 456 783 l 739 911 l 745 532 q 750 452 750 496 q 747 393 750 412 l 755 -22 l 450 -39 l 450 3 q 300 -28 376 -28 q 190 -10 241 -28 q 102 37 139 7 q 7 173 41 87 q -26 353 -26 258 q 68 616 -26 516 q 236 746 149 702 q 412 790 322 790 q 450 789 437 790 l 456 783 m 489 766 l 489 747 q 456 749 478 749 q 371 739 414 749 q 282 707 328 728 q 193 654 237 686 q 113 583 149 623 q 59 507 79 547 q 28 423 39 467 q 18 335 18 379 q 52 175 18 249 q 143 62 85 102 q 273 31 189 31 q 489 81 384 31 l 489 -5 l 711 11 l 705 861 l 489 766 m 228 1128 q 249 1236 228 1171 q 339 1300 269 1300 q 466 1257 414 1297 q 517 1158 517 1217 q 511 1122 517 1139 q 452 1008 492 1050 q 355 966 412 966 q 293 990 321 970 q 246 1046 264 1010 q 228 1128 228 1082 m 283 1122 q 309 1062 283 1093 q 389 1028 334 1031 q 424 1067 404 1028 q 444 1128 444 1107 q 355 1234 444 1225 q 304 1197 324 1234 q 283 1122 283 1160 z "},"_":{"ha":833,"x_min":-66,"x_max":889,"o":"m -17 -39 l 828 -61 l 833 0 l 17 33 l -17 -39 m -5 61 l 889 33 l 856 -89 q 659 -85 802 -89 q 376 -79 516 -83 q 108 -71 235 -75 q -66 -66 -19 -68 l -5 61 z "},"<":{"ha":694,"x_min":5,"x_max":822,"o":"m 5 728 l 822 1050 l 794 817 l 444 711 l 766 600 l 733 361 l 5 728 m 772 983 q 603 921 767 983 q 309 807 439 858 q 106 728 178 756 l 705 416 l 722 561 l 367 711 l 755 844 q 772 983 757 844 z "},">":{"ha":694,"x_min":-58,"x_max":758,"o":"m 758 728 l 31 361 l -3 600 l 319 711 l -31 817 l -58 1050 l 758 728 m -8 983 q 0 907 -5 949 q 8 844 5 865 l 397 711 l 41 561 l 58 416 l 659 728 q 454 808 587 756 q 158 921 321 859 q -8 983 -4 983 z "},"è":{"ha":694,"x_min":-16,"x_max":789,"o":"m 625 375 l 789 178 q 695 73 769 121 q 520 -2 622 26 q 318 -29 419 -29 q 158 -5 229 -29 q 50 66 88 18 q -16 278 -16 149 q 21 478 -16 380 q 100 616 58 577 q 207 694 149 663 q 328 741 265 726 q 456 757 390 757 q 620 729 542 757 q 755 650 697 702 l 383 205 q 477 226 433 205 q 559 285 522 247 q 625 375 596 323 m 629 338 q 581 262 629 304 q 463 190 532 220 q 339 160 394 160 q 309 163 318 160 l 711 646 q 582 701 652 680 q 437 721 511 721 q 275 690 352 721 q 134 591 197 660 q 79 509 103 559 q 41 397 55 458 q 26 277 26 336 q 96 79 26 146 q 328 -1 180 -1 q 508 26 416 -1 q 667 97 600 54 q 753 183 734 140 l 629 338 m 225 225 q 192 282 205 237 q 178 380 178 328 q 225 533 178 480 q 279 570 245 556 q 354 585 313 585 q 484 542 422 585 l 225 225 m 437 533 q 370 550 404 550 q 299 535 333 550 q 250 500 264 520 q 208 380 208 446 q 213 335 208 357 q 229 275 218 313 l 437 533 m 567 1017 l 256 1183 l 139 1000 l 522 933 l 567 1017 m 606 1022 l 528 900 l 89 983 l 244 1222 l 606 1022 z "},"é":{"ha":694,"x_min":-16,"x_max":789,"o":"m 625 375 l 789 178 q 695 73 769 121 q 520 -2 622 26 q 318 -29 419 -29 q 158 -5 229 -29 q 50 66 88 18 q -16 278 -16 149 q 21 478 -16 380 q 100 616 58 577 q 207 694 149 663 q 328 741 265 726 q 456 757 390 757 q 620 729 542 757 q 755 650 697 702 l 383 205 q 477 226 433 205 q 559 285 522 247 q 625 375 596 323 m 629 338 q 581 262 629 304 q 463 190 532 220 q 339 160 394 160 q 309 163 318 160 l 711 646 q 582 701 652 680 q 437 721 511 721 q 275 690 352 721 q 134 591 197 660 q 79 509 103 559 q 41 397 55 458 q 26 277 26 336 q 96 79 26 146 q 328 -1 180 -1 q 508 26 416 -1 q 667 97 600 54 q 753 183 734 140 l 629 338 m 225 225 q 192 282 205 237 q 178 380 178 328 q 225 533 178 480 q 279 570 245 556 q 354 585 313 585 q 484 542 422 585 l 225 225 m 437 533 q 370 550 404 550 q 299 535 333 550 q 250 500 264 520 q 208 380 208 446 q 213 335 208 357 q 229 275 218 313 l 437 533 m 127 1017 l 172 933 l 555 1000 l 439 1183 l 127 1017 m 89 1022 l 450 1222 l 606 983 l 167 900 l 89 1022 z "},"ê":{"ha":694,"x_min":-28,"x_max":789,"o":"m 625 375 l 789 178 q 695 73 769 121 q 520 -2 622 26 q 318 -29 419 -29 q 158 -5 229 -29 q 50 66 88 18 q -16 278 -16 149 q 21 478 -16 380 q 100 616 58 577 q 207 694 149 663 q 328 741 265 726 q 456 757 390 757 q 620 729 542 757 q 755 650 697 702 l 383 205 q 477 226 433 205 q 559 285 522 247 q 625 375 596 323 m 629 338 q 581 262 629 304 q 463 190 532 220 q 339 160 394 160 q 309 163 318 160 l 711 646 q 582 701 652 680 q 437 721 511 721 q 275 690 352 721 q 134 591 197 660 q 79 509 103 559 q 41 397 55 458 q 26 277 26 336 q 96 79 26 146 q 328 -1 180 -1 q 508 26 416 -1 q 667 97 600 54 q 753 183 734 140 l 629 338 m 225 225 q 192 282 205 237 q 178 380 178 328 q 225 533 178 480 q 279 570 245 556 q 354 585 313 585 q 484 542 422 585 l 225 225 m 437 533 q 370 550 404 550 q 299 535 333 550 q 250 500 264 520 q 208 380 208 446 q 213 335 208 357 q 229 275 218 313 l 437 533 m 711 1022 l 705 1117 l 361 1239 l 33 1133 l 22 1044 l 361 1139 l 711 1022 m 355 1289 l 745 1156 l 761 966 l 355 1100 l -28 983 l 0 1173 l 355 1289 z "},"ë":{"ha":694,"x_min":-22,"x_max":789,"o":"m 625 375 l 789 178 q 695 73 769 121 q 520 -2 622 26 q 318 -29 419 -29 q 158 -5 229 -29 q 50 66 88 18 q -16 278 -16 149 q 21 478 -16 380 q 100 616 58 577 q 207 694 149 663 q 328 741 265 726 q 456 757 390 757 q 620 729 542 757 q 755 650 697 702 l 383 205 q 477 226 433 205 q 559 285 522 247 q 625 375 596 323 m 629 338 q 581 262 629 304 q 463 190 532 220 q 339 160 394 160 q 309 163 318 160 l 711 646 q 582 701 652 680 q 437 721 511 721 q 275 690 352 721 q 134 591 197 660 q 79 509 103 559 q 41 397 55 458 q 26 277 26 336 q 96 79 26 146 q 328 -1 180 -1 q 508 26 416 -1 q 667 97 600 54 q 753 183 734 140 l 629 338 m 225 225 q 192 282 205 237 q 178 380 178 328 q 225 533 178 480 q 279 570 245 556 q 354 585 313 585 q 484 542 422 585 l 225 225 m 437 533 q 370 550 404 550 q 299 535 333 550 q 250 500 264 520 q 208 380 208 446 q 213 335 208 357 q 229 275 218 313 l 437 533 m -22 1111 q -2 1219 -22 1154 q 89 1283 19 1283 q 215 1240 164 1280 q 267 1141 267 1200 q 261 1105 267 1122 q 202 991 241 1032 q 106 950 162 950 q 16 998 55 955 q -22 1111 -22 1042 m 33 1105 q 59 1045 33 1076 q 139 1011 85 1015 q 162 1030 150 1011 q 185 1074 175 1049 q 195 1111 195 1098 q 106 1217 195 1208 q 68 1199 84 1217 q 42 1155 52 1181 q 33 1105 33 1129 m 428 1128 q 449 1236 428 1171 q 539 1300 469 1300 q 666 1257 614 1297 q 717 1158 717 1217 q 711 1122 717 1139 q 652 1008 692 1050 q 555 966 612 966 q 493 990 522 970 q 446 1046 464 1010 q 428 1128 428 1082 m 484 1122 q 509 1062 484 1093 q 589 1028 534 1031 q 624 1067 604 1028 q 644 1128 644 1107 q 555 1234 644 1225 q 504 1197 524 1234 q 484 1122 484 1160 z "},"+":{"ha":625,"x_min":-5,"x_max":661,"o":"m 11 722 l 239 743 l 256 956 l 472 956 l 450 761 l 661 783 l 639 561 l 411 554 l 383 328 l 172 328 l 200 547 l -5 539 l 11 722 m 244 589 l 211 361 l 350 361 l 378 587 l 589 595 l 600 728 l 411 711 l 428 911 l 289 917 l 261 700 l 45 689 l 45 578 l 244 589 z "},"&":{"ha":833,"x_min":-102,"x_max":956,"o":"m 278 17 q 61 84 161 29 q -83 256 -39 139 q -102 351 -102 301 q -28 567 -102 450 q 41 654 5 619 q 104 706 76 689 q 146 727 132 722 q 167 733 161 732 q 31 987 31 897 q 39 1028 31 1008 q 161 1155 80 1117 q 355 1193 242 1193 l 361 1317 l 639 1317 l 606 1160 q 715 1131 650 1149 q 852 1089 781 1112 q 956 1055 923 1066 q 892 886 941 1021 q 839 750 843 750 q 812 785 833 758 q 772 822 791 812 q 691 851 751 836 q 568 880 632 867 q 439 900 503 892 q 338 908 374 908 q 306 905 319 908 q 293 889 293 901 q 334 810 293 862 q 436 720 375 759 q 553 681 498 681 q 578 684 562 681 l 583 484 q 311 555 443 499 q 247 507 289 551 q 205 433 205 463 q 222 364 205 404 q 303 288 239 324 q 494 252 368 252 q 822 300 631 252 l 867 89 l 510 28 l 489 -100 l 261 -100 l 278 17 m 461 56 l 817 127 l 794 261 q 494 197 631 197 q 344 221 408 197 q 237 283 280 244 q 175 362 194 322 q 155 439 155 403 q 190 508 163 467 q 251 582 218 549 q 311 623 285 614 q 425 558 343 589 q 550 522 507 528 l 550 644 q 421 690 494 644 q 296 797 349 735 q 244 901 244 859 q 289 950 244 940 q 321 953 305 953 q 413 944 353 953 q 523 925 473 935 q 627 902 572 914 q 705 884 682 889 q 769 854 726 878 q 828 806 812 829 l 911 1028 q 709 1086 791 1063 q 561 1122 627 1108 q 572 1181 565 1126 q 583 1272 579 1236 l 406 1278 l 395 1149 q 335 1152 353 1152 q 182 1121 244 1152 q 89 1022 119 1090 q 83 991 83 1011 q 126 873 83 945 q 244 711 168 800 q 123 673 174 709 q 45 602 71 637 q 11 550 20 567 q -25 480 -3 530 q -46 364 -46 430 q -28 267 -46 317 q 35 162 -8 211 q 148 79 78 113 q 315 41 218 45 l 300 -66 l 456 -61 l 461 56 z "},"ì":{"ha":347,"x_min":-56,"x_max":606,"o":"m 322 -94 l 289 822 l 11 705 l -11 611 l 83 661 l 100 -111 l 322 -94 m 367 -127 l 61 -144 l 45 583 l -56 561 l -22 728 l 322 872 l 367 -127 m 567 1017 l 256 1183 l 139 1000 l 522 933 l 567 1017 m 606 1022 l 528 900 l 89 983 l 244 1222 l 606 1022 z "},"í":{"ha":347,"x_min":-56,"x_max":606,"o":"m 322 -94 l 289 822 l 11 705 l -11 611 l 83 661 l 100 -111 l 322 -94 m 367 -127 l 61 -144 l 45 583 l -56 561 l -22 728 l 322 872 l 367 -127 m 127 1017 l 172 933 l 555 1000 l 439 1183 l 127 1017 m 89 1022 l 450 1222 l 606 983 l 167 900 l 89 1022 z "},"î":{"ha":347,"x_min":-233,"x_max":555,"o":"m 322 -94 l 289 822 l 11 705 l -11 611 l 83 661 l 100 -111 l 322 -94 m 367 -127 l 61 -144 l 45 583 l -56 561 l -22 728 l 322 872 l 367 -127 m 505 1006 l 500 1100 l 155 1222 l -172 1117 l -183 1028 l 155 1122 l 505 1006 m 150 1272 l 539 1139 l 555 950 l 150 1083 l -233 966 l -205 1156 l 150 1272 z "},"ï":{"ha":347,"x_min":-228,"x_max":511,"o":"m 322 -94 l 289 822 l 11 705 l -11 611 l 83 661 l 100 -111 l 322 -94 m 367 -127 l 61 -144 l 45 583 l -56 561 l -22 728 l 322 872 l 367 -127 m -228 1117 q -207 1225 -228 1160 q -117 1289 -186 1289 q -28 1268 -69 1287 q 37 1218 13 1249 q 61 1147 61 1187 q 56 1111 61 1128 q -4 997 36 1038 q -100 956 -43 956 q -189 1004 -151 960 q -228 1117 -228 1048 m -172 1111 q -146 1051 -172 1082 q -66 1017 -121 1020 q -43 1036 -56 1017 q -20 1081 -30 1055 q -11 1117 -11 1106 q -100 1222 -11 1214 q -138 1204 -121 1222 q -163 1161 -154 1187 q -172 1111 -172 1135 m 222 1133 q 243 1241 222 1177 q 334 1305 264 1305 q 460 1262 409 1302 q 511 1164 511 1222 q 505 1128 511 1143 q 446 1013 485 1054 q 350 972 406 972 q 288 996 317 976 q 240 1052 258 1016 q 222 1133 222 1088 m 278 1128 q 303 1068 278 1099 q 383 1034 329 1037 q 419 1073 399 1034 q 439 1133 439 1112 q 350 1239 439 1231 q 298 1202 319 1239 q 278 1128 278 1165 z "},"|":{"ha":416,"x_min":0,"x_max":400,"o":"m 28 1322 l 400 1411 l 383 -400 l 0 -461 l 28 1322 m 78 1289 l 33 -411 l 339 -361 l 355 1356 l 78 1289 z "},"@":{"ha":903,"x_min":-57,"x_max":958,"o":"m 467 783 q 408 744 442 783 q 345 651 374 705 q 306 550 316 596 q 300 501 300 526 q 350 379 300 427 q 469 309 400 331 q 600 283 538 287 l 555 0 q 357 29 458 0 q 165 123 256 58 q 15 294 75 187 q -56 550 -45 401 q -57 610 -57 570 q -34 802 -57 710 q 43 969 -10 895 q 190 1090 96 1043 q 416 1139 283 1137 q 638 1102 530 1139 q 825 1000 747 1065 q 936 856 904 935 q 958 703 958 800 q 935 534 958 615 q 854 396 911 453 q 705 334 797 339 q 529 369 621 334 q 350 467 438 404 l 511 689 q 552 672 524 682 q 599 663 579 663 q 628 684 626 663 q 602 730 628 707 q 539 766 576 752 q 467 783 503 780 m 667 717 q 681 665 681 686 q 616 619 681 619 q 559 627 589 619 q 517 639 530 634 l 416 489 q 414 482 414 484 q 471 435 414 462 q 605 391 529 409 q 728 372 681 372 q 809 416 775 387 q 864 487 842 446 q 897 577 886 529 q 908 676 908 626 q 857 873 908 797 q 786 948 832 912 q 683 1011 740 984 q 565 1053 626 1038 q 453 1068 505 1068 q 422 1067 432 1068 q 206 1016 290 1055 q 78 915 123 978 q 17 764 34 851 q 0 555 0 677 q 45 366 0 457 q 168 203 90 274 q 339 94 245 133 q 522 56 432 56 l 555 244 q 419 271 489 244 q 302 359 349 298 q 254 514 254 420 q 256 550 254 538 q 296 672 260 604 q 385 787 332 740 q 494 833 438 833 q 558 812 519 833 q 627 765 596 792 q 667 717 657 737 z "},"ò":{"ha":694,"x_min":-26,"x_max":751,"o":"m 587 700 q 439 751 530 751 q 333 733 389 751 q 221 676 277 714 q 113 583 164 639 q 59 507 79 547 q 28 423 39 467 q 18 335 18 379 q 52 175 18 249 q 143 62 85 102 q 290 21 203 21 q 487 80 389 21 q 646 250 585 138 q 701 452 701 349 q 672 588 701 525 q 587 700 643 652 m 615 734 q 693 665 663 709 q 738 567 724 621 q 751 453 751 512 q 744 359 751 404 q 722 275 736 313 q 690 211 709 237 q 599 101 648 147 q 499 27 550 55 q 398 -15 448 -1 q 300 -28 349 -28 q 190 -10 242 -28 q 102 37 138 8 q 7 173 41 87 q -26 353 -26 258 q 68 616 -26 516 q 235 746 149 703 q 411 790 321 790 q 513 777 464 790 q 615 734 562 764 m 575 621 q 583 558 583 592 q 564 458 583 509 q 507 375 544 408 q 421 343 469 343 q 318 378 372 343 q 260 478 260 415 q 278 546 260 512 q 326 606 296 579 q 397 650 355 633 q 484 667 438 667 q 418 618 439 649 q 397 557 397 588 q 418 500 397 516 q 450 490 432 490 q 525 530 487 490 q 575 621 564 569 m 567 1017 l 256 1183 l 139 1000 l 522 933 l 567 1017 m 606 1022 l 528 900 l 89 983 l 244 1222 l 606 1022 z "},"ó":{"ha":694,"x_min":-26,"x_max":751,"o":"m 587 700 q 439 751 530 751 q 333 733 389 751 q 221 676 277 714 q 113 583 164 639 q 59 507 79 547 q 28 423 39 467 q 18 335 18 379 q 52 175 18 249 q 143 62 85 102 q 290 21 203 21 q 487 80 389 21 q 646 250 585 138 q 701 452 701 349 q 672 588 701 525 q 587 700 643 652 m 615 734 q 693 665 663 709 q 738 567 724 621 q 751 453 751 512 q 744 359 751 404 q 722 275 736 313 q 690 211 709 237 q 599 101 648 147 q 499 27 550 55 q 398 -15 448 -1 q 300 -28 349 -28 q 190 -10 242 -28 q 102 37 138 8 q 7 173 41 87 q -26 353 -26 258 q 68 616 -26 516 q 235 746 149 703 q 411 790 321 790 q 513 777 464 790 q 615 734 562 764 m 575 621 q 583 558 583 592 q 564 458 583 509 q 507 375 544 408 q 421 343 469 343 q 318 378 372 343 q 260 478 260 415 q 278 546 260 512 q 326 606 296 579 q 397 650 355 633 q 484 667 438 667 q 418 618 439 649 q 397 557 397 588 q 418 500 397 516 q 450 490 432 490 q 525 530 487 490 q 575 621 564 569 m 127 1017 l 172 933 l 555 1000 l 439 1183 l 127 1017 m 89 1022 l 450 1222 l 606 983 l 167 900 l 89 1022 z "},"ô":{"ha":694,"x_min":-28,"x_max":761,"o":"m 587 700 q 439 751 530 751 q 333 733 389 751 q 221 676 277 714 q 113 583 164 639 q 59 507 79 547 q 28 423 39 467 q 18 335 18 379 q 52 175 18 249 q 143 62 85 102 q 290 21 203 21 q 487 80 389 21 q 646 250 585 138 q 701 452 701 349 q 672 588 701 525 q 587 700 643 652 m 615 734 q 693 665 663 709 q 738 567 724 621 q 751 453 751 512 q 744 359 751 404 q 722 275 736 313 q 690 211 709 237 q 599 101 648 147 q 499 27 550 55 q 398 -15 448 -1 q 300 -28 349 -28 q 190 -10 242 -28 q 102 37 138 8 q 7 173 41 87 q -26 353 -26 258 q 68 616 -26 516 q 235 746 149 703 q 411 790 321 790 q 513 777 464 790 q 615 734 562 764 m 575 621 q 583 558 583 592 q 564 458 583 509 q 507 375 544 408 q 421 343 469 343 q 318 378 372 343 q 260 478 260 415 q 278 546 260 512 q 326 606 296 579 q 397 650 355 633 q 484 667 438 667 q 418 618 439 649 q 397 557 397 588 q 418 500 397 516 q 450 490 432 490 q 525 530 487 490 q 575 621 564 569 m 711 1022 l 705 1117 l 361 1239 l 33 1133 l 22 1044 l 361 1139 l 711 1022 m 355 1289 l 745 1156 l 761 966 l 355 1100 l -28 983 l 0 1173 l 355 1289 z "},"õ":{"ha":694,"x_min":-26,"x_max":751,"o":"m 587 700 q 439 751 530 751 q 333 733 389 751 q 221 676 277 714 q 113 583 164 639 q 59 507 79 547 q 28 423 39 467 q 18 335 18 379 q 52 175 18 249 q 143 62 85 102 q 290 21 203 21 q 487 80 389 21 q 646 250 585 138 q 701 452 701 349 q 672 588 701 525 q 587 700 643 652 m 615 734 q 693 665 663 709 q 738 567 724 621 q 751 453 751 512 q 744 359 751 404 q 722 275 736 313 q 690 211 709 237 q 599 101 648 147 q 499 27 550 55 q 398 -15 448 -1 q 300 -28 349 -28 q 190 -10 242 -28 q 102 37 138 8 q 7 173 41 87 q -26 353 -26 258 q 68 616 -26 516 q 235 746 149 703 q 411 790 321 790 q 513 777 464 790 q 615 734 562 764 m 575 621 q 583 558 583 592 q 564 458 583 509 q 507 375 544 408 q 421 343 469 343 q 318 378 372 343 q 260 478 260 415 q 278 546 260 512 q 326 606 296 579 q 397 650 355 633 q 484 667 438 667 q 418 618 439 649 q 397 557 397 588 q 418 500 397 516 q 450 490 432 490 q 525 530 487 490 q 575 621 564 569 m -11 1034 l 5 1189 q 95 1233 34 1206 q 222 1260 156 1260 q 339 1211 296 1260 q 467 1160 383 1160 q 572 1179 519 1160 q 660 1227 625 1198 q 694 1283 694 1256 l 728 1044 q 591 1006 682 1029 q 433 983 500 983 q 355 1006 374 983 q 279 1054 330 1038 q 168 1069 229 1069 q -11 1034 69 1069 m 33 1166 l 22 1078 q 76 1098 35 1090 q 170 1107 117 1107 q 367 1055 304 1107 q 469 1028 400 1028 q 593 1045 531 1028 q 684 1072 655 1061 l 672 1183 q 643 1156 672 1170 q 567 1133 614 1142 q 472 1124 521 1124 q 334 1166 370 1124 q 208 1221 287 1221 q 104 1200 153 1221 q 33 1166 55 1180 z "},"ö":{"ha":694,"x_min":-26,"x_max":751,"o":"m 587 700 q 439 751 530 751 q 333 733 389 751 q 221 676 277 714 q 113 583 164 639 q 59 507 79 547 q 28 423 39 467 q 18 335 18 379 q 52 175 18 249 q 143 62 85 102 q 290 21 203 21 q 487 80 389 21 q 646 250 585 138 q 701 452 701 349 q 672 588 701 525 q 587 700 643 652 m 615 734 q 693 665 663 709 q 738 567 724 621 q 751 453 751 512 q 744 359 751 404 q 722 275 736 313 q 690 211 709 237 q 599 101 648 147 q 499 27 550 55 q 398 -15 448 -1 q 300 -28 349 -28 q 190 -10 242 -28 q 102 37 138 8 q 7 173 41 87 q -26 353 -26 258 q 68 616 -26 516 q 235 746 149 703 q 411 790 321 790 q 513 777 464 790 q 615 734 562 764 m 575 621 q 583 558 583 592 q 564 458 583 509 q 507 375 544 408 q 421 343 469 343 q 318 378 372 343 q 260 478 260 415 q 278 546 260 512 q 326 606 296 579 q 397 650 355 633 q 484 667 438 667 q 418 618 439 649 q 397 557 397 588 q 418 500 397 516 q 450 490 432 490 q 525 530 487 490 q 575 621 564 569 m -22 1111 q -2 1219 -22 1154 q 89 1283 19 1283 q 215 1240 164 1280 q 267 1141 267 1200 q 261 1105 267 1122 q 202 991 241 1032 q 106 950 162 950 q 16 998 55 955 q -22 1111 -22 1042 m 33 1105 q 59 1045 33 1076 q 139 1011 85 1015 q 162 1030 150 1011 q 185 1074 175 1049 q 195 1111 195 1098 q 106 1217 195 1208 q 68 1199 84 1217 q 42 1155 52 1181 q 33 1105 33 1129 m 428 1128 q 449 1236 428 1171 q 539 1300 469 1300 q 666 1257 614 1297 q 717 1158 717 1217 q 711 1122 717 1139 q 652 1008 692 1050 q 555 966 612 966 q 493 990 522 970 q 446 1046 464 1010 q 428 1128 428 1082 m 484 1122 q 509 1062 484 1093 q 589 1028 534 1031 q 624 1067 604 1028 q 644 1128 644 1107 q 555 1234 644 1225 q 504 1197 524 1234 q 484 1122 484 1160 z "},"(":{"ha":555,"x_min":5,"x_max":616,"o":"m 461 -178 l 494 39 q 221 511 221 283 q 224 557 221 527 q 285 738 236 652 q 392 883 334 823 q 491 974 450 943 q 550 1017 532 1006 q 564 1130 555 1061 q 572 1227 572 1200 q 473 1167 542 1212 q 310 1035 404 1122 q 139 824 215 949 q 50 555 62 700 q 49 514 49 542 q 91 297 49 412 q 225 63 134 183 q 461 -178 317 -57 m 528 78 l 494 -244 q 263 -47 358 -146 q 112 149 169 52 q 31 337 56 245 q 5 511 5 428 q 8 567 5 530 q 101 848 23 720 q 282 1066 180 975 q 478 1212 384 1157 q 616 1278 572 1266 l 578 1000 q 489 925 549 980 q 361 773 429 871 q 275 562 294 675 q 269 501 269 528 q 331 293 269 399 q 528 78 392 186 z "},")":{"ha":555,"x_min":-61,"x_max":550,"o":"m 94 -178 q 283 5 203 -87 q 411 183 363 97 q 484 352 460 269 q 507 514 507 435 q 505 555 507 542 q 418 823 494 700 q 248 1033 342 947 q 84 1166 154 1120 q -17 1227 14 1212 q -8 1133 -17 1205 q 5 1017 0 1061 q 66 973 24 1006 q 166 881 109 941 q 272 736 224 821 q 332 557 321 652 q 335 511 335 532 q 308 364 335 439 q 220 208 280 289 q 61 39 161 127 l 94 -178 m 28 78 q 225 292 164 185 q 286 501 286 398 q 281 562 286 524 q 194 773 262 676 q 66 925 127 871 q -22 1000 6 980 l -61 1278 q 78 1212 -16 1267 q 274 1066 172 1156 q 455 847 376 975 q 547 567 533 719 q 550 511 550 530 q 526 335 550 425 q 444 149 501 246 q 293 -47 387 52 q 61 -244 198 -146 l 28 78 z "},"{":{"ha":555,"x_min":5,"x_max":616,"o":"m 461 -178 l 494 39 q 221 511 221 283 q 224 557 221 527 q 285 738 236 652 q 392 883 334 823 q 491 974 450 943 q 550 1017 532 1006 q 564 1130 555 1061 q 572 1227 572 1200 q 473 1167 542 1212 q 310 1035 404 1122 q 139 824 215 949 q 50 555 62 700 q 49 514 49 542 q 91 297 49 412 q 225 63 134 183 q 461 -178 317 -57 m 528 78 l 494 -244 q 263 -47 358 -146 q 112 149 169 52 q 31 337 56 245 q 5 511 5 428 q 8 567 5 530 q 101 848 23 720 q 282 1066 180 975 q 478 1212 384 1157 q 616 1278 572 1266 l 578 1000 q 489 925 549 980 q 361 773 429 871 q 275 562 294 675 q 269 501 269 528 q 331 293 269 399 q 528 78 392 186 z "},"}":{"ha":555,"x_min":-61,"x_max":550,"o":"m 94 -178 q 283 5 203 -87 q 411 183 363 97 q 484 352 460 269 q 507 514 507 435 q 505 555 507 542 q 418 823 494 700 q 248 1033 342 947 q 84 1166 154 1120 q -17 1227 14 1212 q -8 1133 -17 1205 q 5 1017 0 1061 q 66 973 24 1006 q 166 881 109 941 q 272 736 224 821 q 332 557 321 652 q 335 511 335 532 q 308 364 335 439 q 220 208 280 289 q 61 39 161 127 l 94 -178 m 28 78 q 225 292 164 185 q 286 501 286 398 q 281 562 286 524 q 194 773 262 676 q 66 925 127 871 q -22 1000 6 980 l -61 1278 q 78 1212 -16 1267 q 274 1066 172 1156 q 455 847 376 975 q 547 567 533 719 q 550 511 550 530 q 526 335 550 425 q 444 149 501 246 q 293 -47 387 52 q 61 -244 198 -146 l 28 78 z "},"ù":{"ha":833,"x_min":0,"x_max":897,"o":"m 66 800 q 43 525 43 645 q 58 357 43 436 q 107 216 73 279 q 200 111 142 153 q 456 28 315 28 q 644 78 562 28 q 703 124 678 99 q 743 174 727 149 q 774 231 760 200 q 800 283 789 262 q 851 492 851 386 q 840 613 851 540 q 828 717 828 687 l 623 722 q 628 644 628 675 q 612 475 628 566 q 572 317 595 384 q 517 218 550 251 q 447 184 484 184 q 378 219 409 184 q 334 311 347 254 q 309 561 309 428 q 322 772 309 659 l 66 800 m 28 844 l 361 806 q 349 541 349 645 q 352 450 349 488 q 361 381 355 412 q 378 328 368 350 q 456 231 420 231 q 511 300 483 231 q 545 394 530 348 q 568 483 560 441 q 581 575 576 525 q 585 685 585 625 q 583 778 585 745 l 867 761 q 893 592 889 621 q 897 519 897 563 q 861 300 897 446 q 783 144 844 226 q 667 31 723 63 q 461 -20 578 -20 q 303 3 380 -20 q 161 72 226 26 q 65 182 101 114 q 14 330 28 250 q 0 507 0 410 q 4 620 0 566 q 14 731 7 674 q 28 844 20 787 m 672 1017 l 361 1183 l 244 1000 l 628 933 l 672 1017 m 711 1022 l 633 900 l 195 983 l 350 1222 l 711 1022 z "},"ú":{"ha":833,"x_min":0,"x_max":897,"o":"m 66 800 q 43 525 43 645 q 58 357 43 436 q 107 216 73 279 q 200 111 142 153 q 456 28 315 28 q 644 78 562 28 q 703 124 678 99 q 743 174 727 149 q 774 231 760 200 q 800 283 789 262 q 851 492 851 386 q 840 613 851 540 q 828 717 828 687 l 623 722 q 628 644 628 675 q 612 475 628 566 q 572 317 595 384 q 517 218 550 251 q 447 184 484 184 q 378 219 409 184 q 334 311 347 254 q 309 561 309 428 q 322 772 309 659 l 66 800 m 28 844 l 361 806 q 349 541 349 645 q 352 450 349 488 q 361 381 355 412 q 378 328 368 350 q 456 231 420 231 q 511 300 483 231 q 545 394 530 348 q 568 483 560 441 q 581 575 576 525 q 585 685 585 625 q 583 778 585 745 l 867 761 q 893 592 889 621 q 897 519 897 563 q 861 300 897 446 q 783 144 844 226 q 667 31 723 63 q 461 -20 578 -20 q 303 3 380 -20 q 161 72 226 26 q 65 182 101 114 q 14 330 28 250 q 0 507 0 410 q 4 620 0 566 q 14 731 7 674 q 28 844 20 787 m 256 1028 l 300 945 l 684 1011 l 567 1194 l 256 1028 m 216 1034 l 578 1234 l 733 994 l 294 911 l 216 1034 z "},"û":{"ha":833,"x_min":0,"x_max":897,"o":"m 66 800 q 43 525 43 645 q 58 357 43 436 q 107 216 73 279 q 200 111 142 153 q 456 28 315 28 q 644 78 562 28 q 703 124 678 99 q 743 174 727 149 q 774 231 760 200 q 800 283 789 262 q 851 492 851 386 q 840 613 851 540 q 828 717 828 687 l 623 722 q 628 644 628 675 q 612 475 628 566 q 572 317 595 384 q 517 218 550 251 q 447 184 484 184 q 378 219 409 184 q 334 311 347 254 q 309 561 309 428 q 322 772 309 659 l 66 800 m 28 844 l 361 806 q 349 541 349 645 q 352 450 349 488 q 361 381 355 412 q 378 328 368 350 q 456 231 420 231 q 511 300 483 231 q 545 394 530 348 q 568 483 560 441 q 581 575 576 525 q 585 685 585 625 q 583 778 585 745 l 867 761 q 893 592 889 621 q 897 519 897 563 q 861 300 897 446 q 783 144 844 226 q 667 31 723 63 q 461 -20 578 -20 q 303 3 380 -20 q 161 72 226 26 q 65 182 101 114 q 14 330 28 250 q 0 507 0 410 q 4 620 0 566 q 14 731 7 674 q 28 844 20 787 m 772 1017 l 766 1111 l 422 1234 l 94 1128 l 83 1039 l 422 1133 l 772 1017 m 416 1283 l 806 1150 l 822 961 l 416 1095 l 33 978 l 61 1166 l 416 1283 z "},"ü":{"ha":833,"x_min":0,"x_max":897,"o":"m 66 800 q 43 525 43 645 q 58 357 43 436 q 107 216 73 279 q 200 111 142 153 q 456 28 315 28 q 644 78 562 28 q 703 124 678 99 q 743 174 727 149 q 774 231 760 200 q 800 283 789 262 q 851 492 851 386 q 840 613 851 540 q 828 717 828 687 l 623 722 q 628 644 628 675 q 612 475 628 566 q 572 317 595 384 q 517 218 550 251 q 447 184 484 184 q 378 219 409 184 q 334 311 347 254 q 309 561 309 428 q 322 772 309 659 l 66 800 m 28 844 l 361 806 q 349 541 349 645 q 352 450 349 488 q 361 381 355 412 q 378 328 368 350 q 456 231 420 231 q 511 300 483 231 q 545 394 530 348 q 568 483 560 441 q 581 575 576 525 q 585 685 585 625 q 583 778 585 745 l 867 761 q 893 592 889 621 q 897 519 897 563 q 861 300 897 446 q 783 144 844 226 q 667 31 723 63 q 461 -20 578 -20 q 303 3 380 -20 q 161 72 226 26 q 65 182 101 114 q 14 330 28 250 q 0 507 0 410 q 4 620 0 566 q 14 731 7 674 q 28 844 20 787 m 50 1111 q 71 1219 50 1154 q 161 1283 92 1283 q 288 1240 237 1280 q 339 1141 339 1200 q 334 1105 339 1122 q 274 991 314 1032 q 178 950 234 950 q 115 974 144 954 q 68 1029 86 994 q 50 1111 50 1065 m 106 1105 q 131 1045 106 1076 q 211 1011 157 1015 q 234 1030 222 1011 q 257 1074 247 1049 q 267 1111 267 1098 q 178 1217 267 1208 q 126 1180 146 1217 q 106 1105 106 1143 m 500 1128 q 520 1236 500 1171 q 611 1300 541 1300 q 738 1257 686 1297 q 789 1158 789 1217 q 783 1122 789 1139 q 724 1008 764 1050 q 628 966 684 966 q 566 990 595 970 q 518 1046 537 1010 q 500 1128 500 1082 m 555 1122 q 581 1062 555 1093 q 661 1028 607 1031 q 697 1067 677 1028 q 717 1128 717 1107 q 628 1234 717 1225 q 590 1216 606 1234 q 565 1172 574 1198 q 555 1122 555 1146 z "},"#":{"ha":764,"x_min":-22,"x_max":789,"o":"m 350 872 l 334 783 l 461 783 l 478 872 l 350 872 m 328 900 l 505 900 l 494 761 l 306 750 l 328 900 m 700 1267 l 677 1078 l 789 1078 l 745 867 l 667 878 l 650 778 l 728 783 l 700 578 l 623 578 l 595 478 l 422 467 l 428 583 l 283 583 l 261 456 l 100 428 l 122 589 l -22 583 l -5 778 l 155 783 l 161 867 l 17 878 l 33 1083 l 211 1083 l 216 1267 l 400 1261 l 372 1083 l 500 1083 l 550 1267 l 700 1267 m 233 1044 l 78 1044 l 61 911 l 195 895 q 193 821 195 863 q 189 755 191 778 l 45 750 l 28 623 l 172 623 l 144 472 l 233 484 l 256 611 l 467 611 l 456 500 l 572 511 l 589 595 l 667 611 l 689 733 l 611 745 l 639 911 l 717 917 l 733 1039 l 639 1034 l 667 1239 l 572 1227 l 522 1034 l 339 1039 l 367 1222 l 244 1222 l 233 1044 z "},"ý":{"ha":903,"x_min":-56,"x_max":956,"o":"m 5 644 l 383 -56 l 228 -467 l 433 -533 l 905 623 l 684 711 l 489 183 l 195 733 l 5 644 m -56 661 l 216 789 l 489 283 l 656 750 l 956 633 l 450 -589 l 183 -489 l 339 -66 l -56 661 m 211 1028 l 256 945 l 639 1011 l 522 1194 l 211 1028 m 172 1034 l 533 1234 l 689 994 l 250 911 l 172 1034 z "},"ÿ":{"ha":903,"x_min":-56,"x_max":956,"o":"m 5 644 l 383 -56 l 228 -467 l 433 -533 l 905 623 l 684 711 l 489 183 l 195 733 l 5 644 m -56 661 l 216 789 l 489 283 l 656 750 l 956 633 l 450 -589 l 183 -489 l 339 -66 l -56 661 m 66 1111 q 87 1219 66 1154 q 178 1283 108 1283 q 304 1240 254 1280 q 355 1141 355 1201 q 350 1105 355 1122 q 291 991 330 1032 q 195 950 251 950 q 133 973 162 954 q 85 1029 104 993 q 66 1111 66 1065 m 122 1105 q 148 1045 122 1076 q 228 1011 174 1015 q 251 1030 239 1011 q 274 1074 264 1049 q 283 1111 283 1098 q 195 1217 283 1208 q 157 1199 173 1217 q 131 1155 140 1181 q 122 1105 122 1129 m 517 1128 q 537 1236 517 1171 q 628 1300 558 1300 q 754 1257 703 1297 q 806 1158 806 1217 q 800 1122 806 1139 q 741 1008 781 1050 q 644 966 701 966 q 582 990 610 970 q 535 1046 553 1010 q 517 1128 517 1082 m 572 1122 q 597 1062 572 1093 q 677 1028 623 1031 q 713 1067 693 1028 q 733 1128 733 1107 q 644 1234 733 1225 q 593 1197 613 1234 q 572 1122 572 1160 z "},"æ":{"ha":1250,"x_min":-26,"x_max":1255,"o":"m 450 664 q 397 562 397 629 q 418 500 397 516 q 450 490 432 490 l 450 346 q 422 343 433 343 q 318 378 370 343 q 260 478 260 416 q 274 539 260 508 q 315 595 289 570 q 377 640 340 621 q 450 664 413 659 m 692 225 q 658 282 672 237 q 644 380 644 328 q 692 533 644 480 q 746 570 712 556 q 821 585 780 585 q 950 542 889 585 l 692 225 m 904 533 q 836 550 871 550 q 765 535 800 550 q 717 500 731 520 q 675 380 675 446 q 680 335 675 357 q 696 275 684 313 l 904 533 m 711 667 l 705 861 l 489 766 l 489 747 q 456 749 478 749 q 371 739 414 749 q 282 707 328 728 q 193 654 237 686 q 113 583 149 623 q 59 507 79 547 q 28 423 39 467 q 18 335 18 379 q 52 175 18 249 q 143 62 85 102 q 273 31 189 31 q 489 81 384 31 l 562 79 q 794 -1 648 -1 q 974 26 882 -1 q 1133 97 1066 54 q 1219 183 1200 140 l 1096 338 q 1047 262 1096 304 q 930 190 999 220 q 806 160 861 160 q 775 163 785 160 l 1178 646 q 1044 704 1115 683 q 907 725 973 725 q 711 667 793 725 m 745 728 q 930 761 853 761 q 1022 749 977 761 q 1115 712 1066 736 q 1222 650 1163 688 l 850 205 q 944 226 899 205 q 1025 285 988 247 q 1092 375 1063 323 l 1255 178 q 1158 74 1235 121 q 972 0 1080 26 q 765 -26 865 -26 q 616 -7 681 -26 q 517 50 551 12 l 422 0 q 272 -17 334 -17 q 102 37 168 -17 q 7 173 41 87 q -26 353 -26 258 q 68 616 -26 516 q 236 746 149 702 q 412 790 322 790 q 450 789 437 790 l 456 783 l 739 911 l 745 728 z "},"ø":{"ha":694,"x_min":-106,"x_max":800,"o":"m 575 621 q 583 558 583 592 q 564 458 583 509 q 507 375 544 408 q 421 343 469 343 q 318 378 372 343 q 260 478 260 415 q 278 546 260 512 q 326 606 296 579 q 397 650 355 633 q 484 667 438 667 q 418 618 439 649 q 397 557 397 588 q 418 500 397 516 q 450 490 432 490 q 525 530 487 490 q 575 621 564 569 m 7 172 q -28 353 -28 256 q -4 496 -28 427 q 68 616 20 566 q 235 746 148 701 q 411 790 321 790 q 582 751 498 790 l 650 844 q 702 799 666 830 q 769 738 737 768 q 800 705 800 709 l 711 606 q 747 432 747 526 q 732 310 747 369 q 690 211 717 250 q 599 101 648 147 q 499 27 550 55 q 398 -15 448 -1 q 300 -28 349 -28 q 155 4 223 -28 l 50 -89 l -106 39 l 7 172 m 667 600 l 761 700 q 708 747 744 711 q 656 794 673 783 l 587 700 q 439 751 530 751 q 333 733 389 751 q 221 676 277 714 q 113 583 164 639 q 33 459 60 526 q 5 323 5 392 q 50 161 5 235 l -50 45 l 45 -45 q 100 19 57 -20 q 143 62 143 58 q 290 21 203 21 q 487 80 389 21 q 646 250 585 138 q 701 452 701 349 q 667 600 701 529 z "},"À":{"ha":764,"x_min":-306,"x_max":1100,"o":"m 428 783 l 494 522 l 334 545 l 428 783 m 456 561 l 422 717 l 372 578 l 456 561 m 433 1150 l -233 -178 l 5 -172 l 300 416 l 522 383 l 839 -339 l 1039 -328 l 433 1150 m 433 1250 l 1100 -355 l 817 -383 l 500 355 l 322 383 l 45 -205 l -306 -222 l 433 1250 m 633 1411 l 322 1578 l 205 1394 l 589 1328 l 633 1411 m 672 1417 l 595 1295 l 155 1378 l 311 1617 l 672 1417 z "},"Á":{"ha":764,"x_min":-306,"x_max":1100,"o":"m 428 783 l 494 522 l 334 545 l 428 783 m 456 561 l 422 717 l 372 578 l 456 561 m 433 1150 l -233 -178 l 5 -172 l 300 416 l 522 383 l 839 -339 l 1039 -328 l 433 1150 m 433 1250 l 1100 -355 l 817 -383 l 500 355 l 322 383 l 45 -205 l -306 -222 l 433 1250 m 200 1428 l 244 1344 l 628 1411 l 511 1594 l 200 1428 m 161 1434 l 522 1633 l 677 1394 l 239 1311 l 161 1434 z "},"Â":{"ha":764,"x_min":-306,"x_max":1100,"o":"m 428 783 l 494 522 l 334 545 l 428 783 m 456 561 l 422 717 l 372 578 l 456 561 m 433 1150 l -233 -178 l 5 -172 l 300 416 l 522 383 l 839 -339 l 1039 -328 l 433 1150 m 433 1250 l 1100 -355 l 817 -383 l 500 355 l 322 383 l 45 -205 l -306 -222 l 433 1250 m 778 1344 l 772 1439 l 428 1561 l 100 1455 l 89 1367 l 428 1461 l 778 1344 m 422 1611 l 811 1478 l 828 1289 l 422 1422 l 39 1305 l 66 1495 l 422 1611 z "},"Ã":{"ha":764,"x_min":-306,"x_max":1100,"o":"m 428 783 l 494 522 l 334 545 l 428 783 m 456 561 l 422 717 l 372 578 l 456 561 m 433 1150 l -233 -178 l 5 -172 l 300 416 l 522 383 l 839 -339 l 1039 -328 l 433 1150 m 433 1250 l 1100 -355 l 817 -383 l 500 355 l 322 383 l 45 -205 l -306 -222 l 433 1250 m 22 1422 l 39 1578 q 129 1622 67 1596 q 256 1649 191 1649 q 372 1600 330 1649 q 500 1549 416 1549 q 605 1568 552 1549 q 693 1616 659 1587 q 728 1672 728 1645 l 761 1434 q 625 1395 715 1418 q 467 1372 534 1372 q 389 1394 408 1372 q 201 1458 337 1458 q 22 1422 100 1458 m 66 1556 l 56 1467 q 113 1488 72 1480 q 203 1496 154 1496 q 315 1483 262 1496 q 400 1444 368 1471 q 503 1417 433 1417 q 626 1433 564 1417 q 717 1461 688 1450 l 705 1572 q 676 1545 705 1558 q 601 1521 647 1531 q 505 1512 554 1512 q 367 1556 405 1512 q 241 1610 319 1610 q 137 1590 186 1610 q 66 1556 88 1569 z "},"Ä":{"ha":764,"x_min":-306,"x_max":1100,"o":"m 428 783 l 494 522 l 334 545 l 428 783 m 456 561 l 422 717 l 372 578 l 456 561 m 433 1150 l -233 -178 l 5 -172 l 300 416 l 522 383 l 839 -339 l 1039 -328 l 433 1150 m 433 1250 l 1100 -355 l 817 -383 l 500 355 l 322 383 l 45 -205 l -306 -222 l 433 1250 m 66 1478 q 87 1586 66 1521 q 178 1650 108 1650 q 304 1607 254 1647 q 355 1508 355 1568 q 350 1472 355 1489 q 291 1358 330 1399 q 195 1317 251 1317 q 133 1340 162 1320 q 85 1396 104 1360 q 66 1478 66 1432 m 122 1472 q 148 1412 122 1443 q 228 1378 174 1381 q 263 1417 243 1378 q 283 1478 283 1457 q 195 1584 283 1575 q 157 1566 173 1584 q 131 1522 140 1548 q 122 1472 122 1496 m 517 1495 q 537 1603 517 1538 q 628 1667 558 1667 q 716 1646 675 1665 q 782 1596 758 1627 q 806 1525 806 1565 q 800 1489 806 1506 q 741 1374 781 1415 q 644 1333 701 1333 q 555 1381 594 1337 q 517 1495 517 1426 m 572 1489 q 597 1429 572 1459 q 677 1394 623 1398 q 701 1413 688 1394 q 723 1457 713 1432 q 733 1495 733 1481 q 644 1600 733 1592 q 593 1563 613 1600 q 572 1489 572 1526 z "},"Å":{"ha":764,"x_min":-306,"x_max":1100,"o":"m 428 783 l 494 522 l 334 545 l 428 783 m 456 561 l 422 717 l 372 578 l 456 561 m 433 1150 l -233 -178 l 5 -172 l 300 416 l 522 383 l 839 -339 l 1039 -328 l 433 1150 m 433 1250 l 1100 -355 l 817 -383 l 500 355 l 322 383 l 45 -205 l -306 -222 l 433 1250 m 272 1506 q 293 1613 272 1549 q 383 1678 313 1678 q 510 1635 459 1674 q 561 1536 561 1596 q 555 1500 561 1516 q 496 1386 536 1428 q 400 1344 456 1344 q 338 1368 367 1348 q 291 1424 309 1388 q 272 1506 272 1460 m 328 1500 q 353 1440 328 1471 q 433 1406 379 1409 q 469 1445 449 1406 q 489 1506 489 1485 q 400 1611 489 1603 q 362 1593 378 1611 q 337 1550 346 1575 q 328 1500 328 1524 z "},"›":{"ha":694,"x_min":-58,"x_max":758,"o":"m 758 728 l 31 361 l -3 600 l 319 711 l -31 817 l -58 1050 l 758 728 m -8 983 q 0 907 -5 949 q 8 844 5 865 l 397 711 l 41 561 l 58 416 l 659 728 q 454 808 587 756 q 158 921 321 859 q -8 983 -4 983 z "},"‹":{"ha":694,"x_min":5,"x_max":822,"o":"m 5 728 l 822 1050 l 794 817 l 444 711 l 766 600 l 733 361 l 5 728 m 772 983 q 603 921 767 983 q 309 807 439 858 q 106 728 178 756 l 705 416 l 722 561 l 367 711 l 755 844 q 772 983 757 844 z "},"„":{"ha":694,"x_min":-61,"x_max":637,"o":"m 171 4 l 191 357 l -25 385 l 77 9 l 171 4 m 193 -29 l 49 -9 l -61 424 l 221 383 l 193 -29 m 587 4 l 607 357 l 392 385 l 493 9 l 587 4 m 610 -29 l 465 -9 l 355 424 l 637 383 l 610 -29 z "},"‚":{"ha":278,"x_min":-14,"x_max":268,"o":"m 218 16 l 237 368 l 22 396 l 123 21 l 218 16 m 240 -18 l 96 1 l -14 435 l 268 395 l 240 -18 z "},"È":{"ha":764,"x_min":-78,"x_max":1067,"o":"m 322 39 l 301 450 l 766 539 l 750 722 l 292 633 l 278 917 l 739 994 l 728 1222 l -22 1111 l -45 867 l 45 878 l 111 -155 l 1034 -200 q 1036 -153 1036 -200 q 1034 -29 1036 -86 q 1028 28 1031 28 q 932 29 1015 28 q 672 33 849 31 q 431 37 495 36 q 322 39 366 38 m 355 89 l 1067 56 l 1061 -239 l 72 -189 l 17 833 l -78 817 l -61 1139 l 761 1261 l 778 966 l 311 889 l 322 677 l 783 755 l 800 511 l 334 422 l 355 89 m 633 1411 l 322 1578 l 205 1394 l 589 1328 l 633 1411 m 672 1417 l 595 1295 l 155 1378 l 311 1617 l 672 1417 z "},"É":{"ha":764,"x_min":-78,"x_max":1067,"o":"m 322 39 l 301 450 l 766 539 l 750 722 l 292 633 l 278 917 l 739 994 l 728 1222 l -22 1111 l -45 867 l 45 878 l 111 -155 l 1034 -200 q 1036 -153 1036 -200 q 1034 -29 1036 -86 q 1028 28 1031 28 q 932 29 1015 28 q 672 33 849 31 q 431 37 495 36 q 322 39 366 38 m 355 89 l 1067 56 l 1061 -239 l 72 -189 l 17 833 l -78 817 l -61 1139 l 761 1261 l 778 966 l 311 889 l 322 677 l 783 755 l 800 511 l 334 422 l 355 89 m 200 1428 l 244 1344 l 628 1411 l 511 1594 l 200 1428 m 161 1434 l 522 1633 l 677 1394 l 239 1311 l 161 1434 z "},"Ê":{"ha":764,"x_min":-78,"x_max":1067,"o":"m 322 39 l 301 450 l 766 539 l 750 722 l 292 633 l 278 917 l 739 994 l 728 1222 l -22 1111 l -45 867 l 45 878 l 111 -155 l 1034 -200 q 1036 -153 1036 -200 q 1034 -29 1036 -86 q 1028 28 1031 28 q 932 29 1015 28 q 672 33 849 31 q 431 37 495 36 q 322 39 366 38 m 355 89 l 1067 56 l 1061 -239 l 72 -189 l 17 833 l -78 817 l -61 1139 l 761 1261 l 778 966 l 311 889 l 322 677 l 783 755 l 800 511 l 334 422 l 355 89 m 778 1344 l 772 1439 l 428 1561 l 100 1455 l 89 1367 l 428 1461 l 778 1344 m 422 1611 l 811 1478 l 828 1289 l 422 1422 l 39 1305 l 66 1495 l 422 1611 z "},"Ë":{"ha":764,"x_min":-78,"x_max":1067,"o":"m 322 39 l 301 450 l 766 539 l 750 722 l 292 633 l 278 917 l 739 994 l 728 1222 l -22 1111 l -45 867 l 45 878 l 111 -155 l 1034 -200 q 1036 -153 1036 -200 q 1034 -29 1036 -86 q 1028 28 1031 28 q 932 29 1015 28 q 672 33 849 31 q 431 37 495 36 q 322 39 366 38 m 355 89 l 1067 56 l 1061 -239 l 72 -189 l 17 833 l -78 817 l -61 1139 l 761 1261 l 778 966 l 311 889 l 322 677 l 783 755 l 800 511 l 334 422 l 355 89 m 66 1478 q 87 1586 66 1521 q 178 1650 108 1650 q 304 1607 254 1647 q 355 1508 355 1568 q 350 1472 355 1489 q 291 1358 330 1399 q 195 1317 251 1317 q 133 1340 162 1320 q 85 1396 104 1360 q 66 1478 66 1432 m 122 1472 q 148 1412 122 1443 q 228 1378 174 1381 q 263 1417 243 1378 q 283 1478 283 1457 q 195 1584 283 1575 q 157 1566 173 1584 q 131 1522 140 1548 q 122 1472 122 1496 m 517 1495 q 537 1603 517 1538 q 628 1667 558 1667 q 716 1646 675 1665 q 782 1596 758 1627 q 806 1525 806 1565 q 800 1489 806 1506 q 741 1374 781 1415 q 644 1333 701 1333 q 555 1381 594 1337 q 517 1495 517 1426 m 572 1489 q 597 1429 572 1459 q 677 1394 623 1398 q 701 1413 688 1394 q 723 1457 713 1432 q 733 1495 733 1481 q 644 1600 733 1592 q 593 1563 613 1600 q 572 1489 572 1526 z "},"…":{"ha":903,"x_min":-5,"x_max":951,"o":"m 122 239 q 78 217 95 237 q 53 171 60 198 q 45 121 45 144 q 89 56 50 77 q 165 35 127 35 q 224 74 205 39 q 243 155 243 109 q 221 196 240 176 q 174 227 201 215 q 122 239 146 239 m 111 283 q 194 268 159 283 q 252 229 229 252 q 282 189 274 206 q 290 149 290 170 q 276 82 290 115 q 241 23 262 48 q 203 -5 220 -3 q 150 -11 166 -11 q 42 24 83 -11 q -5 119 2 59 q 23 228 -5 178 q 111 283 51 278 m 456 244 q 397 204 416 241 q 378 126 378 166 q 421 61 383 82 q 498 40 460 40 q 557 80 538 46 q 576 161 576 114 q 533 218 572 193 q 456 244 493 244 m 444 289 q 527 273 492 289 q 585 235 563 257 q 615 195 606 214 q 624 154 624 174 q 610 87 624 121 q 575 28 595 54 q 536 0 554 3 q 484 -5 500 -5 q 376 29 417 -5 q 328 125 336 64 q 356 233 328 183 q 444 289 384 283 m 783 250 q 725 210 744 248 q 705 132 705 172 q 750 67 711 88 q 827 46 788 46 q 885 85 865 51 q 904 167 904 119 q 881 207 901 186 q 834 238 861 227 q 783 250 807 250 m 772 294 q 856 278 821 294 q 913 240 890 262 q 943 200 935 217 q 951 160 951 181 q 937 93 951 127 q 902 34 923 59 q 864 5 882 8 q 811 0 827 0 q 733 16 766 0 q 680 61 700 31 q 656 131 661 91 q 684 239 656 189 q 772 294 712 289 z "},"¢":{"ha":833,"x_min":-57,"x_max":936,"o":"m 306 28 q 162 67 224 37 q 55 158 100 98 q -18 313 10 218 q -56 550 -45 408 q -57 610 -57 570 q -22 840 -57 732 q 96 1027 12 948 q 317 1131 179 1106 l 322 1272 q 567 1267 567 1272 l 561 1111 q 734 1060 656 1094 q 865 974 812 1025 q 936 856 918 922 l 632 657 q 428 733 602 733 q 347 677 389 733 q 306 550 306 621 q 338 447 309 496 q 439 395 366 398 q 553 424 493 395 q 656 541 612 453 q 712 490 659 535 q 822 399 766 444 q 904 332 878 353 q 812 182 867 243 q 691 85 756 120 q 555 33 627 50 l 550 -83 l 300 -83 l 306 28 m 339 61 l 339 -50 l 511 -50 l 517 74 q 839 317 734 118 l 656 469 q 574 377 627 397 q 450 350 521 357 q 355 381 401 350 q 283 459 310 412 q 256 550 256 506 q 279 657 256 602 q 345 751 302 713 q 444 789 388 789 q 570 767 498 786 q 660 722 642 748 l 857 873 q 732 1000 827 950 q 522 1061 636 1049 l 522 1227 l 350 1234 l 345 1057 q 129 969 204 1033 q 27 805 54 905 q 0 555 0 705 q 25 372 0 460 q 95 217 50 283 q 201 111 140 151 q 339 61 263 71 z "},"Ò":{"ha":1042,"x_min":-46,"x_max":1105,"o":"m 911 966 q 826 1022 871 998 q 737 1057 782 1046 q 647 1068 692 1068 q 531 1051 589 1068 q 412 998 473 1034 q 288 910 351 963 q 155 783 225 858 q 57 620 90 711 q 24 432 24 528 q 64 229 24 323 q 178 83 105 136 q 368 25 257 25 q 567 68 465 25 q 756 178 669 111 q 895 311 844 245 q 949 396 923 349 q 994 491 975 444 q 1023 591 1012 538 q 1034 696 1034 644 q 911 966 1034 870 m 945 1017 q 1105 689 1105 894 q 1085 544 1105 618 q 1029 400 1065 469 q 950 278 994 332 q 809 130 879 190 q 669 32 740 69 q 533 -23 599 -6 q 404 -40 467 -40 q 139 39 258 -40 q 6 208 59 93 q -46 456 -46 323 q 89 822 -46 668 q 256 983 168 913 q 437 1094 343 1054 q 628 1135 530 1135 q 945 1017 789 1135 m 811 842 q 821 764 821 804 q 774 611 821 673 q 659 550 727 550 q 547 595 603 550 q 501 710 501 631 q 523 807 501 760 q 590 884 545 854 q 701 914 636 914 q 622 844 647 884 q 597 762 597 804 q 605 720 597 742 q 623 688 612 699 q 671 667 643 667 q 756 716 715 667 q 811 842 798 766 m 633 1411 l 322 1578 l 205 1394 l 589 1328 l 633 1411 m 672 1417 l 595 1295 l 155 1378 l 311 1617 l 672 1417 z "},"Ó":{"ha":1042,"x_min":-46,"x_max":1105,"o":"m 911 966 q 826 1022 871 998 q 737 1057 782 1046 q 647 1068 692 1068 q 531 1051 589 1068 q 412 998 473 1034 q 288 910 351 963 q 155 783 225 858 q 57 620 90 711 q 24 432 24 528 q 64 229 24 323 q 178 83 105 136 q 368 25 257 25 q 567 68 465 25 q 756 178 669 111 q 895 311 844 245 q 949 396 923 349 q 994 491 975 444 q 1023 591 1012 538 q 1034 696 1034 644 q 911 966 1034 870 m 945 1017 q 1105 689 1105 894 q 1085 544 1105 618 q 1029 400 1065 469 q 950 278 994 332 q 809 130 879 190 q 669 32 740 69 q 533 -23 599 -6 q 404 -40 467 -40 q 139 39 258 -40 q 6 208 59 93 q -46 456 -46 323 q 89 822 -46 668 q 256 983 168 913 q 437 1094 343 1054 q 628 1135 530 1135 q 945 1017 789 1135 m 811 842 q 821 764 821 804 q 774 611 821 673 q 659 550 727 550 q 547 595 603 550 q 501 710 501 631 q 523 807 501 760 q 590 884 545 854 q 701 914 636 914 q 622 844 647 884 q 597 762 597 804 q 605 720 597 742 q 623 688 612 699 q 671 667 643 667 q 756 716 715 667 q 811 842 798 766 m 433 1439 l 478 1356 l 861 1422 l 745 1605 l 433 1439 m 395 1444 l 755 1645 l 911 1406 l 472 1322 l 395 1444 z "},"Ô":{"ha":1042,"x_min":-46,"x_max":1105,"o":"m 911 966 q 826 1022 871 998 q 737 1057 782 1046 q 647 1068 692 1068 q 531 1051 589 1068 q 412 998 473 1034 q 288 910 351 963 q 155 783 225 858 q 57 620 90 711 q 24 432 24 528 q 64 229 24 323 q 178 83 105 136 q 368 25 257 25 q 567 68 465 25 q 756 178 669 111 q 895 311 844 245 q 949 396 923 349 q 994 491 975 444 q 1023 591 1012 538 q 1034 696 1034 644 q 911 966 1034 870 m 945 1017 q 1105 689 1105 894 q 1085 544 1105 618 q 1029 400 1065 469 q 950 278 994 332 q 809 130 879 190 q 669 32 740 69 q 533 -23 599 -6 q 404 -40 467 -40 q 139 39 258 -40 q 6 208 59 93 q -46 456 -46 323 q 89 822 -46 668 q 256 983 168 913 q 437 1094 343 1054 q 628 1135 530 1135 q 945 1017 789 1135 m 811 842 q 821 764 821 804 q 774 611 821 673 q 659 550 727 550 q 547 595 603 550 q 501 710 501 631 q 523 807 501 760 q 590 884 545 854 q 701 914 636 914 q 622 844 647 884 q 597 762 597 804 q 605 720 597 742 q 623 688 612 699 q 671 667 643 667 q 756 716 715 667 q 811 842 798 766 m 900 1350 l 895 1444 l 550 1567 l 222 1461 l 211 1372 l 550 1467 l 900 1350 m 545 1617 l 933 1483 l 950 1295 l 545 1428 l 161 1311 l 189 1500 l 545 1617 z "},"Õ":{"ha":1042,"x_min":-46,"x_max":1105,"o":"m 911 966 q 826 1022 871 998 q 737 1057 782 1046 q 647 1068 692 1068 q 531 1051 589 1068 q 412 998 473 1034 q 288 910 351 963 q 155 783 225 858 q 57 620 90 711 q 24 432 24 528 q 64 229 24 323 q 178 83 105 136 q 368 25 257 25 q 567 68 465 25 q 756 178 669 111 q 895 311 844 245 q 949 396 923 349 q 994 491 975 444 q 1023 591 1012 538 q 1034 696 1034 644 q 911 966 1034 870 m 945 1017 q 1105 689 1105 894 q 1085 544 1105 618 q 1029 400 1065 469 q 950 278 994 332 q 809 130 879 190 q 669 32 740 69 q 533 -23 599 -6 q 404 -40 467 -40 q 139 39 258 -40 q 6 208 59 93 q -46 456 -46 323 q 89 822 -46 668 q 256 983 168 913 q 437 1094 343 1054 q 628 1135 530 1135 q 945 1017 789 1135 m 811 842 q 821 764 821 804 q 774 611 821 673 q 659 550 727 550 q 547 595 603 550 q 501 710 501 631 q 523 807 501 760 q 590 884 545 854 q 701 914 636 914 q 622 844 647 884 q 597 762 597 804 q 605 720 597 742 q 623 688 612 699 q 671 667 643 667 q 756 716 715 667 q 811 842 798 766 m 205 1428 l 222 1584 q 313 1628 251 1601 q 439 1654 374 1654 q 555 1605 513 1654 q 684 1554 599 1554 q 788 1573 735 1554 q 876 1622 842 1592 q 911 1678 911 1651 l 945 1439 q 808 1401 899 1424 q 650 1378 717 1378 q 572 1400 591 1378 q 385 1464 519 1464 q 288 1454 336 1464 q 205 1428 241 1444 m 250 1561 l 239 1472 q 296 1493 255 1485 q 386 1501 337 1501 q 583 1450 520 1501 q 686 1422 616 1422 q 808 1439 745 1422 q 900 1467 871 1456 l 889 1578 q 859 1550 889 1565 q 783 1527 829 1536 q 689 1518 737 1518 q 550 1561 588 1518 q 425 1615 503 1615 q 321 1595 370 1615 q 250 1561 272 1575 z "},"Ö":{"ha":1042,"x_min":-46,"x_max":1105,"o":"m 911 966 q 826 1022 871 998 q 737 1057 782 1046 q 647 1068 692 1068 q 531 1051 589 1068 q 412 998 473 1034 q 288 910 351 963 q 155 783 225 858 q 57 620 90 711 q 24 432 24 528 q 64 229 24 323 q 178 83 105 136 q 368 25 257 25 q 567 68 465 25 q 756 178 669 111 q 895 311 844 245 q 949 396 923 349 q 994 491 975 444 q 1023 591 1012 538 q 1034 696 1034 644 q 911 966 1034 870 m 945 1017 q 1105 689 1105 894 q 1085 544 1105 618 q 1029 400 1065 469 q 950 278 994 332 q 809 130 879 190 q 669 32 740 69 q 533 -23 599 -6 q 404 -40 467 -40 q 139 39 258 -40 q 6 208 59 93 q -46 456 -46 323 q 89 822 -46 668 q 256 983 168 913 q 437 1094 343 1054 q 628 1135 530 1135 q 945 1017 789 1135 m 811 842 q 821 764 821 804 q 774 611 821 673 q 659 550 727 550 q 547 595 603 550 q 501 710 501 631 q 523 807 501 760 q 590 884 545 854 q 701 914 636 914 q 622 844 647 884 q 597 762 597 804 q 605 720 597 742 q 623 688 612 699 q 671 667 643 667 q 756 716 715 667 q 811 842 798 766 m 178 1478 q 198 1586 178 1521 q 289 1650 219 1650 q 415 1607 364 1647 q 467 1508 467 1567 q 461 1472 467 1489 q 402 1358 441 1399 q 306 1317 362 1317 q 216 1365 255 1322 q 178 1478 178 1409 m 233 1472 q 259 1412 233 1443 q 339 1378 285 1381 q 362 1397 349 1378 q 385 1442 376 1417 q 395 1478 395 1467 q 306 1584 395 1575 q 268 1566 284 1584 q 242 1522 252 1548 q 233 1472 233 1496 m 628 1495 q 649 1603 628 1538 q 739 1667 669 1667 q 828 1646 787 1665 q 893 1596 869 1627 q 917 1525 917 1565 q 911 1489 917 1505 q 851 1374 890 1415 q 755 1333 812 1333 q 667 1381 705 1337 q 628 1495 628 1426 m 684 1489 q 709 1429 684 1459 q 789 1394 734 1398 q 812 1413 800 1394 q 834 1457 825 1432 q 844 1495 844 1481 q 755 1600 844 1592 q 704 1563 724 1600 q 684 1489 684 1526 z "},"¨":{"ha":694,"x_min":-22,"x_max":717,"o":"m -22 1111 q -2 1219 -22 1154 q 89 1283 19 1283 q 215 1240 164 1280 q 267 1141 267 1200 q 261 1105 267 1122 q 202 991 241 1032 q 106 950 162 950 q 16 998 55 955 q -22 1111 -22 1042 m 33 1105 q 59 1045 33 1076 q 139 1011 85 1015 q 162 1030 150 1011 q 185 1074 175 1049 q 195 1111 195 1098 q 106 1217 195 1208 q 68 1199 84 1217 q 42 1155 52 1181 q 33 1105 33 1129 m 428 1128 q 449 1236 428 1171 q 539 1300 469 1300 q 666 1257 614 1297 q 717 1158 717 1217 q 711 1122 717 1139 q 652 1008 692 1050 q 555 966 612 966 q 493 990 522 970 q 446 1046 464 1010 q 428 1128 428 1082 m 484 1122 q 509 1062 484 1093 q 589 1028 534 1031 q 624 1067 604 1028 q 644 1128 644 1107 q 555 1234 644 1225 q 504 1197 524 1234 q 484 1122 484 1160 z "},"»":{"ha":1320,"x_min":-58,"x_max":1383,"o":"m 758 728 l 31 361 l -3 600 l 319 711 l -31 817 l -58 1050 l 758 728 m -8 983 q 0 907 -5 949 q 8 844 5 865 l 397 711 l 41 561 l 58 416 l 659 728 q 454 808 587 756 q 158 921 321 859 q -8 983 -4 983 m 1383 728 l 656 361 l 623 600 l 945 711 l 595 817 l 567 1050 l 1383 728 m 616 983 q 626 902 622 939 q 633 844 631 865 l 1022 711 l 667 561 l 684 416 l 1283 728 q 1080 807 1211 756 q 786 921 949 858 q 616 983 622 983 z "},"«":{"ha":1320,"x_min":5,"x_max":1447,"o":"m 5 728 l 822 1050 l 794 817 l 444 711 l 766 600 l 733 361 l 5 728 m 772 983 q 603 921 767 983 q 309 807 439 858 q 106 728 178 756 l 705 416 l 722 561 l 367 711 l 755 844 q 772 983 757 844 m 631 728 l 1447 1050 l 1419 817 l 1069 711 l 1392 600 l 1358 361 l 631 728 m 1397 983 q 1231 921 1393 983 q 935 808 1068 859 q 730 728 802 756 l 1331 416 l 1348 561 l 991 711 l 1381 844 q 1389 907 1383 865 q 1397 983 1394 949 z "},"Ù":{"ha":903,"x_min":-122,"x_max":958,"o":"m 306 1234 l -83 1267 l -78 1173 l 45 1156 q 32 899 32 1086 q 69 411 32 637 q 195 122 106 185 q 269 82 227 98 q 355 59 310 66 q 444 52 401 52 q 686 111 587 52 q 788 204 748 149 q 864 334 828 260 q 896 437 884 375 q 913 575 908 498 q 918 737 918 652 q 913 926 918 832 q 903 1087 909 1020 q 895 1178 897 1154 l 616 1200 q 627 1092 621 1168 q 635 914 632 1015 q 639 726 639 813 q 633 541 639 616 q 616 433 628 466 q 554 329 593 364 q 471 293 515 293 q 396 325 429 293 q 350 411 363 356 q 331 549 344 441 q 308 800 319 658 q 297 1063 297 942 q 306 1234 297 1163 m 345 1267 q 340 1121 340 1204 q 350 845 340 997 q 375 575 360 693 q 406 422 390 457 q 481 345 440 345 q 528 371 505 345 q 567 439 551 397 q 596 686 596 513 q 593 820 596 755 q 585 961 590 884 q 574 1124 580 1038 q 567 1239 568 1210 l 928 1211 q 950 1004 941 1123 q 958 766 958 884 q 946 522 958 635 q 905 322 934 408 q 846 219 890 277 q 751 113 802 161 q 661 41 699 64 q 464 -4 581 -4 q 289 24 376 -4 q 139 106 203 52 q 67 217 97 142 q 19 395 38 291 q -7 609 1 499 q -16 825 -16 719 q 0 1105 -16 987 l -117 1133 l -122 1305 l 345 1267 m 633 1411 l 322 1578 l 205 1394 l 589 1328 l 633 1411 m 672 1417 l 595 1295 l 155 1378 l 311 1617 l 672 1417 z "},"Ú":{"ha":903,"x_min":-122,"x_max":958,"o":"m 306 1234 l -83 1267 l -78 1173 l 45 1156 q 32 899 32 1086 q 69 411 32 637 q 195 122 106 185 q 269 82 227 98 q 355 59 310 66 q 444 52 401 52 q 686 111 587 52 q 788 204 748 149 q 864 334 828 260 q 896 437 884 375 q 913 575 908 498 q 918 737 918 652 q 913 926 918 832 q 903 1087 909 1020 q 895 1178 897 1154 l 616 1200 q 627 1092 621 1168 q 635 914 632 1015 q 639 726 639 813 q 633 541 639 616 q 616 433 628 466 q 554 329 593 364 q 471 293 515 293 q 396 325 429 293 q 350 411 363 356 q 331 549 344 441 q 308 800 319 658 q 297 1063 297 942 q 306 1234 297 1163 m 345 1267 q 340 1121 340 1204 q 350 845 340 997 q 375 575 360 693 q 406 422 390 457 q 481 345 440 345 q 528 371 505 345 q 567 439 551 397 q 596 686 596 513 q 593 820 596 755 q 585 961 590 884 q 574 1124 580 1038 q 567 1239 568 1210 l 928 1211 q 950 1004 941 1123 q 958 766 958 884 q 946 522 958 635 q 905 322 934 408 q 846 219 890 277 q 751 113 802 161 q 661 41 699 64 q 464 -4 581 -4 q 289 24 376 -4 q 139 106 203 52 q 67 217 97 142 q 19 395 38 291 q -7 609 1 499 q -16 825 -16 719 q 0 1105 -16 987 l -117 1133 l -122 1305 l 345 1267 m 200 1428 l 244 1344 l 628 1411 l 511 1594 l 200 1428 m 161 1434 l 522 1633 l 677 1394 l 239 1311 l 161 1434 z "},"Û":{"ha":903,"x_min":-122,"x_max":958,"o":"m 306 1234 l -83 1267 l -78 1173 l 45 1156 q 32 899 32 1086 q 69 411 32 637 q 195 122 106 185 q 269 82 227 98 q 355 59 310 66 q 444 52 401 52 q 686 111 587 52 q 788 204 748 149 q 864 334 828 260 q 896 437 884 375 q 913 575 908 498 q 918 737 918 652 q 913 926 918 832 q 903 1087 909 1020 q 895 1178 897 1154 l 616 1200 q 627 1092 621 1168 q 635 914 632 1015 q 639 726 639 813 q 633 541 639 616 q 616 433 628 466 q 554 329 593 364 q 471 293 515 293 q 396 325 429 293 q 350 411 363 356 q 331 549 344 441 q 308 800 319 658 q 297 1063 297 942 q 306 1234 297 1163 m 345 1267 q 340 1121 340 1204 q 350 845 340 997 q 375 575 360 693 q 406 422 390 457 q 481 345 440 345 q 528 371 505 345 q 567 439 551 397 q 596 686 596 513 q 593 820 596 755 q 585 961 590 884 q 574 1124 580 1038 q 567 1239 568 1210 l 928 1211 q 950 1004 941 1123 q 958 766 958 884 q 946 522 958 635 q 905 322 934 408 q 846 219 890 277 q 751 113 802 161 q 661 41 699 64 q 464 -4 581 -4 q 289 24 376 -4 q 139 106 203 52 q 67 217 97 142 q 19 395 38 291 q -7 609 1 499 q -16 825 -16 719 q 0 1105 -16 987 l -117 1133 l -122 1305 l 345 1267 m 778 1344 l 772 1439 l 428 1561 l 100 1455 l 89 1367 l 428 1461 l 778 1344 m 422 1611 l 811 1478 l 828 1289 l 422 1422 l 39 1305 l 66 1495 l 422 1611 z "},"Ü":{"ha":903,"x_min":-122,"x_max":958,"o":"m 306 1234 l -83 1267 l -78 1173 l 45 1156 q 32 899 32 1086 q 69 411 32 637 q 195 122 106 185 q 269 82 227 98 q 355 59 310 66 q 444 52 401 52 q 686 111 587 52 q 788 204 748 149 q 864 334 828 260 q 896 437 884 375 q 913 575 908 498 q 918 737 918 652 q 913 926 918 832 q 903 1087 909 1020 q 895 1178 897 1154 l 616 1200 q 627 1092 621 1168 q 635 914 632 1015 q 639 726 639 813 q 633 541 639 616 q 616 433 628 466 q 554 329 593 364 q 471 293 515 293 q 396 325 429 293 q 350 411 363 356 q 331 549 344 441 q 308 800 319 658 q 297 1063 297 942 q 306 1234 297 1163 m 345 1267 q 340 1121 340 1204 q 350 845 340 997 q 375 575 360 693 q 406 422 390 457 q 481 345 440 345 q 528 371 505 345 q 567 439 551 397 q 596 686 596 513 q 593 820 596 755 q 585 961 590 884 q 574 1124 580 1038 q 567 1239 568 1210 l 928 1211 q 950 1004 941 1123 q 958 766 958 884 q 946 522 958 635 q 905 322 934 408 q 846 219 890 277 q 751 113 802 161 q 661 41 699 64 q 464 -4 581 -4 q 289 24 376 -4 q 139 106 203 52 q 67 217 97 142 q 19 395 38 291 q -7 609 1 499 q -16 825 -16 719 q 0 1105 -16 987 l -117 1133 l -122 1305 l 345 1267 m 66 1478 q 87 1586 66 1521 q 178 1650 108 1650 q 304 1607 254 1647 q 355 1508 355 1568 q 350 1472 355 1489 q 291 1358 330 1399 q 195 1317 251 1317 q 133 1340 162 1320 q 85 1396 104 1360 q 66 1478 66 1432 m 122 1472 q 148 1412 122 1443 q 228 1378 174 1381 q 263 1417 243 1378 q 283 1478 283 1457 q 195 1584 283 1575 q 157 1566 173 1584 q 131 1522 140 1548 q 122 1472 122 1496 m 517 1495 q 537 1603 517 1538 q 628 1667 558 1667 q 716 1646 675 1665 q 782 1596 758 1627 q 806 1525 806 1565 q 800 1489 806 1506 q 741 1374 781 1415 q 644 1333 701 1333 q 555 1381 594 1337 q 517 1495 517 1426 m 572 1489 q 597 1429 572 1459 q 677 1394 623 1398 q 701 1413 688 1394 q 723 1457 713 1432 q 733 1495 733 1481 q 644 1600 733 1592 q 593 1563 613 1600 q 572 1489 572 1526 z "},"Ø":{"ha":1042,"x_min":-106,"x_max":1133,"o":"m 811 842 q 821 764 821 804 q 774 611 821 673 q 659 550 727 550 q 547 595 603 550 q 501 710 501 631 q 523 807 501 760 q 590 884 545 854 q 701 914 636 914 q 622 844 647 884 q 597 762 597 804 q 605 720 597 742 q 623 688 612 699 q 671 667 643 667 q 756 716 715 667 q 811 842 798 766 m -106 56 l 18 183 q -45 456 -45 308 q -13 649 -45 556 q 89 822 19 743 q 256 983 168 913 q 437 1094 343 1054 q 628 1135 530 1135 q 817 1093 722 1135 q 879 1160 843 1122 q 928 1211 916 1199 l 1133 1061 l 1028 932 q 1105 689 1105 829 q 1094 579 1105 633 q 1062 472 1082 525 q 1011 369 1041 419 q 950 278 982 318 q 675 35 814 109 q 404 -40 536 -40 q 200 5 296 -40 l 78 -100 l -106 56 m 960 918 l 1072 1050 l 928 1139 l 822 1025 q 647 1068 737 1068 q 531 1051 589 1068 q 412 998 473 1034 q 288 910 351 963 q 155 783 225 858 q 57 620 90 711 q 24 431 24 528 q 90 178 24 285 l -39 66 l 66 -39 l 203 68 q 368 26 276 26 q 568 69 465 26 q 757 178 671 111 q 895 311 843 244 q 996 494 957 393 q 1035 696 1035 595 q 960 918 1035 827 z "},"Ì":{"ha":764,"x_min":-78,"x_max":789,"o":"m 400 261 l 461 939 l 739 994 l 728 1222 l -22 1111 l -45 867 l 256 905 l 228 250 l 28 233 l 5 45 l 755 50 q 758 97 758 50 q 755 221 758 163 q 750 278 753 278 q 683 275 737 278 q 557 269 629 273 q 454 264 486 265 q 400 261 422 262 m 444 311 l 789 306 l 783 11 l -33 11 l 0 272 l 189 278 l 216 867 l -78 817 l -61 1139 l 761 1261 l 778 966 l 494 911 l 444 311 m 633 1411 l 322 1578 l 205 1394 l 589 1328 l 633 1411 m 672 1417 l 595 1295 l 155 1378 l 311 1617 l 672 1417 z "},"Í":{"ha":764,"x_min":-78,"x_max":789,"o":"m 400 261 l 461 939 l 739 994 l 728 1222 l -22 1111 l -45 867 l 256 905 l 228 250 l 28 233 l 5 45 l 755 50 q 758 97 758 50 q 755 221 758 163 q 750 278 753 278 q 683 275 737 278 q 557 269 629 273 q 454 264 486 265 q 400 261 422 262 m 444 311 l 789 306 l 783 11 l -33 11 l 0 272 l 189 278 l 216 867 l -78 817 l -61 1139 l 761 1261 l 778 966 l 494 911 l 444 311 m 200 1428 l 244 1344 l 628 1411 l 511 1594 l 200 1428 m 161 1434 l 522 1633 l 677 1394 l 239 1311 l 161 1434 z "},"Î":{"ha":764,"x_min":-78,"x_max":828,"o":"m 400 261 l 461 939 l 739 994 l 728 1222 l -22 1111 l -45 867 l 256 905 l 228 250 l 28 233 l 5 45 l 755 50 q 758 97 758 50 q 755 221 758 163 q 750 278 753 278 q 683 275 737 278 q 557 269 629 273 q 454 264 486 265 q 400 261 422 262 m 444 311 l 789 306 l 783 11 l -33 11 l 0 272 l 189 278 l 216 867 l -78 817 l -61 1139 l 761 1261 l 778 966 l 494 911 l 444 311 m 778 1344 l 772 1439 l 428 1561 l 100 1455 l 89 1367 l 428 1461 l 778 1344 m 422 1611 l 811 1478 l 828 1289 l 422 1422 l 39 1305 l 66 1495 l 422 1611 z "},"Ï":{"ha":764,"x_min":-78,"x_max":806,"o":"m 400 261 l 461 939 l 739 994 l 728 1222 l -22 1111 l -45 867 l 256 905 l 228 250 l 28 233 l 5 45 l 755 50 q 758 97 758 50 q 755 221 758 163 q 750 278 753 278 q 683 275 737 278 q 557 269 629 273 q 454 264 486 265 q 400 261 422 262 m 444 311 l 789 306 l 783 11 l -33 11 l 0 272 l 189 278 l 216 867 l -78 817 l -61 1139 l 761 1261 l 778 966 l 494 911 l 444 311 m 66 1478 q 87 1586 66 1521 q 178 1650 108 1650 q 304 1607 254 1647 q 355 1508 355 1568 q 350 1472 355 1489 q 291 1358 330 1399 q 195 1317 251 1317 q 133 1340 162 1320 q 85 1396 104 1360 q 66 1478 66 1432 m 122 1472 q 148 1412 122 1443 q 228 1378 174 1381 q 263 1417 243 1378 q 283 1478 283 1457 q 195 1584 283 1575 q 157 1566 173 1584 q 131 1522 140 1548 q 122 1472 122 1496 m 517 1495 q 537 1603 517 1538 q 628 1667 558 1667 q 716 1646 675 1665 q 782 1596 758 1627 q 806 1525 806 1565 q 800 1489 806 1506 q 741 1374 781 1415 q 644 1333 701 1333 q 555 1381 594 1337 q 517 1495 517 1426 m 572 1489 q 597 1429 572 1459 q 677 1394 623 1398 q 701 1413 688 1394 q 723 1457 713 1432 q 733 1495 733 1481 q 644 1600 733 1592 q 593 1563 613 1600 q 572 1489 572 1526 z "},"Æ":{"ha":1250,"x_min":-306,"x_max":1544,"o":"m 428 783 l 494 522 l 334 545 l 428 783 m 456 561 l 422 717 l 372 578 l 456 561 m 528 350 l 322 383 l 45 -205 l -306 -222 l 433 1250 l 1239 1339 l 1255 1044 l 728 956 l 750 739 l 1261 833 l 1278 589 l 789 489 l 833 167 l 1544 134 l 1539 -161 l 589 -83 l 528 350 m 545 383 l 616 -50 l 1511 -122 q 1514 -75 1514 -122 q 1511 49 1514 -9 q 1506 106 1508 106 q 1411 107 1493 106 q 1151 111 1329 109 q 909 115 973 114 q 800 117 844 116 l 755 522 l 1244 616 l 1227 800 l 728 700 l 694 983 l 1217 1072 l 1206 1300 l 444 1211 l -233 -178 l 5 -172 l 300 416 l 545 383 z "},"Ñ":{"ha":764,"x_min":-122,"x_max":861,"o":"m 811 1178 l 478 1200 l 522 611 l 256 1227 l -83 1267 l -78 1173 l 45 1156 l 72 -161 l 311 -155 l 334 583 l 623 -267 l 822 -256 l 811 1178 m 289 1278 l 467 828 l 428 1239 l 850 1222 l 861 -300 l 611 -317 l 355 406 l 361 -189 l 39 -195 l 0 1105 l -117 1133 l -122 1305 l 289 1278 m 22 1422 l 39 1578 q 129 1622 67 1596 q 256 1649 191 1649 q 372 1600 330 1649 q 500 1549 416 1549 q 605 1568 552 1549 q 693 1616 659 1587 q 728 1672 728 1645 l 761 1434 q 625 1395 715 1418 q 467 1372 534 1372 q 389 1394 408 1372 q 201 1458 337 1458 q 22 1422 100 1458 m 66 1556 l 56 1467 q 113 1488 72 1480 q 203 1496 154 1496 q 315 1483 262 1496 q 400 1444 368 1471 q 503 1417 433 1417 q 626 1433 564 1417 q 717 1461 688 1450 l 705 1572 q 676 1545 705 1558 q 601 1521 647 1531 q 505 1512 554 1512 q 367 1556 405 1512 q 241 1610 319 1610 q 137 1590 186 1610 q 66 1556 88 1569 z "},"ñ":{"ha":833,"x_min":-11,"x_max":897,"o":"m 39 456 q 45 369 43 418 q 52 230 47 319 q 58 108 56 140 q 66 33 60 77 l 322 61 q 309 272 309 174 q 334 522 309 406 q 360 589 342 560 q 400 633 377 618 q 447 648 423 648 q 494 634 471 648 q 536 591 517 620 q 572 517 556 563 q 611 337 595 454 q 628 123 628 221 q 623 39 628 86 l 828 45 q 840 158 828 64 q 851 318 851 251 q 800 550 851 449 q 730 679 755 640 q 644 755 705 719 q 507 789 590 789 q 278 739 409 789 l 250 783 l 28 755 l 39 456 m 294 783 q 424 822 370 808 q 528 835 478 835 q 644 806 594 835 q 774 688 705 771 q 861 533 844 604 q 897 281 897 389 q 890 161 897 224 q 867 0 882 98 l 583 -17 q 585 81 585 17 q 511 533 585 347 q 456 603 483 603 q 378 505 420 603 q 361 451 368 481 q 352 382 355 420 q 349 293 349 345 q 361 28 349 189 l 28 -11 q 13 108 20 49 q 2 217 6 167 q -1 326 -1 268 q 1 399 -1 351 l -11 794 l 256 828 l 294 783 m -11 1034 l 5 1189 q 95 1233 34 1206 q 222 1260 156 1260 q 339 1211 296 1260 q 467 1160 383 1160 q 572 1179 519 1160 q 660 1227 625 1198 q 694 1283 694 1256 l 728 1044 q 591 1006 682 1029 q 433 983 500 983 q 355 1006 374 983 q 279 1054 330 1038 q 168 1069 229 1069 q -11 1034 69 1069 m 33 1166 l 22 1078 q 76 1098 35 1090 q 170 1107 117 1107 q 367 1055 304 1107 q 469 1028 400 1028 q 593 1045 531 1028 q 684 1072 655 1061 l 672 1183 q 643 1156 672 1170 q 567 1133 614 1142 q 472 1124 521 1124 q 334 1166 370 1124 q 208 1221 287 1221 q 104 1200 153 1221 q 33 1166 55 1180 z "},"ç":{"ha":833,"x_min":-57,"x_max":936,"o":"m 572 37 q 699 -139 699 -54 q 636 -251 699 -203 q 511 -323 574 -298 q 416 -355 448 -347 l 178 -183 q 309 -155 230 -179 q 387 -72 387 -132 q 334 21 387 -32 q 143 89 225 34 q 8 257 60 144 q -56 550 -44 370 q -57 610 -57 570 q -34 802 -57 710 q 43 969 -10 895 q 190 1090 96 1043 q 416 1139 283 1137 q 590 1118 505 1139 q 747 1060 675 1097 q 869 970 818 1023 q 936 856 920 917 l 632 657 q 428 733 602 733 q 347 677 389 733 q 306 550 306 621 q 338 447 309 496 q 439 395 366 398 q 553 424 493 395 q 656 541 612 453 q 712 490 659 535 q 822 399 766 444 q 904 332 878 353 q 572 37 808 100 m 489 69 q 688 143 599 87 q 839 317 778 199 l 656 469 q 574 377 627 397 q 450 350 521 357 q 355 381 401 350 q 283 459 310 412 q 256 550 256 506 q 279 657 256 602 q 345 751 302 713 q 444 789 388 789 q 570 767 498 786 q 660 722 642 748 l 857 873 q 768 975 835 930 q 617 1044 701 1019 q 457 1068 533 1068 q 422 1067 433 1068 q 206 1016 290 1055 q 78 915 123 978 q 17 764 34 851 q 0 555 0 677 q 26 375 0 461 q 100 221 52 289 q 213 113 149 154 q 350 62 276 73 q 414 1 393 32 q 435 -58 435 -30 q 376 -157 435 -117 q 278 -211 317 -196 l 416 -322 q 492 -295 441 -316 q 592 -233 543 -275 q 642 -135 642 -191 q 489 69 642 -40 z "},"Ç":{"ha":833,"x_min":-57,"x_max":936,"o":"m 572 37 q 699 -139 699 -54 q 636 -251 699 -203 q 511 -323 574 -298 q 416 -355 448 -347 l 178 -183 q 309 -155 230 -179 q 387 -72 387 -132 q 334 21 387 -32 q 143 89 225 34 q 8 257 60 144 q -56 550 -44 370 q -57 610 -57 570 q -34 802 -57 710 q 43 969 -10 895 q 190 1090 96 1043 q 416 1139 283 1137 q 590 1118 505 1139 q 747 1060 675 1097 q 869 970 818 1023 q 936 856 920 917 l 632 657 q 428 733 602 733 q 347 677 389 733 q 306 550 306 621 q 338 447 309 496 q 439 395 366 398 q 553 424 493 395 q 656 541 612 453 q 712 490 659 535 q 822 399 766 444 q 904 332 878 353 q 572 37 808 100 m 489 69 q 688 143 599 87 q 839 317 778 199 l 656 469 q 574 377 627 397 q 450 350 521 357 q 355 381 401 350 q 283 459 310 412 q 256 550 256 506 q 279 657 256 602 q 345 751 302 713 q 444 789 388 789 q 570 767 498 786 q 660 722 642 748 l 857 873 q 768 975 835 930 q 617 1044 701 1019 q 457 1068 533 1068 q 422 1067 433 1068 q 206 1016 290 1055 q 78 915 123 978 q 17 764 34 851 q 0 555 0 677 q 26 375 0 461 q 100 221 52 289 q 213 113 149 154 q 350 62 276 73 q 414 1 393 32 q 435 -58 435 -30 q 376 -157 435 -117 q 278 -211 317 -196 l 416 -322 q 492 -295 441 -316 q 592 -233 543 -275 q 642 -135 642 -191 q 489 69 642 -40 z "},"¸":{"ha":833,"x_min":178,"x_max":699,"o":"m 572 37 q 699 -139 699 -54 q 636 -251 699 -203 q 511 -323 574 -298 q 416 -355 448 -347 l 178 -183 q 309 -155 230 -179 q 387 -72 387 -132 q 334 21 387 -32 l 250 100 q 320 103 277 101 q 426 110 363 106 q 489 117 489 115 l 572 37 m 350 62 q 414 1 393 32 q 435 -58 435 -30 q 376 -157 435 -117 q 278 -211 317 -196 l 416 -322 q 492 -295 441 -316 q 592 -233 543 -275 q 642 -135 642 -191 q 489 69 642 -40 l 350 62 z "},"Ÿ":{"ha":972,"x_min":-106,"x_max":1072,"o":"m 61 1083 l 472 350 l 278 -189 l 522 -161 l 1034 1117 l 766 1111 l 578 589 l 250 1173 l -66 1194 l -61 1100 l 61 1083 m 39 1050 l -100 1061 l -106 1234 l 306 1206 l 583 689 l 745 1156 l 1072 1139 l 555 -205 l 228 -233 l 428 339 l 39 1050 m 66 1478 q 87 1586 66 1521 q 178 1650 108 1650 q 304 1607 254 1647 q 355 1508 355 1568 q 350 1472 355 1489 q 291 1358 330 1399 q 195 1317 251 1317 q 133 1340 162 1320 q 85 1396 104 1360 q 66 1478 66 1432 m 122 1472 q 148 1412 122 1443 q 228 1378 174 1381 q 263 1417 243 1378 q 283 1478 283 1457 q 195 1584 283 1575 q 157 1566 173 1584 q 131 1522 140 1548 q 122 1472 122 1496 m 517 1495 q 537 1603 517 1538 q 628 1667 558 1667 q 716 1646 675 1665 q 782 1596 758 1627 q 806 1525 806 1565 q 800 1489 806 1506 q 741 1374 781 1415 q 644 1333 701 1333 q 555 1381 594 1337 q 517 1495 517 1426 m 572 1489 q 597 1429 572 1459 q 677 1394 623 1398 q 701 1413 688 1394 q 723 1457 713 1432 q 733 1495 733 1481 q 644 1600 733 1592 q 593 1563 613 1600 q 572 1489 572 1526 z "},"Ý":{"ha":972,"x_min":-106,"x_max":1072,"o":"m 61 1083 l 472 350 l 278 -189 l 522 -161 l 1034 1117 l 766 1111 l 578 589 l 250 1173 l -66 1194 l -61 1100 l 61 1083 m 39 1050 l -100 1061 l -106 1234 l 306 1206 l 583 689 l 745 1156 l 1072 1139 l 555 -205 l 228 -233 l 428 339 l 39 1050 m 200 1428 l 244 1344 l 628 1411 l 511 1594 l 200 1428 m 161 1434 l 522 1633 l 677 1394 l 239 1311 l 161 1434 z "},"‰":{"ha":1458,"x_min":-122,"x_max":1553,"o":"m 983 1139 l 745 1133 l -33 -195 l 189 -189 l 983 1139 m 1078 1189 l 228 -222 l -122 -233 l 705 1173 l 1078 1189 m 138 1080 q 17 896 17 1043 q 86 794 26 827 q 205 761 146 761 q 296 824 266 770 q 326 950 326 877 q 297 1011 323 979 q 233 1064 270 1043 q 163 1084 196 1084 q 138 1080 150 1084 m 121 1150 q 149 1152 131 1152 q 237 1136 196 1152 q 307 1097 277 1120 q 358 1048 337 1073 q 387 1003 378 1023 q 400 939 400 978 q 378 837 400 891 q 324 744 357 783 q 264 699 292 705 q 182 690 220 690 q 60 715 113 690 q -24 786 7 740 q -62 895 -55 832 q -19 1063 -62 985 q 121 1150 24 1141 m 804 297 q 684 113 684 260 q 752 11 692 44 q 872 -22 812 -22 q 963 40 932 -13 q 993 167 993 94 q 963 228 990 196 q 900 280 937 260 q 829 301 863 301 q 804 297 817 301 m 787 367 q 815 368 798 368 q 903 353 863 368 q 974 313 944 337 q 1024 264 1004 290 q 1054 220 1045 239 q 1067 155 1067 195 q 1045 53 1067 108 q 990 -41 1023 -2 q 930 -85 957 -80 q 848 -93 887 -93 q 726 -68 779 -93 q 643 3 673 -43 q 604 111 612 49 q 648 279 604 201 q 787 367 691 357 m 1291 297 q 1196 226 1223 277 q 1169 113 1169 175 q 1239 10 1179 43 q 1358 -22 1299 -22 q 1449 40 1419 -13 q 1479 167 1479 94 q 1450 228 1476 196 q 1385 280 1423 260 q 1315 301 1348 301 q 1291 297 1303 301 m 1274 367 q 1301 368 1283 368 q 1410 343 1359 368 q 1493 283 1460 317 q 1540 220 1526 249 q 1553 155 1553 195 q 1531 53 1553 108 q 1476 -41 1509 -2 q 1417 -85 1443 -80 q 1335 -93 1373 -93 q 1213 -68 1265 -93 q 1129 3 1160 -43 q 1090 111 1098 49 q 1134 279 1090 201 q 1274 367 1177 357 z "},"·":{"ha":278,"x_min":-5,"x_max":290,"o":"m 122 789 q 78 767 95 787 q 53 721 60 748 q 45 671 45 694 q 89 606 50 627 q 165 585 127 585 q 224 624 205 589 q 243 705 243 659 q 221 746 240 726 q 174 777 201 765 q 122 789 146 789 m 111 833 q 194 818 159 833 q 252 779 229 802 q 282 739 274 756 q 290 699 290 720 q 276 632 290 665 q 241 573 262 598 q 203 545 220 547 q 150 539 166 539 q 42 574 83 539 q -5 669 2 609 q 23 778 -5 728 q 111 833 51 828 z "},"ß":{"ha":833,"x_min":117,"x_max":997,"o":"m 372 950 q 484 974 450 968 q 551 979 517 979 q 611 972 578 979 q 650 930 650 962 q 601 829 650 891 q 502 719 552 767 q 428 650 452 671 l 372 950 m 416 917 l 456 717 q 549 817 493 753 q 606 913 606 881 q 595 928 606 924 q 557 937 573 933 q 527 944 542 941 q 501 946 511 946 q 416 917 458 946 m 339 1139 q 223 1079 264 1119 q 167 994 181 1038 q 153 909 153 950 q 155 872 153 883 l 378 0 l 595 -56 l 450 533 q 513 581 465 545 q 589 644 561 616 q 648 604 614 637 q 710 530 682 572 q 745 461 737 489 q 749 433 749 449 q 729 370 749 402 q 672 310 709 338 l 743 126 q 960 395 960 236 q 933 506 960 458 q 889 572 907 553 q 812 670 869 611 q 656 733 754 730 q 772 891 728 817 q 817 1014 817 966 q 811 1044 817 1034 q 572 1181 751 1181 q 339 1139 480 1181 m 127 844 q 117 928 117 885 q 166 1075 117 1019 q 265 1152 215 1131 q 339 1178 315 1173 q 558 1219 451 1219 q 743 1176 665 1219 q 861 1050 821 1133 q 869 1011 869 1031 q 733 755 869 920 q 813 718 758 752 q 928 589 868 684 q 997 382 997 479 q 912 186 997 266 q 710 58 827 106 l 600 332 q 694 456 694 389 q 653 529 694 485 q 589 578 612 573 q 532 531 558 547 q 494 511 505 515 l 644 -100 l 350 -45 l 127 844 z "},"¥":{"ha":972,"x_min":-106,"x_max":1072,"o":"m 61 1083 l 345 578 l 172 589 l 172 484 l 411 458 l 472 350 l 450 267 l 172 261 l 155 144 l 411 144 l 278 -189 l 522 -161 l 636 125 l 900 139 l 933 261 l 692 262 l 772 461 l 961 461 l 983 589 l 823 590 l 1034 1117 l 766 1111 l 578 589 l 250 1173 l -66 1194 l -61 1100 l 61 1083 m 39 1050 l -100 1061 l -106 1234 l 306 1206 l 583 689 l 745 1156 l 1072 1139 l 872 619 l 1017 623 l 989 428 l 817 433 l 757 288 l 966 289 l 922 111 l 682 103 l 555 -205 l 228 -233 l 347 110 l 117 106 l 139 289 l 412 296 l 428 339 l 406 416 l 139 439 l 134 628 l 272 623 l 39 1050 z "},"•":{"ha":278,"x_min":-5,"x_max":290,"o":"m 122 789 q 78 767 95 787 q 53 721 60 748 q 45 671 45 694 q 89 606 50 627 q 165 585 127 585 q 224 624 205 589 q 243 705 243 659 q 221 746 240 726 q 174 777 201 765 q 122 789 146 789 m 111 833 q 194 818 159 833 q 252 779 229 802 q 282 739 274 756 q 290 699 290 720 q 276 632 290 665 q 241 573 262 598 q 203 545 220 547 q 150 539 166 539 q 42 574 83 539 q -5 669 2 609 q 23 778 -5 728 q 111 833 51 828 z "},"¿":{"ha":764,"x_min":-90,"x_max":833,"o":"m 378 583 q 432 605 380 584 q 517 639 484 625 l 481 741 q 237 586 359 695 q 39 359 115 477 q -37 176 -37 241 q -33 150 -37 160 q 59 51 -3 81 q 214 21 121 21 q 376 37 288 21 q 552 77 465 54 q 789 144 639 100 l 705 367 q 678 342 692 349 q 645 329 664 334 q 623 322 626 324 q 488 271 569 294 q 331 233 407 247 q 204 220 255 220 q 167 222 176 220 q 126 268 126 233 q 178 386 126 315 q 293 518 230 458 q 378 583 356 579 m 564 593 q 431 554 500 592 q 304 463 361 516 q 211 359 248 410 q 174 282 174 308 q 183 267 174 269 q 221 262 200 262 q 334 278 258 262 q 422 294 409 293 q 530 327 467 300 q 652 386 593 354 q 717 422 711 417 q 771 283 721 422 q 833 117 821 144 q 691 71 781 100 q 528 23 600 42 q 375 -9 456 4 q 231 -22 295 -22 q 38 17 119 -22 q -83 144 -42 57 q -90 180 -90 158 q -25 340 -90 243 q 138 536 39 437 q 334 707 237 635 q 493 798 432 779 l 564 593 m 378 966 q 421 987 404 968 q 448 1033 439 1006 q 456 1084 456 1060 q 413 1149 450 1128 q 335 1171 376 1171 q 276 1132 295 1166 q 257 1050 257 1097 q 302 992 261 1019 q 378 966 342 966 m 389 922 q 278 954 323 922 q 218 1017 233 985 q 210 1057 210 1035 q 224 1124 210 1090 q 259 1183 238 1158 q 297 1211 279 1208 q 350 1217 334 1217 q 457 1182 417 1217 q 505 1086 498 1147 q 494 1014 505 1049 q 456 952 483 978 q 389 922 430 926 z "},"¡":{"ha":278,"x_min":-39,"x_max":367,"o":"m 167 1039 q 225 1080 207 1042 q 244 1157 244 1118 q 220 1206 240 1187 q 175 1234 201 1225 q 123 1243 149 1243 q 65 1204 85 1238 q 46 1122 46 1169 q 90 1064 50 1090 q 167 1039 130 1039 m 178 994 q 67 1025 112 994 q 7 1089 23 1056 q -1 1129 -1 1107 q 13 1196 -1 1162 q 48 1255 27 1230 q 86 1283 68 1280 q 139 1289 127 1289 q 247 1255 206 1289 q 294 1158 287 1220 q 267 1050 294 1101 q 178 994 239 1000 m 278 806 l 367 56 l -39 -66 l 45 783 l 278 806 m 244 745 l 83 733 l 22 22 l 317 100 l 244 745 z "},"š":{"ha":764,"x_min":-106,"x_max":867,"o":"m 745 561 l 822 722 q 653 770 721 752 q 512 805 585 789 q 374 829 438 821 q 252 838 311 838 q 17 728 66 838 q -16 593 -16 654 q 58 439 -16 497 q 256 355 132 380 q 428 335 372 344 q 523 301 484 326 q 561 228 561 277 q 517 183 558 197 q 411 168 477 168 q 261 183 340 168 q 113 224 176 199 q 22 261 49 248 l -50 106 q 103 61 32 81 q 249 22 175 40 q 385 -6 322 4 q 497 -16 448 -16 q 643 16 583 -16 q 733 117 703 47 q 749 195 749 151 q 719 304 749 250 q 615 400 689 359 q 416 450 541 441 q 314 472 376 454 q 205 519 253 490 q 158 583 158 549 q 216 656 158 621 q 285 667 233 667 q 394 657 327 667 q 524 633 460 648 q 648 599 588 618 q 745 561 707 580 m 761 517 q 662 548 741 524 q 523 590 584 572 q 387 624 461 608 q 272 640 313 640 q 239 633 250 640 q 205 587 205 608 q 272 530 205 554 q 433 494 338 506 q 644 433 564 480 q 760 325 724 387 q 796 197 796 262 q 778 111 796 151 q 476 -56 699 -56 q 338 -42 415 -56 q 192 -10 262 -29 q 42 35 121 9 q -106 83 -37 61 q -61 172 -88 120 q -8 273 -34 224 q 17 328 17 323 q 66 298 37 309 q 152 272 96 287 q 239 244 209 256 q 375 220 304 220 q 458 229 418 220 q 500 244 497 238 q 440 279 500 262 q 306 306 380 296 q 137 347 222 315 q -8 439 52 378 q -68 590 -68 500 q -33 733 -68 659 q 81 854 5 817 q 262 892 157 892 q 514 857 385 892 q 867 750 644 823 q 829 664 862 740 q 781 552 797 587 q 761 517 764 517 m 717 1161 l 711 1255 l 372 1145 l 50 1272 l 33 1156 l 372 1034 l 717 1161 m 367 1194 l 733 1322 l 755 1128 l 378 983 l -11 1122 l 33 1328 l 367 1194 z "},"Š":{"ha":764,"x_min":-134,"x_max":889,"o":"m 22 1044 q 1 946 1 998 q 38 802 1 876 q 138 658 75 728 q 277 533 202 588 q 439 433 353 477 q 511 385 475 416 q 573 317 548 353 q 597 250 597 281 q 533 189 597 204 q 496 186 524 186 q 407 194 458 186 q 292 216 355 201 q 178 248 229 231 q 78 289 127 265 q 54 297 71 292 q 22 309 36 301 q -5 334 8 316 l -89 111 q 77 64 -20 91 q 240 22 173 38 q 372 -3 307 7 q 486 -12 437 -12 q 641 18 579 -12 q 733 117 703 49 q 754 222 754 160 q 740 315 754 267 q 691 414 725 363 q 595 516 657 464 q 444 616 534 569 q 263 742 358 663 q 168 892 168 821 q 222 972 168 940 q 279 983 242 983 q 369 974 317 983 q 478 948 421 964 q 587 912 536 932 q 677 872 639 892 q 703 864 684 869 q 734 853 721 860 q 761 828 747 846 l 844 1050 q 640 1105 746 1079 q 445 1144 534 1131 q 279 1158 355 1158 q 22 1044 73 1158 m -28 1050 q 289 1211 48 1211 q 556 1176 416 1211 q 889 1078 696 1140 q 825 908 874 1044 q 772 772 777 772 q 710 808 767 778 q 587 867 654 838 q 478 900 520 895 q 390 921 459 902 q 286 940 320 940 q 239 928 255 940 q 211 882 211 908 q 234 828 211 857 q 294 771 257 800 q 377 715 332 743 q 467 667 422 688 q 624 565 557 622 q 728 450 691 507 q 783 335 766 393 q 800 224 800 276 q 778 111 800 162 q 656 -16 736 24 q 465 -56 576 -56 q 322 -42 401 -56 q 168 -9 242 -29 q 11 37 94 11 q -134 83 -71 63 q -101 166 -123 104 q -62 274 -78 229 q -33 354 -46 319 q -17 389 -20 389 q 111 320 2 373 q 278 261 219 268 q 352 245 300 259 q 424 226 404 231 q 469 221 443 221 q 517 233 500 221 q 547 281 547 256 q 406 411 547 336 q 213 538 319 456 q 27 727 106 620 q -53 942 -53 835 q -28 1050 -53 997 m 728 1406 l 722 1500 l 383 1389 l 61 1516 l 45 1400 l 383 1278 l 728 1406 m 378 1439 l 745 1567 l 766 1372 l 389 1227 l 0 1367 l 45 1572 l 378 1439 z "},"—":{"ha":625,"x_min":-5,"x_max":661,"o":"m 11 722 l 661 783 l 639 561 l -5 539 l 11 722 m 45 689 l 45 578 l 589 595 l 600 728 l 45 689 z "},"–":{"ha":903,"x_min":-5,"x_max":911,"o":"m 11 722 l 911 789 l 889 567 l -5 539 l 11 722 m 45 689 l 45 578 l 839 600 l 850 733 l 45 689 z "},"ƒ":{"ha":764,"x_min":-385,"x_max":875,"o":"m 122 66 q 127 -2 124 45 q 131 -119 131 -48 q 114 -323 131 -239 q 56 -422 98 -408 q -4 -435 28 -435 q -99 -401 -59 -435 q -139 -294 -139 -368 l -311 -189 q -345 -339 -345 -266 q -235 -545 -345 -473 q -5 -616 -125 -616 q 208 -579 127 -610 q 337 -445 288 -548 q 386 -138 386 -342 l 386 -106 q 375 203 375 -24 q 380 539 375 338 l 576 539 l 571 739 l 386 728 q 397 866 389 781 q 408 961 406 951 q 453 1054 422 1020 q 522 1088 484 1088 q 592 1055 559 1088 q 647 956 625 1022 l 831 1078 q 810 1119 819 1102 q 794 1144 801 1137 q 768 1164 788 1152 q 720 1194 749 1177 q 591 1223 671 1223 q 353 1178 492 1223 q 292 1157 312 1164 q 234 1119 272 1149 q 162 1035 195 1089 q 109 895 129 981 q 113 739 113 859 l -90 755 l -46 533 l 109 539 q 122 66 109 155 m 85 -14 q 69 500 71 94 l -90 500 l -129 811 l 81 789 q 77 863 77 840 q 140 1076 77 975 q 380 1227 203 1176 q 576 1257 475 1257 q 736 1227 675 1257 q 828 1167 798 1200 q 875 1061 858 1134 l 636 905 q 589 982 619 949 q 528 1015 559 1015 q 453 945 483 1015 q 446 912 449 937 q 438 843 442 887 q 431 772 433 799 l 610 772 l 610 511 l 414 505 q 412 342 412 454 q 414 173 412 276 q 419 -15 416 70 q 425 -139 422 -100 q 418 -254 425 -181 q 391 -405 410 -328 q 339 -522 371 -483 q 203 -618 294 -578 q 3 -659 113 -659 q -178 -628 -82 -659 q -338 -519 -291 -591 q -385 -358 -385 -447 q -363 -222 -385 -284 q -328 -134 -342 -160 l -106 -278 q -109 -301 -109 -294 q -78 -366 -109 -342 q -8 -390 -48 -390 q 55 -370 28 -390 q 89 -311 82 -350 q 97 -195 97 -266 q 85 -14 97 -111 z "},"£":{"ha":764,"x_min":-129,"x_max":1067,"o":"m 355 33 q 351 103 351 64 q 356 199 351 145 q 364 303 360 253 q 374 422 368 353 q 380 539 379 492 l 576 539 l 571 739 l 386 728 q 397 866 389 781 q 408 961 406 951 q 453 1054 422 1020 q 522 1088 484 1088 q 592 1055 559 1088 q 647 956 625 1022 l 831 1078 q 810 1119 819 1102 q 794 1144 801 1137 q 768 1164 788 1152 q 720 1194 749 1177 q 591 1223 671 1223 q 353 1178 492 1223 q 292 1157 312 1164 q 234 1119 272 1149 q 162 1035 195 1089 q 109 895 129 981 q 113 739 113 859 l -90 755 l -46 533 l 109 539 q 109 411 109 471 q 107 298 108 351 q 106 193 106 245 q 106 61 106 140 q 111 -155 106 -120 l 1034 -200 q 1036 -153 1036 -200 q 1034 -29 1036 -86 q 1028 28 1031 28 q 355 33 472 28 m 400 72 l 1067 56 l 1061 -239 l 72 -189 q 68 7 68 -158 q 69 199 68 111 q 69 435 69 288 l 69 500 l -90 500 l -129 811 l 81 789 q 77 863 77 840 q 140 1076 77 975 q 380 1227 203 1176 q 576 1257 475 1257 q 736 1227 675 1257 q 828 1167 798 1200 q 875 1061 858 1134 l 636 905 q 589 982 619 949 q 528 1015 559 1015 q 453 945 483 1015 q 446 912 449 937 q 438 843 442 887 q 431 772 433 799 l 610 772 l 610 511 l 414 505 q 411 401 413 454 q 404 288 408 348 q 399 202 400 228 q 397 142 397 176 q 400 72 397 119 z "},"÷":{"ha":625,"x_min":-5,"x_max":661,"o":"m 11 722 l 661 783 l 639 561 l -5 539 l 11 722 m 45 689 l 45 578 l 589 595 l 600 728 l 45 689 m 306 444 q 247 404 267 441 q 228 326 228 366 q 272 261 233 282 q 349 240 310 240 q 408 280 389 246 q 427 361 427 314 q 404 401 424 382 q 357 432 385 420 q 306 444 329 444 m 294 489 q 377 473 342 489 q 435 435 413 457 q 465 395 456 414 q 473 354 473 376 q 459 288 473 322 q 425 228 446 254 q 386 200 404 203 q 334 195 351 195 q 225 230 266 195 q 178 325 185 264 q 206 433 178 383 q 294 489 234 484 m 289 1055 q 230 1015 250 1053 q 211 937 211 977 q 255 872 217 893 q 332 851 293 851 q 391 891 372 857 q 410 972 410 925 q 388 1012 407 993 q 340 1043 368 1031 q 289 1055 313 1055 m 278 1100 q 361 1084 326 1100 q 418 1045 396 1068 q 449 1006 441 1023 q 457 965 457 987 q 443 898 457 932 q 408 839 429 865 q 370 811 387 814 q 317 806 333 806 q 210 840 250 806 q 161 936 169 875 q 189 1044 161 994 q 278 1100 216 1095 z "},"Œ":{"ha":1528,"x_min":-35,"x_max":1872,"o":"m 811 842 q 821 764 821 804 q 774 611 821 673 q 659 550 727 550 q 547 595 603 550 q 501 710 501 631 q 523 807 501 760 q 590 884 545 854 q 701 914 636 914 q 622 844 647 884 q 597 762 597 804 q 605 720 597 742 q 623 688 612 699 q 671 667 643 667 q 756 716 715 667 q 811 842 798 766 m 842 158 q 620 7 731 54 q 403 -40 508 -40 q 139 39 258 -40 q 49 138 89 72 q -13 293 9 204 q -35 473 -35 381 q -20 617 -35 545 q 26 756 -5 690 q 106 878 58 823 q 222 991 165 945 q 341 1069 279 1038 q 470 1118 404 1101 q 608 1135 536 1135 q 673 1132 652 1135 l 1567 1278 l 1584 983 l 1117 905 l 1128 694 l 1589 772 l 1605 528 l 1139 439 l 1161 106 l 1872 72 l 1867 -222 l 878 -172 l 842 158 m 872 256 l 917 -139 l 1839 -183 q 1842 -136 1842 -183 q 1839 -12 1842 -70 q 1833 45 1836 45 q 1738 46 1820 45 q 1478 50 1656 47 q 1236 54 1301 53 q 1128 56 1172 55 l 1107 467 l 1572 555 l 1556 739 l 1097 650 l 1083 933 l 1544 1011 l 1533 1239 l 689 1089 q 647 1090 675 1090 q 532 1078 590 1090 q 412 1035 475 1065 q 286 956 349 1004 q 155 839 222 908 q 56 671 90 770 q 22 465 22 573 q 63 241 22 346 q 178 83 104 136 q 399 16 270 16 q 537 36 467 16 q 670 89 608 56 q 784 166 731 122 q 872 256 838 210 z "},"œ":{"ha":1250,"x_min":-26,"x_max":1311,"o":"m 575 621 q 583 558 583 592 q 564 458 583 509 q 507 375 544 408 q 421 343 469 343 q 318 378 372 343 q 260 478 260 415 q 278 546 260 512 q 326 606 296 579 q 397 650 355 633 q 484 667 438 667 q 418 618 439 649 q 397 557 397 588 q 418 500 397 516 q 450 490 432 490 q 525 530 487 490 q 575 621 564 569 m 775 241 q 741 300 755 254 q 728 397 728 345 q 775 550 728 497 q 829 587 795 573 q 904 602 863 602 q 1034 558 972 602 l 775 241 m 982 545 q 914 561 949 561 q 843 547 876 561 q 794 511 810 532 q 753 392 753 457 q 756 356 753 374 q 766 313 759 338 q 774 286 773 288 l 982 545 m 568 143 q 684 39 610 72 q 850 7 758 7 q 1031 34 937 7 q 1190 102 1124 61 q 1275 183 1256 142 l 1152 338 q 1103 262 1152 304 q 985 190 1055 220 q 861 160 916 160 q 831 163 840 160 l 1234 646 q 1110 697 1177 679 q 972 715 1043 715 q 811 689 890 715 q 664 606 731 662 q 587 700 633 660 q 439 751 530 751 q 333 733 389 751 q 221 676 277 714 q 113 583 164 639 q 59 507 79 547 q 28 423 39 467 q 18 335 18 379 q 52 175 18 249 q 143 62 85 102 q 290 21 203 21 q 435 52 362 21 q 568 143 509 83 m 564 71 q 435 -3 503 21 q 300 -28 367 -28 q 190 -10 242 -28 q 102 37 138 8 q 7 173 41 87 q -26 353 -26 258 q 68 616 -26 516 q 412 791 233 791 q 615 734 513 791 q 655 704 640 722 q 686 663 671 687 q 826 728 752 707 q 978 750 899 750 q 1141 724 1063 750 q 1278 644 1219 697 l 905 200 q 999 221 955 200 q 1081 280 1044 241 q 1147 370 1118 318 l 1311 172 q 1218 71 1291 117 q 1043 -2 1145 24 q 843 -28 941 -28 q 677 -3 752 -28 q 564 71 603 21 z "},"­":{"ha":486,"x_min":-5,"x_max":528,"o":"m 11 722 l 528 778 l 505 555 l -5 539 l 11 722 m 45 689 l 45 578 l 456 589 l 467 722 l 45 689 z "},"†":{"ha":555,"x_min":11,"x_max":561,"o":"m 11 900 l 161 911 l 272 1105 l 378 917 l 550 911 l 561 684 l 383 677 l 267 328 l 172 677 l 11 677 l 11 900 m 56 728 l 211 722 l 267 472 l 345 728 l 505 728 l 517 850 l 350 850 l 278 1006 l 205 856 l 56 850 l 56 728 z "},"‡":{"ha":555,"x_min":5,"x_max":561,"o":"m 339 494 l 345 728 l 505 728 l 517 850 l 350 850 l 278 1006 l 205 856 l 56 850 l 56 728 l 211 722 l 205 500 l 50 494 l 50 372 l 200 367 l 272 216 l 345 372 l 511 372 l 500 494 l 339 494 m 378 545 l 555 539 l 545 311 l 372 306 l 267 117 l 155 311 l 5 322 l 5 545 l 167 545 l 172 677 l 11 677 l 11 900 l 161 911 l 272 1105 l 378 917 l 550 911 l 561 684 l 383 677 l 378 545 z "},"×":{"ha":694,"x_min":-17,"x_max":783,"o":"m -17 844 l 172 1017 q 258 935 195 994 q 354 846 321 876 q 389 817 387 817 l 623 1006 l 783 884 l 555 700 l 778 539 l 517 411 l 361 528 l 150 416 l 11 589 l 183 694 l -17 844 m 61 856 l 267 694 l 78 567 l 172 472 l 355 578 q 418 530 355 575 q 522 456 481 485 l 684 550 l 484 711 l 711 889 l 611 945 l 383 772 l 161 950 l 61 856 z "},"Ð":{"ha":903,"x_min":-28,"x_max":956,"o":"m 611 972 q 687 865 665 956 q 710 656 710 774 q 700 505 710 565 q 660 404 692 456 q 567 307 628 351 q 422 244 507 262 l 408 444 l 517 450 l 511 644 l 395 633 l 372 950 q 438 966 408 959 q 497 977 468 972 q 549 981 526 981 q 611 972 581 981 m 595 928 q 505 947 538 947 q 416 917 459 947 l 429 689 l 550 689 l 555 406 l 444 406 l 450 300 q 603 398 565 349 q 650 478 642 446 q 664 552 656 493 q 671 684 671 611 q 653 846 671 779 q 595 928 636 913 m 861 1050 q 915 918 893 986 q 946 782 936 850 q 956 648 956 714 q 924 422 956 530 q 833 228 892 313 q 691 88 774 142 q 505 22 607 35 l 222 -28 l 175 406 l 45 406 l 28 694 l 144 694 l 127 844 q 94 808 123 844 q 61 772 66 772 q 35 830 46 783 q 3 978 24 878 q -28 1100 -18 1078 q 267 1182 129 1151 q 525 1214 406 1214 q 861 1050 781 1214 m 811 1044 q 690 1143 761 1112 q 525 1174 619 1174 q 420 1166 479 1174 q 306 1146 362 1159 q 191 1118 250 1134 q 28 1072 131 1103 l 72 828 q 109 865 87 850 q 146 880 131 880 q 155 872 155 880 l 179 656 l 66 656 l 72 439 l 204 444 l 250 22 l 456 50 q 567 76 517 58 q 660 120 618 94 q 733 178 701 146 q 867 386 827 268 q 907 636 907 503 q 891 810 907 726 q 854 955 876 895 q 811 1044 832 1015 z "},"ð":{"ha":694,"x_min":-26,"x_max":755,"o":"m 450 664 q 397 562 397 629 q 418 500 397 516 q 450 490 432 490 l 450 346 q 422 343 433 343 q 318 378 370 343 q 260 478 260 416 q 274 539 260 508 q 315 595 289 570 q 377 640 340 621 q 450 664 413 659 m 264 1111 q 291 1179 273 1151 q 335 1222 309 1206 q 386 1238 360 1238 q 462 1204 427 1238 q 519 1105 498 1171 l 528 745 q 493 746 517 746 q 398 735 450 746 q 295 704 347 725 q 196 652 243 683 q 113 583 148 622 q 59 507 79 547 q 28 423 39 467 q 18 335 18 379 q 52 175 18 249 q 143 62 85 102 q 205 37 170 45 q 285 29 241 29 q 398 42 338 29 q 505 78 458 56 l 511 -5 l 711 11 l 686 1227 q 648 1296 657 1286 q 575 1344 638 1307 q 447 1373 527 1373 q 208 1328 343 1373 l 264 1111 m 170 1350 q 411 1417 288 1417 q 591 1378 505 1417 q 684 1317 654 1350 q 730 1211 713 1284 l 745 532 q 750 452 750 496 q 747 393 750 412 l 755 -22 l 472 -39 l 472 3 q 315 -28 398 -28 q 195 -10 252 -28 q 102 37 138 8 q 7 173 41 87 q -26 353 -26 258 q 68 616 -26 516 q 188 718 123 675 q 321 784 254 762 q 452 807 389 807 q 484 806 472 807 l 492 1055 q 452 1154 477 1121 q 395 1186 426 1186 q 323 1150 359 1186 q 261 1055 287 1114 l 170 1350 z "},"µ":{"ha":833,"x_min":-39,"x_max":897,"o":"m 311 -22 l 289 -406 l -39 -400 l 12 339 q 16 445 15 380 q 17 596 17 509 q 28 844 17 758 l 361 806 q 349 541 349 645 q 352 450 349 488 q 361 381 355 412 q 378 328 368 350 q 456 231 420 231 q 511 300 483 231 q 545 394 530 348 q 568 483 560 441 q 581 575 576 525 q 585 685 585 625 q 583 778 585 745 l 867 761 q 893 592 889 621 q 897 519 897 563 q 861 300 897 446 q 783 144 844 226 q 667 31 723 63 q 548 -13 613 -1 q 408 -25 484 -25 q 311 -22 375 -25 m 267 39 q 399 21 323 21 q 534 36 467 21 q 644 78 601 51 q 703 124 678 99 q 743 174 727 149 q 774 231 760 200 q 800 283 789 262 q 851 492 851 386 q 840 613 851 540 q 828 717 828 687 l 623 722 q 628 644 628 675 q 612 475 628 566 q 572 317 595 384 q 517 218 550 251 q 447 184 484 184 q 378 219 409 184 q 334 311 347 254 q 309 561 309 428 q 322 772 309 659 l 66 800 q 58 663 58 745 q 60 604 58 642 q 62 539 61 566 q 64 481 63 513 q 65 407 65 448 q 62 334 65 380 l 11 -350 l 239 -355 l 267 39 z "},"¦":{"ha":416,"x_min":0,"x_max":400,"o":"m 383 539 l 383 -400 l 0 -461 l 0 511 l 383 539 m 18 672 l 28 1322 l 400 1411 l 393 689 l 18 672 m 56 478 l 33 -411 l 339 -361 l 347 494 l 56 478 m 350 739 l 355 1356 l 78 1289 l 62 728 l 350 739 z "},"±":{"ha":625,"x_min":-22,"x_max":661,"o":"m 11 722 l 239 743 l 256 956 l 472 956 l 450 761 l 661 783 l 639 561 l 411 554 l 383 328 l 172 328 l 200 547 l -5 539 l 11 722 m 244 589 l 211 361 l 350 361 l 378 587 l 589 595 l 600 728 l 411 711 l 428 911 l 289 917 l 261 700 l 45 689 l 45 578 l 244 589 m 0 256 l 644 294 l 633 134 l -22 106 l 0 256 m 39 216 q 35 181 39 207 q 28 139 31 155 l 578 172 l 583 250 l 39 216 z "}}}
